Ubuntu-Regular.ufo
<glyph name="exclam" format="2">
  <advance width="276.76"/>
  <unicode hex="0021"/>
  <outline>
    <contour>
      <point x="113.95" y="214.84" type="curve"/>
      <point x="163.27" y="214.84" type="line"/>
      <point x="174.73" y="305.45"/>
      <point x="183.73" y="390.6"/>
      <point x="183.73" y="503.22" type="curve" smooth="yes"/>
      <point x="183.73" y="693.0" type="line"/>
      <point x="93.26" y="693.0" type="line"/>
      <point x="93.26" y="503.22" type="line" smooth="yes"/>
      <point x="93.26" y="390.6"/>
      <point x="101.72" y="305.45"/>
    </contour>
    <contour>
      <point x="138.38" y="-12.23" type="curve" smooth="yes"/>
      <point x="175.6" y="-12.23"/>
      <point x="202.12" y="14.61"/>
      <point x="202.12" y="51.28" type="curve" smooth="yes"/>
      <point x="202.12" y="87.95"/>
      <point x="175.6" y="114.78999999999999"/>
      <point x="138.38" y="114.78999999999999" type="curve" smooth="yes"/>
      <point x="101.16" y="114.78999999999999"/>
      <point x="74.64" y="87.95"/>
      <point x="74.64" y="51.28" type="curve" smooth="yes"/>
      <point x="74.64" y="14.61"/>
      <point x="101.16" y="-12.23"/>
    </contour>
  </outline>
</glyph>
<glyph name="numbersign" format="2">
  <advance width="664.5"/>
  <unicode hex="0023"/>
  <outline>
    <contour>
      <point x="103.25" y="0.0" type="line"/>
      <point x="181.5" y="0.0" type="line"/>
      <point x="217.25" y="184.25" type="line"/>
      <point x="385.0" y="184.25" type="line"/>
      <point x="349.25" y="0.0" type="line"/>
      <point x="427.5" y="0.0" type="line"/>
      <point x="463.25" y="184.25" type="line"/>
      <point x="615.5" y="184.25" type="line"/>
      <point x="615.5" y="253.5" type="line"/>
      <point x="476.25" y="253.5" type="line"/>
      <point x="511.5" y="439.5" type="line"/>
      <point x="615.5" y="439.5" type="line"/>
      <point x="615.5" y="508.0" type="line"/>
      <point x="525.25" y="508.0" type="line"/>
      <point x="560.5" y="693.0" type="line"/>
      <point x="482.25" y="693.0" type="line"/>
      <point x="447.0" y="508.0" type="line"/>
      <point x="279.25" y="508.0" type="line"/>
      <point x="314.5" y="693.0" type="line"/>
      <point x="236.25" y="693.0" type="line"/>
      <point x="201.0" y="508.0" type="line"/>
      <point x="49.0" y="508.0" type="line"/>
      <point x="49.0" y="439.5" type="line"/>
      <point x="187.25" y="439.5" type="line"/>
      <point x="152.0" y="253.5" type="line"/>
      <point x="49.0" y="253.5" type="line"/>
      <point x="49.0" y="184.25" type="line"/>
      <point x="139.0" y="184.25" type="line"/>
    </contour>
    <contour>
      <point x="230.25" y="253.5" type="line"/>
      <point x="266.25" y="439.5" type="line"/>
      <point x="434.0" y="439.5" type="line"/>
      <point x="398.0" y="253.5" type="line"/>
    </contour>
  </outline>
</glyph>
<glyph name="dollar" format="2">
  <advance width="565.34"/>
  <unicode hex="0024"/>
  <outline>
    <contour>
      <point x="243.61" y="-109.0" type="line"/>
      <point x="325.055" y="-109.0" type="line"/>
      <point x="325.055" y="19.65" type="line"/>
      <point x="440.095" y="32.005"/>
      <point x="499.06" y="99.705"/>
      <point x="499.06" y="188.685" type="curve" smooth="yes"/>
      <point x="499.06" y="304.69"/>
      <point x="411.725" y="346.715"/>
      <point x="308.025" y="385.06" type="curve" smooth="yes"/>
      <point x="223.38" y="415.715"/>
      <point x="174.415" y="434.375"/>
      <point x="174.415" y="497.655" type="curve" smooth="yes"/>
      <point x="174.415" y="553.935"/>
      <point x="214.38" y="585.58"/>
      <point x="298.995" y="585.58" type="curve" smooth="yes"/>
      <point x="369.645" y="585.58"/>
      <point x="417.675" y="569.25"/>
      <point x="447.71" y="556.9" type="curve"/>
      <point x="469.4" y="633.675" type="line"/>
      <point x="438.405" y="646.675"/>
      <point x="389.4" y="661.01"/>
      <point x="325.055" y="664.02" type="curve"/>
      <point x="325.055" y="776.0" type="line"/>
      <point x="243.61" y="776.0" type="line"/>
      <point x="243.61" y="660.685" type="line"/>
      <point x="129.6" y="642.675"/>
      <point x="77.275" y="581.97"/>
      <point x="77.275" y="486.985" type="curve" smooth="yes"/>
      <point x="77.275" y="382.625"/>
      <point x="163.62" y="344.62"/>
      <point x="240.645" y="316.61" type="curve" smooth="yes"/>
      <point x="338.96" y="281.285"/>
      <point x="401.255" y="258.96"/>
      <point x="401.255" y="183.69" type="curve" smooth="yes"/>
      <point x="401.255" y="132.385"/>
      <point x="366.945" y="94.755"/>
      <point x="269.985" y="94.755" type="curve" smooth="yes"/>
      <point x="180.695" y="94.755"/>
      <point x="128.325" y="116.755"/>
      <point x="88.64" y="136.43" type="curve"/>
      <point x="61.6" y="60.665" type="line"/>
      <point x="90.6" y="44.335"/>
      <point x="151.265" y="19.995"/>
      <point x="243.61" y="16.65" type="curve"/>
    </contour>
  </outline>
</glyph>
<glyph name="percent" format="2">
  <advance width="860.145"/>
  <unicode hex="0025"/>
  <outline>
    <contour>
      <point x="187.68" y="0.0" type="line"/>
      <point x="278.135" y="0.0" type="line"/>
      <point x="671.795" y="693.0" type="line"/>
      <point x="581.34" y="693.0" type="line"/>
    </contour>
    <contour>
      <point x="210.005" y="340.285" type="curve" smooth="yes"/>
      <point x="299.385" y="340.285"/>
      <point x="369.05" y="404.63"/>
      <point x="369.05" y="524.31" type="curve"/>
      <point x="369.05" y="643.99"/>
      <point x="299.385" y="708.335"/>
      <point x="210.005" y="708.335" type="curve"/>
      <point x="120.625" y="708.335"/>
      <point x="50.96" y="643.99"/>
      <point x="50.96" y="524.31" type="curve" smooth="yes"/>
      <point x="50.96" y="404.63"/>
      <point x="120.625" y="340.285"/>
    </contour>
    <contour>
      <point x="210.005" y="407.69" type="curve" smooth="yes"/>
      <point x="157.04" y="407.69"/>
      <point x="128.05" y="451.655"/>
      <point x="128.05" y="524.31" type="curve"/>
      <point x="128.05" y="596.965"/>
      <point x="157.04" y="640.595"/>
      <point x="210.005" y="640.595" type="curve" smooth="yes"/>
      <point x="262.3" y="640.595"/>
      <point x="291.96" y="596.965"/>
      <point x="291.96" y="524.31" type="curve"/>
      <point x="291.96" y="451.655"/>
      <point x="262.3" y="407.69"/>
    </contour>
    <contour>
      <point x="650.14" y="-15.335" type="curve" smooth="yes"/>
      <point x="739.52" y="-15.335"/>
      <point x="809.185" y="49.01"/>
      <point x="809.185" y="168.69" type="curve" smooth="yes"/>
      <point x="809.185" y="288.37"/>
      <point x="739.52" y="352.715"/>
      <point x="650.14" y="352.715" type="curve" smooth="yes"/>
      <point x="560.76" y="352.715"/>
      <point x="491.095" y="288.37"/>
      <point x="491.095" y="168.69" type="curve"/>
      <point x="491.095" y="49.01"/>
      <point x="560.76" y="-15.335"/>
    </contour>
    <contour>
      <point x="650.14" y="52.07" type="curve" smooth="yes"/>
      <point x="597.175" y="52.07"/>
      <point x="568.185" y="96.035"/>
      <point x="568.185" y="168.69" type="curve"/>
      <point x="568.185" y="241.345"/>
      <point x="597.175" y="284.975"/>
      <point x="650.14" y="284.975" type="curve" smooth="yes"/>
      <point x="702.435" y="284.975"/>
      <point x="732.095" y="241.345"/>
      <point x="732.095" y="168.69" type="curve" smooth="yes"/>
      <point x="732.095" y="96.035"/>
      <point x="702.435" y="52.07"/>
    </contour>
  </outline>
</glyph>
<glyph name="ampersand" format="2">
  <advance width="667.095"/>
  <unicode hex="0026"/>
  <outline>
    <contour>
      <point x="271.355" y="-9.0" type="curve" smooth="yes"/>
      <point x="362.015" y="-9.0"/>
      <point x="435.675" y="28.985"/>
      <point x="490.005" y="82.625" type="curve"/>
      <point x="516.32" y="55.644999999999996"/>
      <point x="540.975" y="26.31"/>
      <point x="557.295" y="0.0" type="curve"/>
      <point x="657.095" y="0.0" type="line"/>
      <point x="632.085" y="46.36"/>
      <point x="590.415" y="96.715"/>
      <point x="543.425" y="146.045" type="curve"/>
      <point x="580.075" y="203.03"/>
      <point x="602.74" y="273.705"/>
      <point x="608.405" y="333.68" type="curve"/>
      <point x="529.625" y="343.695" type="line"/>
      <point x="524.63" y="296.07"/>
      <point x="508.305" y="242.755"/>
      <point x="485.665" y="202.455" type="curve"/>
      <point x="324.455" y="366.325" type="line"/>
      <point x="398.78" y="406.665"/>
      <point x="465.74" y="464.68"/>
      <point x="465.74" y="557.65" type="curve" smooth="yes"/>
      <point x="465.74" y="641.99"/>
      <point x="405.065" y="708.335"/>
      <point x="297.025" y="708.335" type="curve" smooth="yes"/>
      <point x="190.98" y="708.335"/>
      <point x="118.64" y="645.66"/>
      <point x="118.64" y="536.64" type="curve" smooth="yes"/>
      <point x="118.64" y="483.64"/>
      <point x="142.655" y="434.32"/>
      <point x="191.945" y="385.345" type="curve"/>
      <point x="113.96" y="346.675"/>
      <point x="44.975" y="285.335"/>
      <point x="44.975" y="180.675" type="curve" smooth="yes"/>
      <point x="44.975" y="94.33"/>
      <point x="100.315" y="-9.0"/>
    </contour>
    <contour>
      <point x="273.03" y="68.1" type="curve" smooth="yes"/>
      <point x="174.41" y="68.1"/>
      <point x="138.09" y="131.735"/>
      <point x="138.09" y="185.7" type="curve" smooth="yes"/>
      <point x="138.09" y="271.295"/>
      <point x="195.715" y="309.62"/>
      <point x="243.685" y="332.94" type="curve"/>
      <point x="436.935" y="136.03" type="line"/>
      <point x="397.63" y="94.74"/>
      <point x="342.995" y="68.1"/>
    </contour>
    <contour>
      <point x="273.375" y="415.385" type="curve"/>
      <point x="224.085" y="461.01"/>
      <point x="205.41" y="500.66"/>
      <point x="205.41" y="543.64" type="curve" smooth="yes"/>
      <point x="205.41" y="599.27"/>
      <point x="238.055" y="635.585"/>
      <point x="297.015" y="635.585" type="curve" smooth="yes"/>
      <point x="350.0" y="635.585"/>
      <point x="381.965" y="599.605"/>
      <point x="381.965" y="554.64" type="curve" smooth="yes"/>
      <point x="381.965" y="484.35"/>
      <point x="335.66" y="446.7"/>
    </contour>
  </outline>
</glyph>
<glyph name="quotesingle" format="2">
  <advance width="242.345"/>
  <unicode hex="0027"/>
  <outline>
    <contour>
      <point x="93.285" y="500.58" type="curve"/>
      <point x="148.395" y="500.58" type="line"/>
      <point x="160.395" y="571.595"/>
      <point x="169.735" y="644.61"/>
      <point x="169.735" y="709.94" type="curve"/>
      <point x="169.735" y="760.0" type="line"/>
      <point x="72.61" y="760.0" type="line"/>
      <point x="72.61" y="710.94" type="line"/>
      <point x="72.61" y="643.945"/>
      <point x="80.945" y="571.595"/>
    </contour>
  </outline>
</glyph>
<glyph name="parenleft" format="2">
  <advance width="325.41"/>
  <unicode hex="0028"/>
  <outline>
    <contour>
      <point x="251.655" y="-185.0" type="curve"/>
      <point x="317.75" y="-141.275" type="line"/>
      <point x="221.46" y="-16.97"/>
      <point x="171.78" y="127.705"/>
      <point x="171.78" y="299.0" type="curve"/>
      <point x="171.78" y="470.295"/>
      <point x="221.46" y="614.97"/>
      <point x="317.75" y="739.275" type="curve"/>
      <point x="251.655" y="783.0" type="line"/>
      <point x="146.97" y="655.325"/>
      <point x="78.645" y="488.32"/>
      <point x="78.645" y="299.0" type="curve" smooth="yes"/>
      <point x="78.645" y="109.68"/>
      <point x="146.97" y="-57.325"/>
    </contour>
  </outline>
</glyph>
<glyph name="parenright" format="2">
  <advance width="325.41"/>
  <unicode hex="0029"/>
  <outline>
    <contour>
      <point x="73.755" y="-185.0" type="line"/>
      <point x="178.44" y="-57.325"/>
      <point x="246.765" y="109.68"/>
      <point x="246.765" y="299.0" type="curve" smooth="yes"/>
      <point x="246.765" y="488.32"/>
      <point x="178.44" y="655.325"/>
      <point x="73.755" y="783.0" type="curve"/>
      <point x="7.66" y="739.275" type="line"/>
      <point x="103.95" y="614.97"/>
      <point x="153.63" y="470.295"/>
      <point x="153.63" y="299.0" type="curve"/>
      <point x="153.63" y="127.705"/>
      <point x="103.95" y="-16.97"/>
      <point x="7.66" y="-141.275" type="curve"/>
    </contour>
  </outline>
</glyph>
<glyph name="asterisk" format="2">
  <advance width="478.9"/>
  <unicode hex="002A"/>
  <outline>
    <contour>
      <point x="157.28" y="311.25" type="line"/>
      <point x="195.28" y="364.1"/>
      <point x="213.21" y="405.49"/>
      <point x="239.45" y="463.18" type="curve"/>
      <point x="265.69" y="405.72"/>
      <point x="283.62" y="363.87"/>
      <point x="321.62" y="311.25" type="curve"/>
      <point x="389.12" y="360.07" type="line"/>
      <point x="348.66" y="413.76"/>
      <point x="318.65" y="441.39"/>
      <point x="269.89" y="485.01" type="curve"/>
      <point x="334.96" y="492.71"/>
      <point x="374.6" y="496.18"/>
      <point x="439.67" y="516.64" type="curve"/>
      <point x="414.3" y="595.21" type="line"/>
      <point x="352.68" y="574.9"/>
      <point x="312.83" y="552.44"/>
      <point x="258.36" y="522.14" type="curve"/>
      <point x="276.2" y="608.16"/>
      <point x="279.04" y="625.31"/>
      <point x="280.58" y="693.0" type="curve"/>
      <point x="198.32" y="693.0" type="line"/>
      <point x="199.86" y="624.77"/>
      <point x="202.47" y="609.39"/>
      <point x="220.54" y="522.14" type="curve"/>
      <point x="164.53" y="553.21"/>
      <point x="127.76" y="574.13"/>
      <point x="64.6" y="595.21" type="curve"/>
      <point x="39.23" y="516.64" type="line"/>
      <point x="104.3" y="496.18"/>
      <point x="143.94" y="492.71"/>
      <point x="209.01" y="485.01" type="curve"/>
      <point x="160.71" y="441.62"/>
      <point x="130.24" y="413.99"/>
      <point x="89.78" y="360.07" type="curve"/>
    </contour>
  </outline>
</glyph>
<glyph name="plus" format="2">
  <advance width="565.34"/>
  <unicode hex="002B"/>
  <outline>
    <contour>
      <point x="240.605" y="45.68" type="line"/>
      <point x="324.735" y="45.68" type="line"/>
      <point x="324.735" y="252.625" type="line"/>
      <point x="511.685" y="252.625" type="line"/>
      <point x="511.685" y="331.74" type="line"/>
      <point x="324.735" y="331.74" type="line"/>
      <point x="324.735" y="538.02" type="line"/>
      <point x="240.605" y="538.02" type="line"/>
      <point x="240.605" y="331.74" type="line"/>
      <point x="53.655" y="331.74" type="line"/>
      <point x="53.655" y="252.625" type="line"/>
      <point x="240.605" y="252.625" type="line"/>
    </contour>
  </outline>
</glyph>
<glyph name="comma" format="2">
  <advance width="246.0"/>
  <unicode hex="002C"/>
  <outline>
    <contour>
      <point x="109.395" y="-160.34" type="line"/>
      <point x="153.745" y="-88.645"/>
      <point x="180.085" y="-2.9399999999999995"/>
      <point x="180.085" y="78.39" type="curve" smooth="yes"/>
      <point x="180.085" y="85.395"/>
      <point x="180.085" y="95.395"/>
      <point x="178.415" y="114.095" type="curve"/>
      <point x="77.61" y="114.095" type="line"/>
      <point x="78.275" y="101.77"/>
      <point x="79.945" y="81.715"/>
      <point x="79.945" y="66.05" type="curve" smooth="yes"/>
      <point x="79.945" y="3.080000000000002"/>
      <point x="68.615" y="-68.28"/>
      <point x="38.28" y="-135.995" type="curve"/>
    </contour>
  </outline>
</glyph>
<glyph name="hyphen" format="2">
  <advance width="301.43"/>
  <unicode hex="002D"/>
  <outline>
    <contour>
      <point x="26.995" y="248.955" type="line"/>
      <point x="274.435" y="248.955" type="line"/>
      <point x="274.435" y="336.075" type="line"/>
      <point x="26.995" y="336.075" type="line"/>
    </contour>
  </outline>
</glyph>
<glyph name="period" format="2">
  <advance width="246.0"/>
  <unicode hex="002E"/>
  <outline>
    <contour>
      <point x="123.0" y="-12.25" type="curve" smooth="yes"/>
      <point x="160.5" y="-12.25"/>
      <point x="187.5" y="14.75"/>
      <point x="187.5" y="52.0" type="curve" smooth="yes"/>
      <point x="187.5" y="89.25"/>
      <point x="160.5" y="116.25"/>
      <point x="123.0" y="116.25" type="curve" smooth="yes"/>
      <point x="85.5" y="116.25"/>
      <point x="58.5" y="89.25"/>
      <point x="58.5" y="52.0" type="curve" smooth="yes"/>
      <point x="58.5" y="14.75"/>
      <point x="85.5" y="-12.25"/>
    </contour>
  </outline>
</glyph>
<glyph name="slash" format="2">
  <advance width="385.13"/>
  <unicode hex="002F"/>
  <outline>
    <contour>
      <point x="-23.67" y="-185.0" type="line"/>
      <point x="71.475" y="-185.0" type="line"/>
      <point x="408.8" y="783.0" type="line"/>
      <point x="315.655" y="783.0" type="line"/>
    </contour>
  </outline>
</glyph>
<glyph name="zero" format="2">
  <advance width="565.0"/>
  <unicode hex="0030"/>
  <outline>
    <contour>
      <point x="282.5" y="-14.75" type="curve" smooth="yes"/>
      <point x="426.5" y="-14.75"/>
      <point x="512.25" y="114.25"/>
      <point x="512.25" y="346.5" type="curve" smooth="yes"/>
      <point x="512.25" y="579.25"/>
      <point x="426.5" y="708.25"/>
      <point x="282.5" y="708.25" type="curve" smooth="yes"/>
      <point x="138.0" y="708.25"/>
      <point x="52.75" y="579.0"/>
      <point x="52.75" y="346.5" type="curve" smooth="yes"/>
      <point x="52.75" y="114.25"/>
      <point x="138.5" y="-14.75"/>
    </contour>
    <contour>
      <point x="282.5" y="61.5" type="curve" smooth="yes"/>
      <point x="177.0" y="61.5"/>
      <point x="144.0" y="192.5"/>
      <point x="144.0" y="346.5" type="curve" smooth="yes"/>
      <point x="144.0" y="500.25"/>
      <point x="177.0" y="632.0"/>
      <point x="282.5" y="632.0" type="curve" smooth="yes"/>
      <point x="387.5" y="632.0"/>
      <point x="421.0" y="500.25"/>
      <point x="421.0" y="346.5" type="curve" smooth="yes"/>
      <point x="421.0" y="192.5"/>
      <point x="387.5" y="61.5"/>
    </contour>
  </outline>
</glyph>
<glyph name="one" format="2">
  <advance width="565.34"/>
  <unicode hex="0031"/>
  <outline>
    <contour>
      <point x="276.61" y="0.0" type="line"/>
      <point x="369.75" y="0.0" type="line"/>
      <point x="369.75" y="693.0" type="line"/>
      <point x="304.32" y="693.0" type="line"/>
      <point x="244.325" y="623.355"/>
      <point x="173.935" y="579.67"/>
      <point x="94.605" y="550.33" type="curve"/>
      <point x="122.315" y="478.555" type="line"/>
      <point x="179.955" y="497.215"/>
      <point x="244.59" y="532.515"/>
      <point x="276.61" y="562.175" type="curve"/>
    </contour>
  </outline>
</glyph>
<glyph name="two" format="2">
  <advance width="565.0"/>
  <unicode hex="0032"/>
  <outline>
    <contour>
      <point x="74.5" y="0.0" type="curve"/>
      <point x="489.25" y="0.0" type="line"/>
      <point x="489.25" y="74.0" type="line"/>
      <point x="169.5" y="74.0" type="line"/>
      <point x="171.5" y="129.25"/>
      <point x="238.5" y="197.75"/>
      <point x="299.75" y="257.0" type="curve" smooth="yes"/>
      <point x="382.25" y="336.0"/>
      <point x="466.0" y="414.5"/>
      <point x="466.0" y="518.5" type="curve" smooth="yes"/>
      <point x="466.0" y="636.75"/>
      <point x="396.75" y="708.25"/>
      <point x="255.5" y="708.25" type="curve" smooth="yes"/>
      <point x="158.25" y="708.25"/>
      <point x="88.0" y="654.25"/>
      <point x="60.5" y="625.5" type="curve"/>
      <point x="104.5" y="565.75" type="line"/>
      <point x="121.75" y="583.0"/>
      <point x="174.25" y="632.0"/>
      <point x="254.75" y="632.0" type="curve"/>
      <point x="324.0" y="632.0"/>
      <point x="375.5" y="598.25"/>
      <point x="375.5" y="513.75" type="curve" smooth="yes"/>
      <point x="375.5" y="435.75"/>
      <point x="319.75" y="383.5"/>
      <point x="253.5" y="321.0" type="curve" smooth="yes"/>
      <point x="172.0" y="244.0"/>
      <point x="73.25" y="157.25"/>
      <point x="73.25" y="31.0" type="curve" smooth="yes"/>
      <point x="73.25" y="17.5"/>
      <point x="73.75" y="6.0"/>
    </contour>
  </outline>
</glyph>
<glyph name="three" format="2">
  <advance width="565.34"/>
  <unicode hex="0033"/>
  <outline>
    <contour>
      <point x="231.325" y="-15.0" type="curve" smooth="yes"/>
      <point x="407.7" y="-15.0"/>
      <point x="489.705" y="74.675"/>
      <point x="489.705" y="194.695" type="curve" smooth="yes"/>
      <point x="489.705" y="297.64"/>
      <point x="426.095" y="354.315"/>
      <point x="352.765" y="376.665" type="curve"/>
      <point x="414.74" y="400.34"/>
      <point x="458.38" y="453.68"/>
      <point x="458.38" y="525.97" type="curve" smooth="yes"/>
      <point x="458.38" y="631.32"/>
      <point x="392.03" y="708.335"/>
      <point x="245.655" y="708.335" type="curve" smooth="yes"/>
      <point x="163.31" y="708.335"/>
      <point x="100.95" y="674.665"/>
      <point x="68.59" y="652.985" type="curve"/>
      <point x="104.965" y="582.555" type="line"/>
      <point x="134.99" y="602.235"/>
      <point x="175.345" y="626.225"/>
      <point x="242.32" y="626.225" type="curve" smooth="yes"/>
      <point x="305.275" y="626.225"/>
      <point x="362.58" y="597.24"/>
      <point x="362.58" y="520.97" type="curve" smooth="yes"/>
      <point x="362.58" y="429.365"/>
      <point x="283.64" y="406.045"/>
      <point x="216.66" y="406.045" type="curve" smooth="yes"/>
      <point x="179.255" y="406.045" type="line"/>
      <point x="179.255" y="329.935" type="line"/>
      <point x="205.335" y="329.935" type="line"/>
      <point x="307.29" y="329.935"/>
      <point x="392.905" y="298.955"/>
      <point x="392.905" y="196.695" type="curve" smooth="yes"/>
      <point x="392.905" y="117.745"/>
      <point x="345.255" y="67.445"/>
      <point x="230.645" y="67.445" type="curve" smooth="yes"/>
      <point x="153.305" y="67.445"/>
      <point x="97.315" y="91.105"/>
      <point x="74.285" y="102.78" type="curve"/>
      <point x="53.265" y="22.67" type="line"/>
      <point x="76.96" y="10.66"/>
      <point x="149.35" y="-15.0"/>
    </contour>
  </outline>
</glyph>
<glyph name="four" format="2">
  <advance width="565.34"/>
  <unicode hex="0034"/>
  <outline>
    <contour>
      <point x="348.925" y="0.0" type="line"/>
      <point x="440.395" y="0.0" type="line"/>
      <point x="440.395" y="176.945" type="line"/>
      <point x="522.375" y="176.945" type="line"/>
      <point x="522.375" y="253.06" type="line"/>
      <point x="440.395" y="253.06" type="line"/>
      <point x="440.395" y="693.0" type="line"/>
      <point x="347.94" y="693.0" type="line"/>
      <point x="220.625" y="565.02"/>
      <point x="91.3" y="363.71"/>
      <point x="39.95" y="240.06" type="curve"/>
      <point x="39.95" y="176.945" type="line"/>
      <point x="348.925" y="176.945" type="line"/>
    </contour>
    <contour>
      <point x="132.075" y="253.06" type="line"/>
      <point x="179.39" y="362.33"/>
      <point x="268.995" y="496.2"/>
      <point x="348.925" y="583.485" type="curve"/>
      <point x="348.925" y="253.06" type="line"/>
    </contour>
  </outline>
</glyph>
<glyph name="five" format="2">
  <advance width="565.34"/>
  <unicode hex="0035"/>
  <outline>
    <contour>
      <point x="237.66" y="-15.0" type="curve"/>
      <point x="410.355" y="-15.0"/>
      <point x="491.71" y="77.01"/>
      <point x="491.71" y="198.36" type="curve" smooth="yes"/>
      <point x="491.71" y="334.035"/>
      <point x="401.045" y="417.69"/>
      <point x="199.395" y="426.035" type="curve"/>
      <point x="204.725" y="467.015"/>
      <point x="211.715" y="563.89"/>
      <point x="214.05" y="613.22" type="curve"/>
      <point x="467.375" y="613.22" type="line"/>
      <point x="467.375" y="693.0" type="line"/>
      <point x="134.27" y="693.0" type="line"/>
      <point x="130.6" y="584.325"/>
      <point x="124.26" y="481.25"/>
      <point x="108.595" y="349.935" type="curve"/>
      <point x="334.91" y="349.935"/>
      <point x="395.245" y="292.97"/>
      <point x="395.245" y="196.02" type="curve" smooth="yes"/>
      <point x="395.245" y="125.075"/>
      <point x="355.58" y="67.445"/>
      <point x="235.65" y="67.445" type="curve" smooth="yes"/>
      <point x="162.31" y="67.445"/>
      <point x="103.32" y="89.765"/>
      <point x="80.96" y="101.44" type="curve"/>
      <point x="60.61" y="21.665" type="line"/>
      <point x="82.965" y="9.99"/>
      <point x="157.35" y="-15.0"/>
    </contour>
  </outline>
</glyph>
<glyph name="six" format="2">
  <advance width="565.0"/>
  <unicode hex="0036"/>
  <outline>
    <contour>
      <point x="297.25" y="-14.75" type="curve" smooth="yes"/>
      <point x="444.25" y="-14.75"/>
      <point x="511.25" y="105.25"/>
      <point x="511.25" y="209.25" type="curve" smooth="yes"/>
      <point x="511.25" y="322.5"/>
      <point x="453.25" y="422.5"/>
      <point x="298.25" y="422.5" type="curve" smooth="yes"/>
      <point x="248.75" y="422.5"/>
      <point x="201.0" y="408.5"/>
      <point x="166.75" y="391.75" type="curve"/>
      <point x="197.75" y="559.25"/>
      <point x="313.0" y="616.5"/>
      <point x="468.25" y="624.75" type="curve"/>
      <point x="463.25" y="696.5" type="line"/>
      <point x="211.0" y="688.25"/>
      <point x="67.0" y="545.5"/>
      <point x="67.0" y="277.0" type="curve" smooth="yes"/>
      <point x="67.0" y="94.25"/>
      <point x="146.75" y="-14.75"/>
    </contour>
    <contour>
      <point x="296.25" y="59.0" type="curve" smooth="yes"/>
      <point x="186.25" y="59.0"/>
      <point x="157.0" y="158.75"/>
      <point x="157.0" y="276.75" type="curve" smooth="yes"/>
      <point x="157.0" y="292.25"/>
      <point x="157.25" y="303.0"/>
      <point x="158.75" y="320.75" type="curve"/>
      <point x="193.5" y="337.25"/>
      <point x="236.0" y="350.75"/>
      <point x="289.0" y="350.75" type="curve"/>
      <point x="377.25" y="350.75"/>
      <point x="421.75" y="303.75"/>
      <point x="421.75" y="207.25" type="curve" smooth="yes"/>
      <point x="421.75" y="132.25"/>
      <point x="387.0" y="59.0"/>
    </contour>
  </outline>
</glyph>
<glyph name="seven" format="2">
  <advance width="565.0"/>
  <unicode hex="0037"/>
  <outline>
    <contour>
      <point x="166.75" y="0.0" type="curve"/>
      <point x="256.25" y="0.0" type="line"/>
      <point x="272.25" y="249.25"/>
      <point x="410.0" y="518.5"/>
      <point x="499.5" y="622.75" type="curve"/>
      <point x="499.5" y="693.25" type="line"/>
      <point x="62.5" y="693.25" type="line"/>
      <point x="62.5" y="616.5" type="line"/>
      <point x="403.25" y="616.5" type="line"/>
      <point x="301.75" y="496.5"/>
      <point x="182.0" y="215.0"/>
    </contour>
  </outline>
</glyph>
<glyph name="eight" format="2">
  <advance width="565.34"/>
  <unicode hex="0038"/>
  <outline>
    <contour>
      <point x="282.335" y="-14.665" type="curve" smooth="yes"/>
      <point x="424.39" y="-14.665"/>
      <point x="508.72" y="68.015"/>
      <point x="508.72" y="184.355" type="curve" smooth="yes"/>
      <point x="508.72" y="253.03"/>
      <point x="476.725" y="312.01"/>
      <point x="388.755" y="355.025" type="curve"/>
      <point x="440.42" y="386.36"/>
      <point x="492.385" y="446.025"/>
      <point x="492.385" y="525.985" type="curve" smooth="yes"/>
      <point x="492.385" y="614.98"/>
      <point x="430.045" y="708.335"/>
      <point x="282.67" y="708.335" type="curve" smooth="yes"/>
      <point x="157.635" y="708.335"/>
      <point x="71.955" y="627.635"/>
      <point x="71.955" y="514.98" type="curve" smooth="yes"/>
      <point x="71.955" y="448.635"/>
      <point x="96.96" y="398.665"/>
      <point x="169.92" y="356.32" type="curve"/>
      <point x="110.605" y="319.98"/>
      <point x="56.955" y="264.99"/>
      <point x="56.955" y="176.345" type="curve" smooth="yes"/>
      <point x="56.955" y="77.73"/>
      <point x="133.575" y="-14.665"/>
    </contour>
    <contour>
      <point x="282.67" y="62.775000000000006" type="curve" smooth="yes"/>
      <point x="192.715" y="62.775000000000006"/>
      <point x="151.415" y="118.09"/>
      <point x="151.415" y="178.355" type="curve" smooth="yes"/>
      <point x="151.415" y="246.315"/>
      <point x="187.065" y="294.285"/>
      <point x="244.68" y="324.945" type="curve"/>
      <point x="330.32" y="298.285"/>
      <point x="413.925" y="275.6"/>
      <point x="413.925" y="178.355" type="curve" smooth="yes"/>
      <point x="413.925" y="115.41"/>
      <point x="371.62" y="62.775000000000006"/>
    </contour>
    <contour>
      <point x="310.315" y="382.06" type="curve"/>
      <point x="193.085" y="415.71"/>
      <point x="165.75" y="457.7"/>
      <point x="165.75" y="521.98" type="curve" smooth="yes"/>
      <point x="165.75" y="577.92"/>
      <point x="203.72" y="630.895"/>
      <point x="282.67" y="630.895" type="curve" smooth="yes"/>
      <point x="366.28" y="630.895"/>
      <point x="398.925" y="575.255"/>
      <point x="398.925" y="524.645" type="curve" smooth="yes"/>
      <point x="398.925" y="457.02"/>
      <point x="365.285" y="413.715"/>
    </contour>
  </outline>
</glyph>
<glyph name="nine" format="2">
  <advance width="564.92"/>
  <unicode hex="0039"/>
  <outline>
    <contour>
      <point x="95.47" y="-2.0" type="line"/>
      <point x="361.2" y="-1.31"/>
      <point x="498.05" y="141.0"/>
      <point x="498.05" y="414.32" type="curve" smooth="yes"/>
      <point x="498.05" y="600.23"/>
      <point x="418.52" y="708.46"/>
      <point x="267.31" y="708.46" type="curve" smooth="yes"/>
      <point x="120.33" y="708.46"/>
      <point x="54.95" y="588.01"/>
      <point x="54.95" y="485.09" type="curve" smooth="yes"/>
      <point x="54.95" y="370.72"/>
      <point x="113.86" y="273.71"/>
      <point x="268.15" y="273.71" type="curve" smooth="yes"/>
      <point x="317.56" y="273.71"/>
      <point x="367.11" y="288.18"/>
      <point x="401.27" y="305.03" type="curve"/>
      <point x="375.05" y="134.9"/>
      <point x="263.57" y="68.78999999999999"/>
      <point x="92.32" y="68.1" type="curve"/>
    </contour>
    <contour>
      <point x="276.68" y="344.28" type="curve" smooth="yes"/>
      <point x="188.21" y="344.28"/>
      <point x="142.89" y="390.6"/>
      <point x="142.89" y="488.01" type="curve" smooth="yes"/>
      <point x="142.89" y="562.96"/>
      <point x="177.82" y="636.05"/>
      <point x="269.0" y="636.05" type="curve" smooth="yes"/>
      <point x="380.26" y="636.05"/>
      <point x="409.65" y="535.95"/>
      <point x="409.65" y="417.62" type="curve" smooth="yes"/>
      <point x="409.65" y="401.69"/>
      <point x="408.88" y="389.76"/>
      <point x="407.88" y="375.14" type="curve"/>
      <point x="373.4" y="357.98"/>
      <point x="330.78" y="344.28"/>
    </contour>
  </outline>
</glyph>
<glyph name="less" format="2">
  <advance width="564.92"/>
  <unicode hex="003C"/>
  <outline>
    <contour>
      <point x="486.16" y="70.63" type="line"/>
      <point x="510.53" y="140.81" type="line"/>
      <point x="148.02" y="290.53" type="line"/>
      <point x="510.53" y="440.25" type="line"/>
      <point x="486.16" y="510.43" type="line"/>
      <point x="53.85" y="327.12" type="line"/>
      <point x="53.85" y="253.94" type="line"/>
    </contour>
  </outline>
</glyph>
<glyph name="equal" format="2">
  <advance width="565.0"/>
  <unicode hex="003D"/>
  <outline>
    <contour>
      <point x="54.25" y="360.75" type="line"/>
      <point x="510.75" y="360.75" type="line"/>
      <point x="510.75" y="434.0" type="line"/>
      <point x="54.25" y="434.0" type="line"/>
    </contour>
    <contour>
      <point x="54.25" y="148.5" type="line"/>
      <point x="510.75" y="148.5" type="line"/>
      <point x="510.75" y="221.75" type="line"/>
      <point x="54.25" y="221.75" type="line"/>
    </contour>
  </outline>
</glyph>
<glyph name="greater" format="2">
  <advance width="564.92"/>
  <unicode hex="003E"/>
  <outline>
    <contour>
      <point x="77.99" y="70.63" type="line"/>
      <point x="510.3" y="253.94" type="line"/>
      <point x="510.3" y="327.12" type="line"/>
      <point x="77.99" y="510.43" type="line"/>
      <point x="53.62" y="440.25" type="line"/>
      <point x="416.13" y="290.53" type="line"/>
      <point x="53.62" y="140.81" type="line"/>
    </contour>
  </outline>
</glyph>
<glyph name="question" format="2">
  <advance width="398.75"/>
  <unicode hex="003F"/>
  <outline>
    <contour>
      <point x="126.25" y="215.0" type="curve"/>
      <point x="198.25" y="215.0" type="line"/>
      <point x="197.25" y="222.25"/>
      <point x="197.25" y="229.25"/>
      <point x="197.25" y="241.75" type="curve"/>
      <point x="197.25" y="368.5"/>
      <point x="371.5" y="410.25"/>
      <point x="371.5" y="551.75" type="curve" smooth="yes"/>
      <point x="371.5" y="623.0"/>
      <point x="328.5" y="708.25"/>
      <point x="180.0" y="708.25" type="curve" smooth="yes"/>
      <point x="115.0" y="708.25"/>
      <point x="54.0" y="690.0"/>
      <point x="20.0" y="669.75" type="curve"/>
      <point x="44.75" y="601.0" type="line"/>
      <point x="85.5" y="622.75"/>
      <point x="125.25" y="633.0"/>
      <point x="171.0" y="633.0" type="curve"/>
      <point x="231.75" y="633.0"/>
      <point x="280.0" y="612.25"/>
      <point x="280.0" y="547.25" type="curve" smooth="yes"/>
      <point x="280.0" y="435.5"/>
      <point x="122.5" y="395.5"/>
      <point x="122.5" y="259.75" type="curve" smooth="yes"/>
      <point x="122.5" y="244.75"/>
      <point x="123.25" y="228.0"/>
    </contour>
    <contour>
      <point x="166.5" y="-12.25" type="curve" smooth="yes"/>
      <point x="204.0" y="-12.25"/>
      <point x="231.0" y="14.75"/>
      <point x="231.0" y="52.0" type="curve" smooth="yes"/>
      <point x="231.0" y="89.25"/>
      <point x="204.0" y="116.25"/>
      <point x="166.5" y="116.25" type="curve" smooth="yes"/>
      <point x="129.0" y="116.25"/>
      <point x="102.0" y="89.25"/>
      <point x="102.0" y="52.0" type="curve" smooth="yes"/>
      <point x="102.0" y="14.75"/>
      <point x="129.0" y="-12.25"/>
    </contour>
  </outline>
</glyph>
<glyph name="at" format="2">
  <advance width="948.5"/>
  <unicode hex="0040"/>
  <outline>
    <contour>
      <point x="499.0" y="-153.5" type="curve" smooth="yes"/>
      <point x="563.75" y="-153.5"/>
      <point x="627.5" y="-142.25"/>
      <point x="652.25" y="-134.25" type="curve"/>
      <point x="643.25" y="-69.5" type="line"/>
      <point x="622.75" y="-75.25"/>
      <point x="573.5" y="-85.5"/>
      <point x="499.0" y="-85.5" type="curve" smooth="yes"/>
      <point x="294.5" y="-85.5"/>
      <point x="144.5" y="37.75"/>
      <point x="144.5" y="278.75" type="curve" smooth="yes"/>
      <point x="144.5" y="507.5"/>
      <point x="283.25" y="641.0"/>
      <point x="483.25" y="641.0" type="curve" smooth="yes"/>
      <point x="684.0" y="641.0"/>
      <point x="804.25" y="499.25"/>
      <point x="804.25" y="327.5" type="curve" smooth="yes"/>
      <point x="804.25" y="226.0"/>
      <point x="778.0" y="117.25"/>
      <point x="699.5" y="117.25" type="curve" smooth="yes"/>
      <point x="671.75" y="117.25"/>
      <point x="653.5" y="135.0"/>
      <point x="653.5" y="181.75" type="curve"/>
      <point x="653.5" y="480.0" type="line"/>
      <point x="621.75" y="492.75"/>
      <point x="565.25" y="507.5"/>
      <point x="498.25" y="507.5" type="curve" smooth="yes"/>
      <point x="354.5" y="507.5"/>
      <point x="273.25" y="406.5"/>
      <point x="273.25" y="278.25" type="curve" smooth="yes"/>
      <point x="273.25" y="124.25"/>
      <point x="363.75" y="50.0"/>
      <point x="488.5" y="50.0" type="curve" smooth="yes"/>
      <point x="536.5" y="50.0"/>
      <point x="578.75" y="67.5"/>
      <point x="604.0" y="84.75" type="curve"/>
      <point x="619.25" y="66.0"/>
      <point x="649.25" y="50.5"/>
      <point x="690.5" y="50.5" type="curve" smooth="yes"/>
      <point x="800.25" y="50.5"/>
      <point x="882.0" y="144.75"/>
      <point x="882.0" y="324.0" type="curve" smooth="yes"/>
      <point x="882.0" y="562.25"/>
      <point x="704.25" y="709.0"/>
      <point x="483.25" y="709.0" type="curve" smooth="yes"/>
      <point x="259.5" y="709.0"/>
      <point x="66.5" y="567.25"/>
      <point x="66.5" y="278.75" type="curve" smooth="yes"/>
      <point x="66.5" y="-20.0"/>
      <point x="260.25" y="-153.5"/>
    </contour>
    <contour>
      <point x="490.0" y="117.75" type="curve" smooth="yes"/>
      <point x="410.5" y="117.75"/>
      <point x="357.25" y="171.5"/>
      <point x="357.25" y="279.0" type="curve" smooth="yes"/>
      <point x="357.25" y="372.25"/>
      <point x="406.5" y="440.25"/>
      <point x="505.0" y="440.25" type="curve" smooth="yes"/>
      <point x="540.25" y="440.25"/>
      <point x="561.0" y="435.5"/>
      <point x="572.5" y="432.5" type="curve"/>
      <point x="572.5" y="191.0" type="line"/>
      <point x="572.5" y="175.75"/>
      <point x="574.25" y="151.25"/>
      <point x="578.75" y="138.75" type="curve"/>
      <point x="552.75" y="124.0"/>
      <point x="530.5" y="117.75"/>
    </contour>
  </outline>
</glyph>
<glyph name="A" format="2">
  <advance width="667.8"/>
  <unicode hex="0041"/>
  <anchor x="334.4" y="0.0" name="bottom"/>
  <anchor x="601.12" y="10.0" name="ogonek"/>
  <anchor x="334.4" y="693.0" name="top"/>
  <outline>
    <contour>
      <point x="10.0" y="0.0" type="curve"/>
      <point x="111.485" y="0.0" type="line"/>
      <point x="132.47" y="61.3"/>
      <point x="154.13" y="119.615"/>
      <point x="174.455" y="176.6" type="curve"/>
      <point x="489.01" y="176.6" type="line"/>
      <point x="508.67" y="119.615"/>
      <point x="530.33" y="61.3"/>
      <point x="551.98" y="0.0" type="curve"/>
      <point x="657.8" y="0.0" type="line"/>
      <point x="551.14" y="292.015"/>
      <point x="474.13" y="492.685"/>
      <point x="378.475" y="693.0" type="curve"/>
      <point x="288.66" y="693.0" type="line"/>
      <point x="192.335" y="493.02"/>
      <point x="115.995" y="292.015"/>
    </contour>
    <contour>
      <point x="200.48" y="256.71" type="line"/>
      <point x="248.135" y="387.35"/>
      <point x="292.795" y="499.325"/>
      <point x="331.065" y="588.535" type="curve"/>
      <point x="370.34" y="499.325"/>
      <point x="414.33" y="387.35"/>
      <point x="462.65" y="256.71" type="curve"/>
    </contour>
  </outline>
</glyph>
<glyph name="B" format="2">
  <advance width="639.66"/>
  <unicode hex="0042"/>
  <anchor x="319.83" y="0.0" name="bottom"/>
  <anchor x="319.83" y="347.0" name="center"/>
  <anchor x="319.83" y="693.0" name="top"/>
  <outline>
    <contour>
      <point x="268.65" y="-6.69" type="curve" smooth="yes"/>
      <point x="483.81" y="-6.69"/>
      <point x="586.96" y="64.23"/>
      <point x="586.96" y="198.45" type="curve" smooth="yes"/>
      <point x="586.96" y="298.94"/>
      <point x="534.78" y="348.16"/>
      <point x="453.71" y="370.38" type="curve"/>
      <point x="514.41" y="393.14"/>
      <point x="552.96" y="446.38"/>
      <point x="552.96" y="516.01" type="curve" smooth="yes"/>
      <point x="552.96" y="654.77"/>
      <point x="425.42" y="699.46"/>
      <point x="269.44" y="699.46" type="curve" smooth="yes"/>
      <point x="215.99" y="699.46"/>
      <point x="139.38" y="693.46"/>
      <point x="87.7" y="680.69" type="curve"/>
      <point x="87.7" y="12.54" type="line"/>
      <point x="136.36" y="0.15999999999999992"/>
      <point x="215.75" y="-6.69"/>
    </contour>
    <contour>
      <point x="275.27" y="67.41" type="curve" smooth="yes"/>
      <point x="236.34" y="67.41"/>
      <point x="195.71" y="70.72"/>
      <point x="175.02" y="73.72" type="curve"/>
      <point x="175.02" y="325.1" type="line"/>
      <point x="308.44" y="325.1" type="line" smooth="yes"/>
      <point x="424.39" y="325.1"/>
      <point x="495.18" y="297.02"/>
      <point x="495.18" y="199.91" type="curve" smooth="yes"/>
      <point x="495.18" y="93.26"/>
      <point x="392.14" y="67.41"/>
    </contour>
    <contour>
      <point x="175.02" y="397.13" type="line"/>
      <point x="175.02" y="619.74" type="line"/>
      <point x="197.48" y="623.51"/>
      <point x="231.25" y="625.82"/>
      <point x="275.19" y="625.82" type="curve" smooth="yes"/>
      <point x="388.22" y="625.82"/>
      <point x="463.56" y="595.81"/>
      <point x="463.56" y="512.86" type="curve" smooth="yes"/>
      <point x="463.56" y="422.44"/>
      <point x="393.22" y="397.13"/>
      <point x="294.14" y="397.13" type="curve" smooth="yes"/>
    </contour>
  </outline>
</glyph>
<glyph name="C" format="2">
  <advance width="622.065"/>
  <unicode hex="0043"/>
  <anchor x="311.365" y="0.0" name="bottom"/>
  <anchor x="311.365" y="693.0" name="top"/>
  <outline>
    <contour>
      <point x="384.03" y="-14.665" type="curve" smooth="yes"/>
      <point x="493.02" y="-14.665"/>
      <point x="569.37" y="12.995"/>
      <point x="596.745" y="30.02" type="curve"/>
      <point x="569.705" y="110.465" type="line"/>
      <point x="537.7" y="93.8"/>
      <point x="482.05" y="72.13"/>
      <point x="392.71" y="72.13" type="curve" smooth="yes"/>
      <point x="237.735" y="72.13"/>
      <point x="160.13" y="182.765"/>
      <point x="160.13" y="347.34" type="curve" smooth="yes"/>
      <point x="160.13" y="519.31"/>
      <point x="250.47" y="621.54"/>
      <point x="397.345" y="621.54" type="curve" smooth="yes"/>
      <point x="471.34" y="621.54"/>
      <point x="524.015" y="599.55"/>
      <point x="560.365" y="578.545" type="curve"/>
      <point x="590.07" y="659.99" type="line"/>
      <point x="566.74" y="674.32"/>
      <point x="498.06" y="708.335"/>
      <point x="389.37" y="708.335" type="curve" smooth="yes"/>
      <point x="209.645" y="708.335"/>
      <point x="57.98" y="578.995"/>
      <point x="57.98" y="347.0" type="curve" smooth="yes"/>
      <point x="57.98" y="114.67"/>
      <point x="190.285" y="-14.665"/>
    </contour>
  </outline>
</glyph>
<glyph name="D" format="2">
  <advance width="713.725"/>
  <unicode hex="0044"/>
  <anchor x="357.03" y="0.0" name="bottom"/>
  <anchor x="357.03" y="347.0" name="center"/>
  <anchor x="357.03" y="693.0" name="top"/>
  <outline>
    <contour>
      <point x="268.715" y="-7.005" type="curve" smooth="yes"/>
      <point x="499.75" y="-7.005"/>
      <point x="655.745" y="109.66"/>
      <point x="655.745" y="347.0" type="curve" smooth="yes"/>
      <point x="655.745" y="587.36"/>
      <point x="498.745" y="699.67"/>
      <point x="270.39" y="699.67" type="curve" smooth="yes"/>
      <point x="214.39" y="699.67"/>
      <point x="141.36" y="694.34"/>
      <point x="86.65" y="681.34" type="curve"/>
      <point x="86.65" y="10.995" type="line"/>
      <point x="141.36" y="-2.0100000000000002"/>
      <point x="212.715" y="-7.005"/>
    </contour>
    <contour>
      <point x="276.715" y="77.12" type="curve" smooth="yes"/>
      <point x="219.79" y="77.12"/>
      <point x="194.475" y="81.445"/>
      <point x="184.13" y="82.445" type="curve"/>
      <point x="184.13" y="610.22" type="line"/>
      <point x="196.15" y="611.89"/>
      <point x="223.475" y="615.88"/>
      <point x="278.39" y="615.88" type="curve" smooth="yes"/>
      <point x="462.985" y="615.88"/>
      <point x="553.93" y="515.94"/>
      <point x="553.93" y="347.0" type="curve" smooth="yes"/>
      <point x="553.93" y="179.405"/>
      <point x="461.31" y="77.12"/>
    </contour>
  </outline>
</glyph>
<glyph name="E" format="2">
  <advance width="567.75"/>
  <unicode hex="0045"/>
  <anchor x="284.25" y="0.0" name="bottom"/>
  <anchor x="511.25" y="10.0" name="ogonek"/>
  <anchor x="284.25" y="693.0" name="top"/>
  <anchor x="20.0" y="693.0" name="topleft"/>
  <outline>
    <contour>
      <point x="87.5" y="0.0" type="line"/>
      <point x="529.75" y="0.0" type="line"/>
      <point x="529.75" y="77.0" type="line"/>
      <point x="177.5" y="77.0" type="line"/>
      <point x="177.5" y="325.75" type="line"/>
      <point x="468.75" y="325.75" type="line"/>
      <point x="468.75" y="401.25" type="line"/>
      <point x="177.5" y="401.25" type="line"/>
      <point x="177.5" y="616.0" type="line"/>
      <point x="504.5" y="616.0" type="line"/>
      <point x="504.5" y="693.0" type="line"/>
      <point x="87.5" y="693.0" type="line"/>
    </contour>
  </outline>
</glyph>
<glyph name="F" format="2">
  <advance width="532.42"/>
  <unicode hex="0046"/>
  <anchor x="266.21" y="0.0" name="bottom"/>
  <anchor x="266.21" y="693.0" name="top"/>
  <outline>
    <contour>
      <point x="87.7" y="0.0" type="line"/>
      <point x="175.94" y="0.0" type="line"/>
      <point x="175.94" y="320.65" type="line"/>
      <point x="462.26" y="320.65" type="line"/>
      <point x="462.26" y="396.21" type="line"/>
      <point x="175.94" y="396.21" type="line"/>
      <point x="175.94" y="617.44" type="line"/>
      <point x="498.57" y="617.44" type="line"/>
      <point x="498.57" y="693.0" type="line"/>
      <point x="87.7" y="693.0" type="line"/>
    </contour>
  </outline>
</glyph>
<glyph name="G" format="2">
  <advance width="669.0"/>
  <unicode hex="0047"/>
  <anchor x="334.5" y="0.0" name="bottom"/>
  <anchor x="334.5" y="693.0" name="top"/>
  <outline>
    <contour>
      <point x="382.75" y="-13.75" type="curve" smooth="yes"/>
      <point x="494.0" y="-13.75"/>
      <point x="573.75" y="8.0"/>
      <point x="601.75" y="20.0" type="curve"/>
      <point x="601.75" y="337.5" type="line"/>
      <point x="511.75" y="337.5" type="line"/>
      <point x="511.75" y="77.75" type="line"/>
      <point x="495.0" y="72.25"/>
      <point x="453.25" y="64.5"/>
      <point x="393.5" y="64.5" type="curve" smooth="yes"/>
      <point x="234.75" y="64.5"/>
      <point x="153.5" y="175.25"/>
      <point x="153.5" y="347.0" type="curve" smooth="yes"/>
      <point x="153.5" y="529.75"/>
      <point x="252.75" y="628.5"/>
      <point x="393.25" y="628.5" type="curve" smooth="yes"/>
      <point x="465.0" y="628.5"/>
      <point x="530.75" y="609.5"/>
      <point x="569.25" y="584.25" type="curve"/>
      <point x="597.75" y="659.0" type="line"/>
      <point x="570.0" y="677.25"/>
      <point x="499.75" y="708.25"/>
      <point x="390.25" y="708.25" type="curve" smooth="yes"/>
      <point x="208.5" y="708.25"/>
      <point x="59.0" y="578.75"/>
      <point x="59.0" y="347.0" type="curve" smooth="yes"/>
      <point x="59.0" y="115.75"/>
      <point x="194.25" y="-13.75"/>
    </contour>
  </outline>
</glyph>
<glyph name="H" format="2">
  <advance width="706.07"/>
  <unicode hex="0048"/>
  <anchor x="353.035" y="0.0" name="bottom"/>
  <anchor x="353.035" y="347.0" name="center"/>
  <anchor x="353.035" y="693.0" name="top"/>
  <anchor x="20.0" y="693.0" name="topleft"/>
  <outline>
    <contour>
      <point x="86.65" y="0.0" type="line"/>
      <point x="184.13" y="0.0" type="line"/>
      <point x="184.13" y="319.935" type="line"/>
      <point x="521.94" y="319.935" type="line"/>
      <point x="521.94" y="0.0" type="line"/>
      <point x="619.42" y="0.0" type="line"/>
      <point x="619.42" y="693.0" type="line"/>
      <point x="521.94" y="693.0" type="line"/>
      <point x="521.94" y="404.06" type="line"/>
      <point x="184.13" y="404.06" type="line"/>
      <point x="184.13" y="693.0" type="line"/>
      <point x="86.65" y="693.0" type="line"/>
    </contour>
  </outline>
</glyph>
<glyph name="I" format="2">
  <advance width="263.64"/>
  <unicode hex="0049"/>
  <anchor x="131.82" y="0.0" name="bottom"/>
  <anchor x="237.03" y="10.0" name="ogonek"/>
  <anchor x="131.82" y="693.0" name="top"/>
  <anchor x="20.0" y="693.0" name="topleft"/>
  <outline>
    <contour>
      <point x="87.7" y="0.0" type="line"/>
      <point x="175.94" y="0.0" type="line"/>
      <point x="175.94" y="693.0" type="line"/>
      <point x="87.7" y="693.0" type="line"/>
    </contour>
  </outline>
</glyph>
<glyph name="J" format="2">
  <advance width="501.07"/>
  <unicode hex="004A"/>
  <anchor x="251.035" y="0.0" name="bottom"/>
  <anchor x="251.035" y="693.0" name="top"/>
  <outline>
    <contour>
      <point x="195.365" y="-14.665" type="curve" smooth="yes"/>
      <point x="369.09" y="-14.665"/>
      <point x="419.765" y="89.02"/>
      <point x="419.765" y="223.025" type="curve" smooth="yes"/>
      <point x="419.765" y="693.0" type="line"/>
      <point x="322.285" y="693.0" type="line"/>
      <point x="322.285" y="230.36" type="line" smooth="yes"/>
      <point x="322.285" y="114.43"/>
      <point x="279.98" y="70.455"/>
      <point x="186.69" y="70.455" type="curve" smooth="yes"/>
      <point x="122.72" y="70.455"/>
      <point x="77.06" y="97.77"/>
      <point x="47.37" y="120.105" type="curve"/>
      <point x="8.67" y="42.995" type="line"/>
      <point x="37.04" y="19.315"/>
      <point x="101.04" y="-14.665"/>
    </contour>
  </outline>
</glyph>
<glyph name="K" format="2">
  <advance width="618.55"/>
  <unicode hex="004B"/>
  <anchor x="309.66" y="0.0" name="bottom"/>
  <anchor x="309.66" y="693.0" name="top"/>
  <outline>
    <contour>
      <point x="87.7" y="0.0" type="line"/>
      <point x="175.94" y="0.0" type="line"/>
      <point x="175.94" y="331.5" type="line"/>
      <point x="290.42" y="263.66"/>
      <point x="425.3" y="127.73"/>
      <point x="507.48" y="0.0" type="curve"/>
      <point x="608.55" y="0.0" type="line"/>
      <point x="542.04" y="120.66"/>
      <point x="381.29" y="292.78"/>
      <point x="265.67" y="368.61" type="curve"/>
      <point x="364.51" y="460.52"/>
      <point x="506.79" y="604.1"/>
      <point x="587.16" y="693.0" type="curve"/>
      <point x="481.47" y="693.0" type="line"/>
      <point x="415.09" y="617.85"/>
      <point x="272.34" y="474.42"/>
      <point x="175.94" y="384.03" type="curve"/>
      <point x="175.94" y="693.0" type="line"/>
      <point x="87.7" y="693.0" type="line"/>
    </contour>
  </outline>
</glyph>
<glyph name="L" format="2">
  <advance width="516.03"/>
  <unicode hex="004C"/>
  <anchor x="258.13" y="0.0" name="bottom"/>
  <anchor x="258.13" y="347.0" name="center"/>
  <anchor x="258.13" y="693.0" name="top"/>
  <anchor x="496.03" y="693.0" name="topright"/>
  <outline>
    <contour>
      <point x="87.7" y="0.0" type="line"/>
      <point x="497.57" y="0.0" type="line"/>
      <point x="497.57" y="76.25" type="line"/>
      <point x="175.94" y="76.25" type="line"/>
      <point x="175.94" y="693.0" type="line"/>
      <point x="87.7" y="693.0" type="line"/>
    </contour>
  </outline>
</glyph>
<glyph name="M" format="2">
  <advance width="875.72"/>
  <unicode hex="004D"/>
  <anchor x="438.36" y="0.0" name="bottom"/>
  <anchor x="438.36" y="693.0" name="top"/>
  <outline>
    <contour>
      <point x="68.645" y="0.0" type="curve"/>
      <point x="164.12" y="0.0" type="line"/>
      <point x="170.78" y="186.87"/>
      <point x="178.775" y="374.81"/>
      <point x="194.435" y="539.135" type="curve"/>
      <point x="231.79500000000002" y="464.375"/>
      <point x="358.995" y="191.295"/>
      <point x="398.655" y="95.98" type="curve"/>
      <point x="475.735" y="95.98" type="line"/>
      <point x="515.395" y="191.295"/>
      <point x="642.595" y="464.375"/>
      <point x="679.955" y="539.135" type="curve"/>
      <point x="695.615" y="374.81"/>
      <point x="703.61" y="186.87"/>
      <point x="710.27" y="0.0" type="curve"/>
      <point x="807.075" y="0.0" type="line"/>
      <point x="795.41" y="239.615"/>
      <point x="780.07" y="493.045"/>
      <point x="756.065" y="693.0" type="curve"/>
      <point x="670.59" y="693.0" type="line"/>
      <point x="601.645" y="576.075"/>
      <point x="503.02" y="356.49"/>
      <point x="440.03" y="212.835" type="curve"/>
      <point x="377.04" y="356.49"/>
      <point x="278.415" y="576.075"/>
      <point x="209.47" y="693.0" type="curve"/>
      <point x="119.655" y="693.0" type="line"/>
      <point x="95.65" y="493.045"/>
      <point x="80.31" y="239.615"/>
    </contour>
  </outline>
</glyph>
<glyph name="N" format="2">
  <advance width="724.745"/>
  <unicode hex="004E"/>
  <anchor x="362.705" y="0.0" name="bottom"/>
  <anchor x="362.705" y="693.0" name="top"/>
  <outline>
    <contour>
      <point x="86.65" y="0.0" type="line"/>
      <point x="182.79500000000002" y="0.0" type="line"/>
      <point x="182.79500000000002" y="540.45" type="line"/>
      <point x="300.46" y="403.45"/>
      <point x="475.285" y="145.7"/>
      <point x="556.305" y="0.0" type="curve"/>
      <point x="638.095" y="0.0" type="line"/>
      <point x="638.095" y="693.0" type="line"/>
      <point x="541.615" y="693.0" type="line"/>
      <point x="541.615" y="180.925" type="line"/>
      <point x="454.26" y="327.92"/>
      <point x="286.025" y="562.105"/>
      <point x="165.105" y="693.0" type="curve"/>
      <point x="86.65" y="693.0" type="line"/>
    </contour>
  </outline>
</glyph>
<glyph name="O" format="2">
  <advance width="777.68"/>
  <unicode hex="004F"/>
  <anchor x="388.84" y="0.0" name="bottom"/>
  <anchor x="388.84" y="347.0" name="center"/>
  <anchor x="700.22" y="10.0" name="ogonek"/>
  <anchor x="388.84" y="693.0" name="top"/>
  <anchor x="20.0" y="693.0" name="topleft"/>
  <anchor x="757.68" y="693.0" name="topright"/>
  <outline>
    <contour>
      <point x="388.84" y="-14.77" type="curve" smooth="yes"/>
      <point x="568.67" y="-14.77"/>
      <point x="718.44" y="109.23"/>
      <point x="718.44" y="347.0" type="curve"/>
      <point x="718.44" y="584.77"/>
      <point x="567.29" y="708.23"/>
      <point x="388.84" y="708.23" type="curve"/>
      <point x="211.77" y="708.23"/>
      <point x="59.24" y="584.77"/>
      <point x="59.24" y="347.0" type="curve" smooth="yes"/>
      <point x="59.24" y="109.23"/>
      <point x="210.39" y="-14.77"/>
    </contour>
    <contour>
      <point x="388.84" y="63.71" type="curve" smooth="yes"/>
      <point x="243.58" y="63.71"/>
      <point x="151.71" y="172.73"/>
      <point x="151.71" y="347.0" type="curve"/>
      <point x="151.71" y="520.81"/>
      <point x="243.58" y="629.75"/>
      <point x="388.84" y="629.75" type="curve" smooth="yes"/>
      <point x="534.1" y="629.75"/>
      <point x="625.97" y="521.5"/>
      <point x="625.97" y="347.0" type="curve"/>
      <point x="625.97" y="172.73"/>
      <point x="534.1" y="63.71"/>
    </contour>
  </outline>
</glyph>
<glyph name="P" format="2">
  <advance width="609.42"/>
  <unicode hex="0050"/>
  <anchor x="304.71" y="0.0" name="bottom"/>
  <anchor x="304.71" y="693.0" name="top"/>
  <outline>
    <contour>
      <point x="86.65" y="0.0" type="line"/>
      <point x="184.13" y="0.0" type="line"/>
      <point x="184.13" y="255.94" type="line"/>
      <point x="263.055" y="255.94" type="line" smooth="yes"/>
      <point x="458.42" y="255.94"/>
      <point x="573.755" y="317.625"/>
      <point x="573.755" y="478.64" type="curve" smooth="yes"/>
      <point x="573.755" y="624.355"/>
      <point x="471.725" y="699.67"/>
      <point x="272.705" y="699.67" type="curve" smooth="yes"/>
      <point x="216.37" y="699.67"/>
      <point x="141.35" y="694.005"/>
      <point x="86.65" y="681.005" type="curve"/>
    </contour>
    <contour>
      <point x="184.13" y="339.73" type="line"/>
      <point x="184.13" y="610.22" type="line"/>
      <point x="206.115" y="612.55"/>
      <point x="237.095" y="615.88"/>
      <point x="278.05" y="615.88" type="curve" smooth="yes"/>
      <point x="382.02" y="615.88"/>
      <point x="472.605" y="586.565"/>
      <point x="472.605" y="479.64" type="curve" smooth="yes"/>
      <point x="472.605" y="367.055"/>
      <point x="391.005" y="339.73"/>
      <point x="257.735" y="339.73" type="curve" smooth="yes"/>
    </contour>
  </outline>
</glyph>
<glyph name="Q" format="2">
  <advance width="778.0"/>
  <unicode hex="0051"/>
  <anchor x="389.0" y="0.0" name="bottom"/>
  <anchor x="389.0" y="693.0" name="top"/>
  <outline>
    <contour>
      <point x="651.0" y="-185.75" type="curve"/>
      <point x="669.5" y="-114.5" type="line"/>
      <point x="572.25" y="-102.75"/>
      <point x="469.0" y="-76.75"/>
      <point x="456.75" y="-8.0" type="curve"/>
      <point x="604.5" y="18.75"/>
      <point x="719.0" y="139.5"/>
      <point x="719.0" y="347.0" type="curve" smooth="yes"/>
      <point x="719.0" y="584.75"/>
      <point x="567.75" y="708.25"/>
      <point x="389.0" y="708.25" type="curve" smooth="yes"/>
      <point x="211.75" y="708.25"/>
      <point x="59.0" y="584.75"/>
      <point x="59.0" y="347.0" type="curve" smooth="yes"/>
      <point x="59.0" y="118.75"/>
      <point x="197.5" y="-4.0"/>
      <point x="366.25" y="-13.75" type="curve"/>
      <point x="391.5" y="-131.75"/>
      <point x="523.25" y="-170.25"/>
    </contour>
    <contour>
      <point x="389.0" y="65.25" type="curve" smooth="yes"/>
      <point x="244.5" y="65.25"/>
      <point x="153.25" y="173.75"/>
      <point x="153.25" y="347.0" type="curve" smooth="yes"/>
      <point x="153.25" y="519.75"/>
      <point x="244.5" y="628.25"/>
      <point x="389.0" y="628.25" type="curve" smooth="yes"/>
      <point x="533.5" y="628.25"/>
      <point x="624.75" y="520.5"/>
      <point x="624.75" y="347.0" type="curve" smooth="yes"/>
      <point x="624.75" y="173.75"/>
      <point x="533.5" y="65.25"/>
    </contour>
  </outline>
</glyph>
<glyph name="R" format="2">
  <advance width="630.25"/>
  <unicode hex="0052"/>
  <anchor x="315.25" y="0.0" name="bottom"/>
  <anchor x="315.25" y="693.0" name="top"/>
  <outline>
    <contour>
      <point x="87.5" y="0.0" type="line"/>
      <point x="177.5" y="0.0" type="line"/>
      <point x="177.5" y="273.25" type="line"/>
      <point x="280.75" y="273.25" type="line" smooth="yes"/>
      <point x="297.25" y="273.25"/>
      <point x="313.0" y="274.0"/>
      <point x="328.75" y="275.5" type="curve"/>
      <point x="378.75" y="212.5"/>
      <point x="454.75" y="102.25"/>
      <point x="508.75" y="0.0" type="curve"/>
      <point x="607.25" y="0.0" type="line"/>
      <point x="558.5" y="105.0"/>
      <point x="468.25" y="236.25"/>
      <point x="421.0" y="293.5" type="curve"/>
      <point x="508.75" y="321.75"/>
      <point x="565.25" y="380.5"/>
      <point x="565.25" y="482.0" type="curve" smooth="yes"/>
      <point x="565.25" y="626.0"/>
      <point x="462.5" y="699.5"/>
      <point x="268.75" y="699.5" type="curve" smooth="yes"/>
      <point x="213.25" y="699.5"/>
      <point x="140.5" y="693.75"/>
      <point x="87.5" y="680.75" type="curve"/>
    </contour>
    <contour>
      <point x="177.5" y="347.75" type="line"/>
      <point x="177.5" y="616.0" type="line"/>
      <point x="200.25" y="618.5"/>
      <point x="233.75" y="622.0"/>
      <point x="277.0" y="622.0" type="curve" smooth="yes"/>
      <point x="381.5" y="622.0"/>
      <point x="471.75" y="593.0"/>
      <point x="471.75" y="483.0" type="curve" smooth="yes"/>
      <point x="471.75" y="366.25"/>
      <point x="382.75" y="347.75"/>
      <point x="259.0" y="347.75" type="curve" smooth="yes"/>
    </contour>
  </outline>
</glyph>
<glyph name="S" format="2">
  <advance width="531.95"/>
  <unicode hex="0053"/>
  <anchor x="266.36" y="0.0" name="bottom"/>
  <anchor x="266.36" y="693.0" name="top"/>
  <outline>
    <contour>
      <point x="245.13" y="-14.77" type="curve" smooth="yes"/>
      <point x="401.95" y="-14.77"/>
      <point x="495.03" y="50.99"/>
      <point x="495.03" y="176.91" type="curve" smooth="yes"/>
      <point x="495.03" y="306.29"/>
      <point x="409.09" y="346.44"/>
      <point x="292.04" y="392.51" type="curve"/>
      <point x="206.33" y="426.52"/>
      <point x="142.01" y="450.91"/>
      <point x="142.01" y="527.63" type="curve" smooth="yes"/>
      <point x="142.01" y="601.43"/>
      <point x="198.19" y="632.21"/>
      <point x="282.43" y="632.21" type="curve" smooth="yes"/>
      <point x="346.35" y="632.21"/>
      <point x="401.9" y="614.98"/>
      <point x="440.13" y="589.59" type="curve"/>
      <point x="468.96" y="661.77" type="line"/>
      <point x="431.89" y="685.0"/>
      <point x="361.58" y="708.23"/>
      <point x="282.44" y="708.23" type="curve" smooth="yes"/>
      <point x="139.53" y="708.23"/>
      <point x="52.08" y="641.32"/>
      <point x="52.08" y="521.02" type="curve" smooth="yes"/>
      <point x="52.08" y="410.73"/>
      <point x="127.98" y="366.5"/>
      <point x="237.46" y="323.72" type="curve" smooth="yes"/>
      <point x="330.68" y="287.95"/>
      <point x="403.33" y="262.95"/>
      <point x="403.33" y="174.06" type="curve" smooth="yes"/>
      <point x="403.33" y="96.64"/>
      <point x="348.53" y="61.25"/>
      <point x="245.9" y="61.25" type="curve" smooth="yes"/>
      <point x="154.05" y="61.25"/>
      <point x="91.97" y="90.72"/>
      <point x="61.75" y="107.56" type="curve"/>
      <point x="34.69" y="33.61" type="line"/>
      <point x="62.99" y="17.23"/>
      <point x="135.22" y="-14.77"/>
    </contour>
  </outline>
</glyph>
<glyph name="T" format="2">
  <advance width="563.18"/>
  <unicode hex="0054"/>
  <anchor x="281.59" y="0.0" name="bottom"/>
  <anchor x="281.59" y="347.0" name="center"/>
  <anchor x="281.59" y="693.0" name="top"/>
  <outline>
    <contour>
      <point x="237.47" y="0.0" type="line"/>
      <point x="325.71" y="0.0" type="line"/>
      <point x="325.71" y="616.98" type="line"/>
      <point x="544.72" y="616.98" type="line"/>
      <point x="544.72" y="693.0" type="line"/>
      <point x="18.46" y="693.0" type="line"/>
      <point x="18.46" y="616.98" type="line"/>
      <point x="237.47" y="616.98" type="line"/>
    </contour>
  </outline>
</glyph>
<glyph name="U" format="2">
  <advance width="689.045"/>
  <unicode hex="0055"/>
  <anchor x="344.69" y="0.0" name="bottom"/>
  <anchor x="620.04" y="10.0" name="ogonek"/>
  <anchor x="344.69" y="693.0" name="top"/>
  <anchor x="669.045" y="693.0" name="topright"/>
  <outline>
    <contour>
      <point x="343.685" y="-14.665" type="curve" smooth="yes"/>
      <point x="532.705" y="-14.665"/>
      <point x="607.74" y="102.655"/>
      <point x="607.74" y="258.675" type="curve" smooth="yes"/>
      <point x="607.74" y="693.0" type="line"/>
      <point x="510.26" y="693.0" type="line"/>
      <point x="510.26" y="269.015" type="line" smooth="yes"/>
      <point x="510.26" y="130.415"/>
      <point x="443.63" y="71.125"/>
      <point x="344.355" y="71.125" type="curve" smooth="yes"/>
      <point x="245.415" y="71.125"/>
      <point x="178.785" y="130.08"/>
      <point x="178.785" y="269.015" type="curve" smooth="yes"/>
      <point x="178.785" y="693.0" type="line"/>
      <point x="81.305" y="693.0" type="line"/>
      <point x="81.305" y="258.675" type="line" smooth="yes"/>
      <point x="81.305" y="103.325"/>
      <point x="155.335" y="-14.665"/>
    </contour>
  </outline>
</glyph>
<glyph name="V" format="2">
  <advance width="656.83"/>
  <unicode hex="0056"/>
  <anchor x="328.415" y="0.0" name="bottom"/>
  <anchor x="328.415" y="693.0" name="top"/>
  <outline>
    <contour>
      <point x="282.675" y="0.0" type="curve"/>
      <point x="374.82" y="0.0" type="line"/>
      <point x="465.865" y="200.08"/>
      <point x="545.265" y="401.29"/>
      <point x="646.83" y="693.0" type="curve"/>
      <point x="543.34" y="693.0" type="line"/>
      <point x="472.385" y="482.13"/>
      <point x="403.03" y="283.725"/>
      <point x="330.75" y="114.84" type="curve"/>
      <point x="257.135" y="285.385"/>
      <point x="189.78" y="482.13"/>
      <point x="118.16" y="693.0" type="curve"/>
      <point x="10.0" y="693.0" type="line"/>
      <point x="111.56" y="401.29"/>
      <point x="191.63" y="199.745"/>
    </contour>
  </outline>
</glyph>
<glyph name="W" format="2">
  <advance width="930.045"/>
  <unicode hex="0057"/>
  <anchor x="465.355" y="0.0" name="bottom"/>
  <anchor x="465.355" y="693.0" name="top"/>
  <outline>
    <contour>
      <point x="199.665" y="0.0" type="curve"/>
      <point x="295.45" y="0.0" type="line"/>
      <point x="353.09" y="143.96"/>
      <point x="408.055" y="290.62"/>
      <point x="464.355" y="469.525" type="curve"/>
      <point x="520.655" y="290.62"/>
      <point x="574.295" y="143.96"/>
      <point x="633.265" y="0.0" type="curve"/>
      <point x="729.715" y="0.0" type="line"/>
      <point x="799.385" y="204.36"/>
      <point x="851.075" y="425.755"/>
      <point x="899.405" y="693.0" type="curve"/>
      <point x="800.58" y="693.0" type="line"/>
      <point x="763.94" y="483.8"/>
      <point x="719.96" y="270.185"/>
      <point x="677.645" y="120.885" type="curve"/>
      <point x="622.675" y="259.52"/>
      <point x="561.705" y="432.86"/>
      <point x="509.09" y="611.685" type="curve"/>
      <point x="425.3" y="611.685" type="line"/>
      <point x="373.025" y="433.53"/>
      <point x="312.73" y="262.19"/>
      <point x="258.745" y="120.885" type="curve"/>
      <point x="213.765" y="271.845"/>
      <point x="168.45" y="485.13"/>
      <point x="133.805" y="693.0" type="curve"/>
      <point x="30.64" y="693.0" type="line"/>
      <point x="77.64" y="425.755"/>
      <point x="128.0" y="204.36"/>
    </contour>
  </outline>
</glyph>
<glyph name="X" format="2">
  <advance width="624.75"/>
  <unicode hex="0058"/>
  <anchor x="312.5" y="0.0" name="bottom"/>
  <anchor x="312.5" y="693.0" name="top"/>
  <outline>
    <contour>
      <point x="22.75" y="0.0" type="curve"/>
      <point x="120.5" y="0.0" type="line"/>
      <point x="155.75" y="72.0"/>
      <point x="247.0" y="211.25"/>
      <point x="309.5" y="298.25" type="curve"/>
      <point x="377.75" y="202.5"/>
      <point x="458.5" y="78.5"/>
      <point x="497.5" y="0.0" type="curve"/>
      <point x="599.75" y="0.0" type="line"/>
      <point x="543.0" y="111.75"/>
      <point x="458.25" y="237.5"/>
      <point x="365.75" y="365.25" type="curve"/>
      <point x="588.0" y="693.0" type="line"/>
      <point x="486.5" y="693.0" type="line"/>
      <point x="313.25" y="429.75" type="line"/>
      <point x="139.25" y="693.0" type="line"/>
      <point x="33.5" y="693.0" type="line"/>
      <point x="256.5" y="364.25" type="line"/>
      <point x="168.75" y="241.0"/>
      <point x="83.25" y="117.75"/>
    </contour>
  </outline>
</glyph>
<glyph name="Y" format="2">
  <advance width="592.0"/>
  <unicode hex="0059"/>
  <anchor x="296.5" y="0.0" name="bottom"/>
  <anchor x="296.5" y="693.0" name="top"/>
  <anchor x="20.0" y="693.0" name="topleft"/>
  <outline>
    <contour>
      <point x="251.5" y="0.0" type="line"/>
      <point x="341.5" y="0.0" type="line"/>
      <point x="341.5" y="281.5" type="line"/>
      <point x="433.25" y="422.5"/>
      <point x="511.75" y="561.25"/>
      <point x="583.25" y="693.0" type="curve"/>
      <point x="484.75" y="693.0" type="line"/>
      <point x="431.25" y="582.0"/>
      <point x="365.25" y="464.0"/>
      <point x="298.75" y="358.5" type="curve"/>
      <point x="230.0" y="464.0"/>
      <point x="165.25" y="582.0"/>
      <point x="113.25" y="693.0" type="curve"/>
      <point x="8.75" y="693.0" type="line"/>
      <point x="78.75" y="560.5"/>
      <point x="158.25" y="422.75"/>
      <point x="251.5" y="279.5" type="curve"/>
    </contour>
  </outline>
</glyph>
<glyph name="Z" format="2">
  <advance width="572.5"/>
  <unicode hex="005A"/>
  <anchor x="286.25" y="0.0" name="bottom"/>
  <anchor x="286.25" y="347.0" name="center"/>
  <anchor x="286.25" y="693.0" name="top"/>
  <outline>
    <contour>
      <point x="37.25" y="0.0" type="line"/>
      <point x="535.0" y="0.0" type="line"/>
      <point x="535.0" y="77.0" type="line"/>
      <point x="140.75" y="77.0" type="line"/>
      <point x="242.0" y="258.75"/>
      <point x="431.5" y="514.25"/>
      <point x="524.75" y="619.5" type="curve"/>
      <point x="524.75" y="693.0" type="line"/>
      <point x="55.5" y="693.0" type="line"/>
      <point x="55.5" y="616.0" type="line"/>
      <point x="417.5" y="616.0" type="line"/>
      <point x="309.0" y="491.75"/>
      <point x="123.0" y="226.5"/>
      <point x="37.25" y="61.5" type="curve"/>
    </contour>
  </outline>
</glyph>
<glyph name="bracketleft" format="2">
  <advance width="325.25"/>
  <unicode hex="005B"/>
  <outline>
    <contour>
      <point x="97.5" y="-185.0" type="line"/>
      <point x="316.75" y="-185.0" type="line"/>
      <point x="316.75" y="-117.75" type="line"/>
      <point x="179.5" y="-117.75" type="line"/>
      <point x="179.5" y="715.75" type="line"/>
      <point x="316.75" y="715.75" type="line"/>
      <point x="316.75" y="783.0" type="line"/>
      <point x="97.5" y="783.0" type="line"/>
    </contour>
  </outline>
</glyph>
<glyph name="backslash" format="2">
  <advance width="378.5"/>
  <unicode hex="005C"/>
  <outline>
    <contour>
      <point x="314.25" y="-185.0" type="line"/>
      <point x="402.0" y="-185.0" type="line"/>
      <point x="62.25" y="783.0" type="line"/>
      <point x="-23.5" y="783.0" type="line"/>
    </contour>
  </outline>
</glyph>
<glyph name="bracketright" format="2">
  <advance width="330.435"/>
  <unicode hex="005D"/>
  <outline>
    <contour>
      <point x="8.67" y="-185.0" type="line"/>
      <point x="233.785" y="-185.0" type="line"/>
      <point x="233.785" y="783.0" type="line"/>
      <point x="8.67" y="783.0" type="line"/>
      <point x="8.67" y="709.885" type="line"/>
      <point x="144.985" y="709.885" type="line"/>
      <point x="144.985" y="-111.88499999999999" type="line"/>
      <point x="8.67" y="-111.88499999999999" type="line"/>
    </contour>
  </outline>
</glyph>
<glyph name="asciicircum" format="2">
  <advance width="565.0"/>
  <unicode hex="005E"/>
  <outline>
    <contour>
      <point x="119.0" y="319.75" type="line"/>
      <point x="282.5" y="612.0" type="line"/>
      <point x="446.0" y="319.75" type="line"/>
      <point x="514.0" y="354.5" type="line"/>
      <point x="321.25" y="694.0" type="line"/>
      <point x="243.75" y="694.0" type="line"/>
      <point x="51.0" y="354.5" type="line"/>
    </contour>
  </outline>
</glyph>
<glyph name="underscore" format="2">
  <advance width="492.5"/>
  <unicode hex="005F"/>
  <outline>
    <contour>
      <point x="-3.75" y="-185.0" type="line"/>
      <point x="496.25" y="-185.0" type="line"/>
      <point x="496.25" y="-112.0" type="line"/>
      <point x="-3.75" y="-112.0" type="line"/>
    </contour>
  </outline>
</glyph>
<glyph name="grave" format="2">
  <advance width="355.3"/>
  <unicode hex="0060"/>
  <outline>
    <contour>
      <point x="220.42" y="581.39" type="line"/>
      <point x="261.47" y="624.68" type="line"/>
      <point x="107.15" y="778.98" type="line"/>
      <point x="50.8" y="720.39" type="line"/>
    </contour>
  </outline>
</glyph>
<glyph name="a" format="2">
  <advance width="520.0"/>
  <unicode hex="0061"/>
  <anchor x="260.5" y="0.0" name="bottom"/>
  <anchor x="468.0" y="10.0" name="ogonek"/>
  <anchor x="260.5" y="519.25" name="top"/>
  <outline>
    <contour>
      <point x="243.75" y="-11.0" type="curve" smooth="yes"/>
      <point x="335.25" y="-11.0"/>
      <point x="413.5" y="5.25"/>
      <point x="443.75" y="12.75" type="curve"/>
      <point x="443.75" y="334.75" type="line" smooth="yes"/>
      <point x="443.75" y="450.25"/>
      <point x="393.75" y="531.75"/>
      <point x="247.0" y="531.75" type="curve" smooth="yes"/>
      <point x="180.25" y="531.75"/>
      <point x="125.75" y="520.0"/>
      <point x="99.75" y="509.0" type="curve"/>
      <point x="111.25" y="436.25" type="line"/>
      <point x="133.0" y="444.75"/>
      <point x="170.75" y="457.25"/>
      <point x="240.5" y="457.25" type="curve" smooth="yes"/>
      <point x="340.5" y="457.25"/>
      <point x="359.25" y="394.25"/>
      <point x="359.25" y="328.25" type="curve" smooth="yes"/>
      <point x="359.25" y="300.75" type="line"/>
      <point x="347.0" y="305.75"/>
      <point x="300.5" y="314.25"/>
      <point x="263.0" y="314.25" type="curve" smooth="yes"/>
      <point x="139.75" y="314.25"/>
      <point x="44.75" y="268.75"/>
      <point x="44.75" y="153.75" type="curve" smooth="yes"/>
      <point x="44.75" y="34.0"/>
      <point x="128.75" y="-11.0"/>
    </contour>
    <contour>
      <point x="254.5" y="61.25" type="curve" smooth="yes"/>
      <point x="179.25" y="61.25"/>
      <point x="132.0" y="84.5"/>
      <point x="132.0" y="154.75" type="curve" smooth="yes"/>
      <point x="132.0" y="233.0"/>
      <point x="206.5" y="247.25"/>
      <point x="268.5" y="247.25" type="curve" smooth="yes"/>
      <point x="314.75" y="247.25"/>
      <point x="345.75" y="239.0"/>
      <point x="359.25" y="233.75" type="curve"/>
      <point x="359.25" y="69.0" type="line"/>
      <point x="335.0" y="64.5"/>
      <point x="299.25" y="61.25"/>
    </contour>
  </outline>
</glyph>
<glyph name="b" format="2">
  <advance width="587.83"/>
  <unicode hex="0062"/>
  <anchor x="294.3" y="0.0" name="bottom"/>
  <anchor x="294.3" y="259.92" name="center"/>
  <anchor x="294.3" y="519.07" name="top"/>
  <outline>
    <contour>
      <point x="276.53" y="-12.23" type="curve" smooth="yes"/>
      <point x="432.59" y="-12.23"/>
      <point x="535.13" y="91.15"/>
      <point x="535.13" y="259.15" type="curve" smooth="yes"/>
      <point x="535.13" y="418.76"/>
      <point x="451.05" y="530.07"/>
      <point x="302.05" y="530.07" type="curve" smooth="yes"/>
      <point x="241.03" y="530.07"/>
      <point x="191.94" y="508.98"/>
      <point x="166.64" y="492.44" type="curve"/>
      <point x="166.64" y="776.0" type="line"/>
      <point x="82.32" y="761.24" type="line"/>
      <point x="82.32" y="16.23" type="line"/>
      <point x="123.77" y="2.54"/>
      <point x="189.9" y="-12.23"/>
    </contour>
    <contour>
      <point x="275.53" y="62.41" type="curve" smooth="yes"/>
      <point x="220.81" y="62.41"/>
      <point x="185.49" y="69.03"/>
      <point x="166.64" y="74.34" type="curve"/>
      <point x="166.64" y="415.41" type="line"/>
      <point x="188.72" y="432.8"/>
      <point x="236.12" y="455.66"/>
      <point x="290.99" y="455.66" type="curve" smooth="yes"/>
      <point x="405.11" y="455.66"/>
      <point x="447.04" y="370.7"/>
      <point x="447.04" y="260.07" type="curve" smooth="yes"/>
      <point x="447.04" y="134.96"/>
      <point x="379.63" y="62.41"/>
    </contour>
  </outline>
</glyph>
<glyph name="c" format="2">
  <advance width="473.4"/>
  <unicode hex="0063"/>
  <anchor x="236.7" y="0.0" name="bottom"/>
  <anchor x="236.7" y="520.015" name="top"/>
  <outline>
    <contour>
      <point x="306.365" y="-12.005" type="curve" smooth="yes"/>
      <point x="364.045" y="-12.005"/>
      <point x="420.37" y="2.655"/>
      <point x="448.055" y="16.325" type="curve"/>
      <point x="431.71" y="94.435" type="line"/>
      <point x="408.68" y="83.425"/>
      <point x="367.34" y="70.11"/>
      <point x="318.705" y="70.11" type="curve" smooth="yes"/>
      <point x="194.43" y="70.11"/>
      <point x="148.455" y="145.39"/>
      <point x="148.455" y="259.01" type="curve" smooth="yes"/>
      <point x="148.455" y="378.6"/>
      <point x="203.425" y="450.57"/>
      <point x="308.715" y="450.57" type="curve" smooth="yes"/>
      <point x="359.025" y="450.57"/>
      <point x="390.03" y="441.57"/>
      <point x="417.365" y="429.24" type="curve"/>
      <point x="439.055" y="506.345" type="line"/>
      <point x="407.025" y="522.685"/>
      <point x="356.04" y="532.685"/>
      <point x="300.705" y="532.685" type="curve" smooth="yes"/>
      <point x="146.0" y="532.685"/>
      <point x="51.65" y="417.66"/>
      <point x="51.65" y="259.01" type="curve" smooth="yes"/>
      <point x="51.65" y="99.685"/>
      <point x="135.31" y="-12.005"/>
    </contour>
  </outline>
</glyph>
<glyph name="d" format="2">
  <advance width="587.83"/>
  <unicode hex="0064"/>
  <anchor x="294.3" y="0.0" name="bottom"/>
  <anchor x="294.3" y="259.92" name="center"/>
  <anchor x="294.3" y="776.0" name="top"/>
  <anchor x="567.83" y="776.0" name="topright"/>
  <outline>
    <contour>
      <point x="311.3" y="-12.23" type="curve" smooth="yes"/>
      <point x="397.93" y="-12.23"/>
      <point x="464.06" y="2.54"/>
      <point x="505.51" y="16.23" type="curve"/>
      <point x="505.51" y="776.0" type="line"/>
      <point x="421.19" y="761.24" type="line"/>
      <point x="421.19" y="492.44" type="line"/>
      <point x="395.89" y="508.98"/>
      <point x="347.95" y="530.07"/>
      <point x="286.93" y="530.07" type="curve" smooth="yes"/>
      <point x="138.16" y="530.07"/>
      <point x="52.7" y="419.68"/>
      <point x="52.7" y="258.46" type="curve" smooth="yes"/>
      <point x="52.7" y="90.46"/>
      <point x="155.24" y="-12.23"/>
    </contour>
    <contour>
      <point x="312.3" y="62.41" type="curve" smooth="yes"/>
      <point x="208.2" y="62.41"/>
      <point x="140.79" y="134.96"/>
      <point x="140.79" y="260.07" type="curve"/>
      <point x="140.79" y="370.7"/>
      <point x="182.72" y="455.66"/>
      <point x="296.84" y="455.66" type="curve" smooth="yes"/>
      <point x="351.71" y="455.66"/>
      <point x="399.11" y="432.8"/>
      <point x="421.19" y="415.41" type="curve"/>
      <point x="421.19" y="74.34" type="line"/>
      <point x="402.34" y="69.03"/>
      <point x="367.02" y="62.41"/>
    </contour>
  </outline>
</glyph>
<glyph name="e" format="2">
  <advance width="556.28"/>
  <unicode hex="0065"/>
  <anchor x="278.14" y="0.0" name="bottom"/>
  <anchor x="500.59" y="10.0" name="ogonek"/>
  <anchor x="278.14" y="519.07" name="top"/>
  <outline>
    <contour>
      <point x="312.22" y="-11.69" type="curve" smooth="yes"/>
      <point x="382.6" y="-11.69"/>
      <point x="443.66" y="7.62"/>
      <point x="464.88" y="19.0" type="curve"/>
      <point x="451.04" y="89.95" type="line"/>
      <point x="429.59" y="79.57"/>
      <point x="384.91" y="63.18"/>
      <point x="318.36" y="63.18" type="curve" smooth="yes"/>
      <point x="201.02" y="63.18"/>
      <point x="145.71" y="126.82"/>
      <point x="141.02" y="237.87" type="curve"/>
      <point x="498.27" y="237.87" type="line"/>
      <point x="499.27" y="248.48"/>
      <point x="500.5" y="263.01"/>
      <point x="500.5" y="274.62" type="curve" smooth="yes"/>
      <point x="500.5" y="447.77"/>
      <point x="416.74" y="531.53"/>
      <point x="284.68" y="531.53" type="curve" smooth="yes"/>
      <point x="167.46" y="531.53"/>
      <point x="52.7" y="441.15"/>
      <point x="52.7" y="259.0" type="curve" smooth="yes"/>
      <point x="52.7" y="102.46"/>
      <point x="129.15" y="-11.69"/>
    </contour>
    <contour>
      <point x="142.56" y="303.68" type="line"/>
      <point x="148.25" y="384.94"/>
      <point x="199.43" y="458.58"/>
      <point x="285.91" y="458.58" type="curve" smooth="yes"/>
      <point x="368.54" y="458.58"/>
      <point x="413.56" y="398.34"/>
      <point x="415.79" y="303.68" type="curve"/>
    </contour>
  </outline>
</glyph>
<glyph name="f" format="2">
  <advance width="387.5"/>
  <unicode hex="0066"/>
  <anchor x="193.75" y="0.0" name="bottom"/>
  <anchor x="193.75" y="776.0" name="top"/>
  <outline>
    <contour>
      <point x="82.0" y="0.0" type="line"/>
      <point x="168.0" y="0.0" type="line"/>
      <point x="168.0" y="447.0" type="line"/>
      <point x="370.0" y="447.0" type="line"/>
      <point x="370.0" y="519.25" type="line"/>
      <point x="168.0" y="519.25" type="line"/>
      <point x="168.0" y="566.25" type="line"/>
      <point x="168.0" y="656.75"/>
      <point x="200.25" y="701.0"/>
      <point x="287.5" y="701.0" type="curve" smooth="yes"/>
      <point x="327.25" y="701.0"/>
      <point x="357.25" y="692.75"/>
      <point x="374.5" y="684.5" type="curve"/>
      <point x="391.5" y="756.25" type="line"/>
      <point x="377.0" y="764.25"/>
      <point x="336.75" y="776.0"/>
      <point x="281.5" y="776.0" type="curve" smooth="yes"/>
      <point x="147.0" y="776.0"/>
      <point x="82.0" y="702.75"/>
      <point x="82.0" y="568.25" type="curve" smooth="yes"/>
    </contour>
  </outline>
</glyph>
<glyph name="g" format="2">
  <advance width="578.25"/>
  <unicode hex="0067"/>
  <anchor x="289.5" y="-185.0" name="bottom"/>
  <anchor x="289.5" y="519.25" name="top"/>
  <outline>
    <contour>
      <point x="248.5" y="-188.0" type="curve" smooth="yes"/>
      <point x="415.0" y="-188.0"/>
      <point x="496.25" y="-122.5"/>
      <point x="496.25" y="36.75" type="curve" smooth="yes"/>
      <point x="496.25" y="501.25" type="line"/>
      <point x="455.0" y="514.25"/>
      <point x="392.25" y="529.75"/>
      <point x="303.25" y="529.75" type="curve" smooth="yes"/>
      <point x="146.25" y="529.75"/>
      <point x="52.5" y="420.75"/>
      <point x="52.5" y="272.5" type="curve" smooth="yes"/>
      <point x="52.5" y="98.0"/>
      <point x="154.25" y="23.0"/>
      <point x="281.25" y="23.0" type="curve" smooth="yes"/>
      <point x="346.75" y="23.0"/>
      <point x="390.25" y="46.5"/>
      <point x="411.0" y="59.25" type="curve"/>
      <point x="411.0" y="29.0" type="line" smooth="yes"/>
      <point x="411.0" y="-72.0"/>
      <point x="364.0" y="-113.75"/>
      <point x="250.5" y="-113.75" type="curve" smooth="yes"/>
      <point x="192.25" y="-113.75"/>
      <point x="134.25" y="-101.25"/>
      <point x="98.5" y="-86.0" type="curve"/>
      <point x="82.25" y="-161.5" type="line"/>
      <point x="124.5" y="-176.0"/>
      <point x="183.0" y="-188.0"/>
    </contour>
    <contour>
      <point x="288.25" y="97.25" type="curve" smooth="yes"/>
      <point x="211.5" y="97.25"/>
      <point x="142.25" y="148.25"/>
      <point x="142.25" y="271.75" type="curve" smooth="yes"/>
      <point x="142.25" y="380.25"/>
      <point x="201.25" y="455.5"/>
      <point x="304.25" y="455.5" type="curve" smooth="yes"/>
      <point x="360.5" y="455.5"/>
      <point x="390.0" y="449.75"/>
      <point x="410.25" y="443.75" type="curve"/>
      <point x="410.25" y="134.5" type="line"/>
      <point x="385.25" y="114.5"/>
      <point x="339.5" y="97.25"/>
    </contour>
  </outline>
</glyph>
<glyph name="h" format="2">
  <advance width="573.6"/>
  <unicode hex="0068"/>
  <anchor x="287.3" y="0.0" name="bottom"/>
  <anchor x="287.3" y="388.0" name="center"/>
  <anchor x="287.3" y="776.0" name="top"/>
  <outline>
    <contour>
      <point x="82.32" y="0.0" type="line"/>
      <point x="166.64" y="0.0" type="line"/>
      <point x="166.64" y="434.65" type="line"/>
      <point x="180.25" y="440.42"/>
      <point x="234.82" y="454.89"/>
      <point x="275.68" y="454.89" type="curve" smooth="yes"/>
      <point x="381.18" y="454.89"/>
      <point x="412.73" y="405.03"/>
      <point x="412.73" y="270.53" type="curve" smooth="yes"/>
      <point x="412.73" y="0.0" type="line"/>
      <point x="497.05" y="0.0" type="line"/>
      <point x="497.05" y="290.84" type="line" smooth="yes"/>
      <point x="497.05" y="433.07"/>
      <point x="450.13" y="529.53"/>
      <point x="286.83" y="529.53" type="curve" smooth="yes"/>
      <point x="246.28" y="529.53"/>
      <point x="203.58" y="520.99"/>
      <point x="166.64" y="507.06" type="curve"/>
      <point x="166.64" y="776.0" type="line"/>
      <point x="82.32" y="761.24" type="line"/>
    </contour>
  </outline>
</glyph>
<glyph name="i" format="2">
  <advance width="250.0"/>
  <unicode hex="0069"/>
  <anchor x="125.5" y="0.0" name="bottom"/>
  <outline>
    <contour>
      <point x="82.0" y="0.0" type="line"/>
      <point x="168.0" y="0.0" type="line"/>
      <point x="168.0" y="519.25" type="line"/>
      <point x="82.0" y="519.25" type="line"/>
    </contour>
    <contour>
      <point x="124.5" y="614.75" type="curve" smooth="yes"/>
      <point x="156.75" y="614.75"/>
      <point x="182.75" y="638.0"/>
      <point x="182.75" y="674.25" type="curve" smooth="yes"/>
      <point x="182.75" y="710.5"/>
      <point x="156.75" y="733.75"/>
      <point x="124.5" y="733.75" type="curve" smooth="yes"/>
      <point x="92.25" y="733.75"/>
      <point x="66.25" y="710.5"/>
      <point x="66.25" y="674.25" type="curve" smooth="yes"/>
      <point x="66.25" y="638.0"/>
      <point x="92.25" y="614.75"/>
    </contour>
  </outline>
</glyph>
<glyph name="j" format="2">
  <advance width="248.96"/>
  <unicode hex="006A"/>
  <outline>
    <contour>
      <point x="-3.6399999999999997" y="-186.54" type="curve" smooth="yes"/>
      <point x="115.89" y="-186.54"/>
      <point x="166.64" y="-123.85"/>
      <point x="166.64" y="8.22" type="curve" smooth="yes"/>
      <point x="166.64" y="519.07" type="line"/>
      <point x="82.32" y="519.07" type="line"/>
      <point x="82.32" y="6.83" type="line"/>
      <point x="82.32" y="-73.12"/>
      <point x="64.01" y="-113.67"/>
      <point x="-7.63" y="-113.67" type="curve" smooth="yes"/>
      <point x="-24.93" y="-113.67"/>
      <point x="-42.01" y="-110.9"/>
      <point x="-53.54" y="-106.98" type="curve"/>
      <point x="-65.07" y="-175.62" type="line"/>
      <point x="-49.24" y="-182.0"/>
      <point x="-18.79" y="-186.54"/>
    </contour>
    <contour>
      <point x="123.98" y="615.41" type="curve" smooth="yes"/>
      <point x="155.81" y="615.41"/>
      <point x="181.41" y="638.4"/>
      <point x="181.41" y="674.15" type="curve" smooth="yes"/>
      <point x="181.41" y="709.9"/>
      <point x="155.81" y="732.89"/>
      <point x="123.98" y="732.89" type="curve" smooth="yes"/>
      <point x="92.15" y="732.89"/>
      <point x="66.55" y="709.9"/>
      <point x="66.55" y="674.15" type="curve" smooth="yes"/>
      <point x="66.55" y="638.4"/>
      <point x="92.15" y="615.41"/>
    </contour>
  </outline>
</glyph>
<glyph name="k" format="2">
  <advance width="523.14"/>
  <unicode hex="006B"/>
  <anchor x="262.07" y="0.0" name="bottom"/>
  <anchor x="262.07" y="776.0" name="top"/>
  <outline>
    <contour>
      <point x="80.64" y="0.0" type="line"/>
      <point x="173.78" y="0.0" type="line"/>
      <point x="173.78" y="249.95" type="line"/>
      <point x="249.095" y="198.61"/>
      <point x="343.03" y="93.605"/>
      <point x="399.33" y="0.0" type="curve"/>
      <point x="507.82" y="0.0" type="line"/>
      <point x="454.84000000000003" y="93.65"/>
      <point x="348.535" y="223.33"/>
      <point x="265.54" y="285.69" type="curve"/>
      <point x="337.56" y="356.71"/>
      <point x="427.16" y="450.985"/>
      <point x="490.845" y="520.015" type="curve"/>
      <point x="379.68" y="520.015" type="line"/>
      <point x="332.37" y="464.705"/>
      <point x="237.1" y="365.42"/>
      <point x="173.78" y="301.42" type="curve"/>
      <point x="173.78" y="776.0" type="line"/>
      <point x="80.64" y="759.98" type="line"/>
    </contour>
  </outline>
</glyph>
<glyph name="l" format="2">
  <advance width="270.25"/>
  <unicode hex="006C"/>
  <anchor x="135.5" y="0.0" name="bottom"/>
  <anchor x="135.5" y="388.0" name="center"/>
  <anchor x="135.5" y="776.0" name="top"/>
  <anchor x="250.25" y="776.0" name="topright"/>
  <outline>
    <contour>
      <point x="232.75" y="-9.25" type="curve"/>
      <point x="244.75" y="62.0" type="line"/>
      <point x="187.25" y="70.0"/>
      <point x="167.25" y="83.25"/>
      <point x="167.25" y="145.25" type="curve" smooth="yes"/>
      <point x="167.25" y="776.0" type="line"/>
      <point x="81.25" y="761.0" type="line"/>
      <point x="81.25" y="136.25" type="line" smooth="yes"/>
      <point x="81.25" y="34.75"/>
      <point x="124.5" y="-5.5"/>
    </contour>
  </outline>
</glyph>
<glyph name="m" format="2">
  <advance width="862.75"/>
  <unicode hex="006D"/>
  <anchor x="431.75" y="0.0" name="bottom"/>
  <anchor x="431.75" y="519.25" name="top"/>
  <outline>
    <contour>
      <point x="82.0" y="0.0" type="line"/>
      <point x="168.0" y="0.0" type="line"/>
      <point x="168.0" y="442.0" type="line"/>
      <point x="181.75" y="446.5"/>
      <point x="222.0" y="453.75"/>
      <point x="273.25" y="453.75" type="curve" smooth="yes"/>
      <point x="371.5" y="453.75"/>
      <point x="391.25" y="396.0"/>
      <point x="391.25" y="270.75" type="curve" smooth="yes"/>
      <point x="391.25" y="0.0" type="line"/>
      <point x="477.25" y="0.0" type="line"/>
      <point x="477.25" y="292.25" type="line" smooth="yes"/>
      <point x="477.25" y="338.0"/>
      <point x="472.25" y="380.0"/>
      <point x="461.0" y="413.25" type="curve"/>
      <point x="476.25" y="425.25"/>
      <point x="520.75" y="453.75"/>
      <point x="585.5" y="453.75" type="curve" smooth="yes"/>
      <point x="680.75" y="453.75"/>
      <point x="700.5" y="396.0"/>
      <point x="700.5" y="270.75" type="curve"/>
      <point x="700.5" y="0.0" type="line"/>
      <point x="786.5" y="0.0" type="line"/>
      <point x="786.5" y="291.0" type="line" smooth="yes"/>
      <point x="786.5" y="431.0"/>
      <point x="755.0" y="529.75"/>
      <point x="594.5" y="529.75" type="curve" smooth="yes"/>
      <point x="511.5" y="529.75"/>
      <point x="448.5" y="491.5"/>
      <point x="427.25" y="474.75" type="curve"/>
      <point x="397.75" y="510.0"/>
      <point x="350.0" y="529.75"/>
      <point x="283.0" y="529.75" type="curve" smooth="yes"/>
      <point x="190.25" y="529.75"/>
      <point x="124.25" y="513.0"/>
      <point x="82.0" y="501.25" type="curve"/>
    </contour>
  </outline>
</glyph>
<glyph name="n" format="2">
  <advance width="573.6"/>
  <unicode hex="006E"/>
  <anchor x="287.3" y="0.0" name="bottom"/>
  <anchor x="287.3" y="519.07" name="top"/>
  <outline>
    <contour>
      <point x="82.32" y="0.0" type="line"/>
      <point x="166.64" y="0.0" type="line"/>
      <point x="166.64" y="442.96" type="line"/>
      <point x="181.02" y="447.5"/>
      <point x="224.73" y="454.89"/>
      <point x="276.53" y="454.89" type="curve" smooth="yes"/>
      <point x="380.18" y="454.89"/>
      <point x="412.73" y="405.03"/>
      <point x="412.73" y="270.53" type="curve" smooth="yes"/>
      <point x="412.73" y="0.0" type="line"/>
      <point x="497.05" y="0.0" type="line"/>
      <point x="497.05" y="290.84" type="line" smooth="yes"/>
      <point x="497.05" y="433.07"/>
      <point x="449.13" y="529.53"/>
      <point x="286.3" y="529.53" type="curve" smooth="yes"/>
      <point x="193.68" y="529.53"/>
      <point x="124.08" y="512.99"/>
      <point x="82.32" y="501.07" type="curve"/>
    </contour>
  </outline>
</glyph>
<glyph name="o" format="2">
  <advance width="587.75"/>
  <unicode hex="006F"/>
  <anchor x="293.99" y="0.0" name="bottom"/>
  <anchor x="293.99" y="259.92" name="center"/>
  <anchor x="529.06" y="10.0" name="ogonek"/>
  <anchor x="293.99" y="519.07" name="top"/>
  <anchor x="567.75" y="519.07" name="topright"/>
  <outline>
    <contour>
      <point x="293.99" y="-12.46" type="curve" smooth="yes"/>
      <point x="436.36" y="-12.46"/>
      <point x="535.05" y="95.69"/>
      <point x="535.05" y="259.38" type="curve" smooth="yes"/>
      <point x="535.05" y="422.84"/>
      <point x="435.21" y="531.53"/>
      <point x="293.99" y="531.53" type="curve" smooth="yes"/>
      <point x="153.46" y="531.53"/>
      <point x="52.7" y="422.84"/>
      <point x="52.7" y="259.38" type="curve" smooth="yes"/>
      <point x="52.7" y="95.69"/>
      <point x="152.31" y="-12.46"/>
    </contour>
    <contour>
      <point x="293.99" y="62.41" type="curve" smooth="yes"/>
      <point x="199.81" y="62.41"/>
      <point x="140.79" y="138.89"/>
      <point x="140.79" y="259.38" type="curve" smooth="yes"/>
      <point x="140.79" y="379.87"/>
      <point x="199.81" y="456.66"/>
      <point x="293.99" y="456.66" type="curve" smooth="yes"/>
      <point x="388.17" y="456.66"/>
      <point x="446.96" y="379.87"/>
      <point x="446.96" y="259.38" type="curve" smooth="yes"/>
      <point x="446.96" y="138.89"/>
      <point x="388.17" y="62.41"/>
    </contour>
  </outline>
</glyph>
<glyph name="p" format="2">
  <advance width="587.83"/>
  <unicode hex="0070"/>
  <anchor x="294.3" y="0.0" name="bottom"/>
  <anchor x="294.3" y="519.07" name="top"/>
  <outline>
    <contour>
      <point x="82.32" y="-185.0" type="line"/>
      <point x="166.64" y="-185.0" type="line"/>
      <point x="166.64" y="26.09" type="line"/>
      <point x="191.94" y="9.55"/>
      <point x="241.03" y="-11.54"/>
      <point x="302.05" y="-11.54" type="curve" smooth="yes"/>
      <point x="451.05" y="-11.54"/>
      <point x="535.13" y="99.46"/>
      <point x="535.13" y="258.38" type="curve" smooth="yes"/>
      <point x="535.13" y="426.38"/>
      <point x="432.59" y="529.53"/>
      <point x="276.53" y="529.53" type="curve" smooth="yes"/>
      <point x="189.9" y="529.53"/>
      <point x="123.77" y="514.76"/>
      <point x="82.32" y="501.07" type="curve"/>
    </contour>
    <contour>
      <point x="290.99" y="62.870000000000005" type="curve" smooth="yes"/>
      <point x="236.12" y="62.870000000000005"/>
      <point x="188.72" y="85.73"/>
      <point x="166.64" y="103.12" type="curve"/>
      <point x="166.64" y="442.96" type="line"/>
      <point x="185.49" y="448.27"/>
      <point x="220.81" y="454.89"/>
      <point x="275.53" y="454.89" type="curve" smooth="yes"/>
      <point x="379.63" y="454.89"/>
      <point x="447.04" y="382.57"/>
      <point x="447.04" y="257.46" type="curve" smooth="yes"/>
      <point x="447.04" y="147.06"/>
      <point x="405.11" y="62.870000000000005"/>
    </contour>
  </outline>
</glyph>
<glyph name="q" format="2">
  <advance width="590.035"/>
  <unicode hex="0071"/>
  <anchor x="295.35" y="0.0" name="bottom"/>
  <anchor x="295.35" y="520.015" name="top"/>
  <outline>
    <contour>
      <point x="416.255" y="-185.0" type="line"/>
      <point x="509.395" y="-185.0" type="line"/>
      <point x="509.395" y="502.015" type="line"/>
      <point x="466.37" y="516.02"/>
      <point x="396.985" y="530.685"/>
      <point x="312.35" y="530.685" type="curve" smooth="yes"/>
      <point x="153.98" y="530.685"/>
      <point x="51.65" y="425.335"/>
      <point x="51.65" y="259.01" type="curve" smooth="yes"/>
      <point x="51.65" y="97.66"/>
      <point x="135.31" y="-11.33"/>
      <point x="284.31" y="-11.33" type="curve" smooth="yes"/>
      <point x="342.6" y="-11.33"/>
      <point x="389.905" y="7.975"/>
      <point x="416.255" y="24.305" type="curve"/>
    </contour>
    <contour>
      <point x="297.68" y="70.11500000000001" type="curve" smooth="yes"/>
      <point x="189.44" y="70.11500000000001"/>
      <point x="148.455" y="149.37"/>
      <point x="148.455" y="257.67" type="curve" smooth="yes"/>
      <point x="148.455" y="378.265"/>
      <point x="212.4" y="448.905"/>
      <point x="313.35" y="448.905" type="curve" smooth="yes"/>
      <point x="364.29" y="448.905"/>
      <point x="397.93" y="442.915"/>
      <point x="416.255" y="437.92" type="curve"/>
      <point x="416.255" y="107.74" type="line"/>
      <point x="394.595" y="91.08500000000001"/>
      <point x="349.295" y="70.11500000000001"/>
    </contour>
  </outline>
</glyph>
<glyph name="r" format="2">
  <advance width="386.0"/>
  <unicode hex="0072"/>
  <anchor x="193.0" y="0.0" name="bottom"/>
  <anchor x="193.0" y="519.25" name="top"/>
  <outline>
    <contour>
      <point x="82.0" y="0.0" type="line"/>
      <point x="168.0" y="0.0" type="line"/>
      <point x="168.0" y="440.25" type="line"/>
      <point x="178.75" y="445.0"/>
      <point x="212.75" y="454.25"/>
      <point x="259.5" y="454.25" type="curve" smooth="yes"/>
      <point x="309.5" y="454.25"/>
      <point x="344.25" y="446.0"/>
      <point x="358.5" y="440.5" type="curve"/>
      <point x="374.5" y="513.25" type="line"/>
      <point x="356.0" y="521.0"/>
      <point x="307.5" y="529.5"/>
      <point x="268.0" y="529.5" type="curve" smooth="yes"/>
      <point x="182.75" y="529.5"/>
      <point x="120.0" y="509.5"/>
      <point x="82.0" y="494.25" type="curve"/>
    </contour>
  </outline>
</glyph>
<glyph name="s" format="2">
  <advance width="441.11"/>
  <unicode hex="0073"/>
  <anchor x="220.67" y="0.0" name="bottom"/>
  <anchor x="220.67" y="519.07" name="top"/>
  <outline>
    <contour>
      <point x="198.44" y="-12.46" type="curve" smooth="yes"/>
      <point x="324.5" y="-12.46"/>
      <point x="400.88" y="37.69"/>
      <point x="400.88" y="133.22" type="curve" smooth="yes"/>
      <point x="400.88" y="228.92"/>
      <point x="336.08" y="259.91"/>
      <point x="245.12" y="295.59" type="curve" smooth="yes"/>
      <point x="170.11" y="324.98"/>
      <point x="133.78" y="341.83"/>
      <point x="133.78" y="391.01" type="curve" smooth="yes"/>
      <point x="133.78" y="439.34"/>
      <point x="178.34" y="460.04"/>
      <point x="233.81" y="460.04" type="curve" smooth="yes"/>
      <point x="301.75" y="460.04"/>
      <point x="337.67" y="443.65"/>
      <point x="358.04" y="434.73" type="curve"/>
      <point x="375.57" y="506.07" type="line"/>
      <point x="353.66" y="515.99"/>
      <point x="302.21" y="531.53"/>
      <point x="233.59" y="531.53" type="curve" smooth="yes"/>
      <point x="119.45" y="531.53"/>
      <point x="49.15" y="473.61"/>
      <point x="49.15" y="386.16" type="curve" smooth="yes"/>
      <point x="49.15" y="295.71"/>
      <point x="116.31" y="263.79"/>
      <point x="196.22" y="231.87" type="curve" smooth="yes"/>
      <point x="283.94" y="196.55"/>
      <point x="315.25" y="180.78"/>
      <point x="315.25" y="131.37" type="curve" smooth="yes"/>
      <point x="315.25" y="78.81"/>
      <point x="269.07" y="60.03"/>
      <point x="198.67" y="60.03" type="curve" smooth="yes"/>
      <point x="123.57" y="60.03"/>
      <point x="77.27" y="82.81"/>
      <point x="58.61" y="90.49" type="curve"/>
      <point x="39.77" y="17.23" type="line"/>
      <point x="57.61" y="8.54"/>
      <point x="107.75" y="-12.46"/>
    </contour>
  </outline>
</glyph>
<glyph name="t" format="2">
  <advance width="401.25"/>
  <unicode hex="0074"/>
  <anchor x="201.0" y="0.0" name="bottom"/>
  <anchor x="201.0" y="260.0" name="center"/>
  <anchor x="201.0" y="519.25" name="top"/>
  <anchor x="381.25" y="776.0" name="topright"/>
  <outline>
    <contour>
      <point x="255.75" y="-11.25" type="curve" smooth="yes"/>
      <point x="313.0" y="-11.25"/>
      <point x="361.5" y="6.75"/>
      <point x="384.75" y="19.5" type="curve"/>
      <point x="367.5" y="89.0" type="line"/>
      <point x="346.25" y="78.75"/>
      <point x="313.25" y="64.5"/>
      <point x="264.75" y="64.5" type="curve" smooth="yes"/>
      <point x="199.25" y="64.5"/>
      <point x="163.75" y="90.25"/>
      <point x="163.75" y="194.5" type="curve" smooth="yes"/>
      <point x="163.75" y="447.0" type="line"/>
      <point x="363.0" y="447.0" type="line"/>
      <point x="363.0" y="519.25" type="line"/>
      <point x="163.75" y="519.25" type="line"/>
      <point x="163.75" y="681.0" type="line"/>
      <point x="77.75" y="666.0" type="line"/>
      <point x="77.75" y="198.5" type="line" smooth="yes"/>
      <point x="77.75" y="61.0"/>
      <point x="118.25" y="-11.25"/>
    </contour>
  </outline>
</glyph>
<glyph name="u" format="2">
  <advance width="573.6"/>
  <unicode hex="0075"/>
  <anchor x="287.3" y="0.0" name="bottom"/>
  <anchor x="516.14" y="10.0" name="ogonek"/>
  <anchor x="287.3" y="519.07" name="top"/>
  <anchor x="553.6" y="519.07" name="topright"/>
  <outline>
    <contour>
      <point x="287.3" y="-10.46" type="curve" smooth="yes"/>
      <point x="379.92" y="-10.46"/>
      <point x="449.52" y="6.08"/>
      <point x="491.28" y="18.0" type="curve"/>
      <point x="491.28" y="519.07" type="line"/>
      <point x="406.96" y="519.07" type="line"/>
      <point x="406.96" y="76.11" type="line"/>
      <point x="393.35" y="71.57"/>
      <point x="348.87" y="64.18"/>
      <point x="297.07" y="64.18" type="curve" smooth="yes"/>
      <point x="196.5" y="64.18"/>
      <point x="160.87" y="114.19"/>
      <point x="160.87" y="248.69" type="curve" smooth="yes"/>
      <point x="160.87" y="519.07" type="line"/>
      <point x="76.55" y="519.07" type="line"/>
      <point x="76.55" y="228.38" type="line" smooth="yes"/>
      <point x="76.55" y="85.92"/>
      <point x="127.55" y="-10.46"/>
    </contour>
  </outline>
</glyph>
<glyph name="v" format="2">
  <advance width="496.1"/>
  <unicode hex="0076"/>
  <anchor x="248.05" y="0.0" name="bottom"/>
  <anchor x="248.05" y="519.07" name="top"/>
  <outline>
    <contour>
      <point x="209.92" y="0.0" type="curve"/>
      <point x="286.18" y="0.0" type="line"/>
      <point x="354.18" y="140.7"/>
      <point x="427.72" y="325.78"/>
      <point x="478.4" y="519.07" type="curve"/>
      <point x="392.93" y="519.07" type="line"/>
      <point x="362.08" y="385.81"/>
      <point x="300.45" y="205.7"/>
      <point x="250.05" y="95.07" type="curve"/>
      <point x="199.19" y="205.47"/>
      <point x="138.02" y="385.81"/>
      <point x="107.17" y="519.07" type="curve"/>
      <point x="17.7" y="519.07" type="line"/>
      <point x="68.38" y="325.78"/>
      <point x="141.92" y="140.7"/>
    </contour>
  </outline>
</glyph>
<glyph name="w" format="2">
  <advance width="777.07"/>
  <unicode hex="0077"/>
  <anchor x="388.92" y="0.0" name="bottom"/>
  <anchor x="388.92" y="519.07" name="top"/>
  <outline>
    <contour>
      <point x="192.47" y="0.0" type="curve"/>
      <point x="266.89" y="0.0" type="line"/>
      <point x="304.51" y="94.84"/>
      <point x="352.22" y="227.95"/>
      <point x="388.46" y="367.45" type="curve"/>
      <point x="424.7" y="227.95"/>
      <point x="473.1" y="94.84"/>
      <point x="510.72" y="0.0" type="curve"/>
      <point x="584.37" y="0.0" type="line"/>
      <point x="647.77" y="141.26"/>
      <point x="706.53" y="315.46"/>
      <point x="757.06" y="519.07" type="curve"/>
      <point x="672.13" y="519.07" type="line"/>
      <point x="644.2" y="389.19"/>
      <point x="589.33" y="202.37"/>
      <point x="547.32" y="98.07" type="curve"/>
      <point x="499.23" y="227.62"/>
      <point x="449.75" y="395.58"/>
      <point x="425.67" y="519.07" type="curve"/>
      <point x="357.71" y="519.07" type="line"/>
      <point x="330.55" y="395.35"/>
      <point x="282.69" y="228.39"/>
      <point x="234.6" y="98.84" type="curve"/>
      <point x="191.82" y="202.37"/>
      <point x="137.18" y="389.19"/>
      <point x="109.25" y="519.07" type="curve"/>
      <point x="20.009999999999998" y="519.07" type="line"/>
      <point x="70.54" y="315.46"/>
      <point x="129.84" y="141.03"/>
    </contour>
  </outline>
</glyph>
<glyph name="x" format="2">
  <advance width="517.425"/>
  <unicode hex="0078"/>
  <anchor x="259.045" y="0.0" name="bottom"/>
  <anchor x="259.045" y="520.015" name="top"/>
  <outline>
    <contour>
      <point x="21.97" y="0.0" type="curve"/>
      <point x="117.445" y="0.0" type="line"/>
      <point x="147.105" y="56.99"/>
      <point x="204.405" y="146.95"/>
      <point x="256.375" y="215.24" type="curve"/>
      <point x="308.685" y="145.945"/>
      <point x="367.32" y="52.97"/>
      <point x="395.305" y="0.0" type="curve"/>
      <point x="495.455" y="0.0" type="line"/>
      <point x="448.475" y="91.625"/>
      <point x="377.15" y="192.95"/>
      <point x="312.445" y="276.325" type="curve"/>
      <point x="482.47" y="520.015" type="line"/>
      <point x="383.665" y="520.015" type="line"/>
      <point x="258.385" y="334.745" type="line"/>
      <point x="134.435" y="520.015" type="line"/>
      <point x="29.96" y="520.015" type="line"/>
      <point x="201.645" y="272.995" type="line"/>
      <point x="137.635" y="188.33"/>
      <point x="68.935" y="90.61"/>
    </contour>
  </outline>
</glyph>
<glyph name="y" format="2">
  <advance width="490.79"/>
  <unicode hex="0079"/>
  <anchor x="245.51" y="0.0" name="bottom"/>
  <anchor x="245.51" y="519.07" name="top"/>
  <outline>
    <contour>
      <point x="82.58" y="-187.31" type="curve" smooth="yes"/>
      <point x="199.2" y="-187.31"/>
      <point x="247.66" y="-136.0"/>
      <point x="299.81" y="-16.23" type="curve" smooth="yes"/>
      <point x="366.8" y="138.45"/>
      <point x="423.87" y="324.54"/>
      <point x="470.78" y="519.07" type="curve"/>
      <point x="385.31" y="519.07" type="line"/>
      <point x="349.07" y="360.4"/>
      <point x="316.54" y="233.42"/>
      <point x="263.83" y="84.29" type="curve"/>
      <point x="193.72" y="230.34"/>
      <point x="136.48" y="396.59"/>
      <point x="107.17" y="519.07" type="curve"/>
      <point x="17.7" y="519.07" type="line"/>
      <point x="63.84" y="339.02"/>
      <point x="139.23" y="151.92"/>
      <point x="222.63" y="-3.4099999999999993" type="curve"/>
      <point x="190.31" y="-85.98"/>
      <point x="153.76" y="-115.98"/>
      <point x="83.05" y="-115.98" type="curve" smooth="yes"/>
      <point x="56.82" y="-115.98"/>
      <point x="28.89" y="-107.59"/>
      <point x="17.91" y="-101.98" type="curve"/>
      <point x="1.92" y="-170.93" type="line"/>
      <point x="12.29" y="-176.54"/>
      <point x="46.36" y="-187.31"/>
    </contour>
  </outline>
</glyph>
<glyph name="z" format="2">
  <advance width="470.075"/>
  <unicode hex="007A"/>
  <anchor x="235.37" y="0.0" name="bottom"/>
  <anchor x="235.37" y="260.34" name="center"/>
  <anchor x="235.37" y="520.015" name="top"/>
  <outline>
    <contour>
      <point x="36.995" y="0.0" type="line"/>
      <point x="434.09" y="0.0" type="line"/>
      <point x="434.09" y="78.11500000000001" type="line"/>
      <point x="147.505" y="78.11500000000001" type="line"/>
      <point x="227.83" y="214.055"/>
      <point x="369.785" y="387.96"/>
      <point x="426.43" y="451.27" type="curve"/>
      <point x="426.43" y="520.015" type="line"/>
      <point x="50.99" y="520.015" type="line"/>
      <point x="50.99" y="441.9" type="line"/>
      <point x="308.905" y="441.9" type="line"/>
      <point x="237.905" y="356.9"/>
      <point x="101.64" y="179.345"/>
      <point x="36.995" y="60.735" type="curve"/>
    </contour>
  </outline>
</glyph>
<glyph name="braceleft" format="2">
  <advance width="332.0"/>
  <unicode hex="007B"/>
  <outline>
    <contour>
      <point x="312.5" y="-193.25" type="curve" smooth="yes"/>
      <point x="323.5" y="-193.25" type="line"/>
      <point x="323.5" y="-126.0" type="line"/>
      <point x="313.5" y="-126.0" type="line"/>
      <point x="220.5" y="-125.25"/>
      <point x="215.75" y="-87.75"/>
      <point x="215.75" y="18.25" type="curve" smooth="yes"/>
      <point x="215.75" y="131.75" type="line" smooth="yes"/>
      <point x="215.75" y="223.25"/>
      <point x="192.75" y="264.75"/>
      <point x="146.5" y="291.5" type="curve"/>
      <point x="192.75" y="318.25"/>
      <point x="215.75" y="359.0"/>
      <point x="215.75" y="450.5" type="curve" smooth="yes"/>
      <point x="215.75" y="564.0" type="line" smooth="yes"/>
      <point x="215.75" y="670.0"/>
      <point x="220.5" y="708.25"/>
      <point x="312.75" y="708.25" type="curve" smooth="yes"/>
      <point x="323.5" y="708.25" type="line"/>
      <point x="323.5" y="775.5" type="line"/>
      <point x="312.5" y="775.5" type="line"/>
      <point x="173.75" y="775.5"/>
      <point x="134.25" y="715.0"/>
      <point x="134.25" y="605.25" type="curve" smooth="yes"/>
      <point x="134.25" y="422.0" type="line"/>
      <point x="134.25" y="372.75"/>
      <point x="105.25" y="324.25"/>
      <point x="41.0" y="324.25" type="curve"/>
      <point x="41.0" y="258.0" type="line"/>
      <point x="105.25" y="258.0"/>
      <point x="134.25" y="209.5"/>
      <point x="134.25" y="160.25" type="curve" smooth="yes"/>
      <point x="134.25" y="-23.0" type="line" smooth="yes"/>
      <point x="134.25" y="-132.75"/>
      <point x="173.75" y="-193.25"/>
    </contour>
  </outline>
</glyph>
<glyph name="bar" format="2">
  <advance width="275.8"/>
  <unicode hex="007C"/>
  <outline>
    <contour>
      <point x="97.7" y="-185.0" type="line"/>
      <point x="178.1" y="-185.0" type="line"/>
      <point x="178.1" y="783.0" type="line"/>
      <point x="97.7" y="783.0" type="line"/>
    </contour>
  </outline>
</glyph>
<glyph name="braceright" format="2">
  <advance width="332.0"/>
  <unicode hex="007D"/>
  <outline>
    <contour>
      <point x="8.5" y="-193.25" type="line"/>
      <point x="19.5" y="-193.25" type="line" smooth="yes"/>
      <point x="158.25" y="-193.25"/>
      <point x="197.75" y="-132.75"/>
      <point x="197.75" y="-23.0" type="curve" smooth="yes"/>
      <point x="197.75" y="160.25" type="line" smooth="yes"/>
      <point x="197.75" y="209.5"/>
      <point x="226.75" y="258.0"/>
      <point x="291.0" y="258.0" type="curve"/>
      <point x="291.0" y="324.25" type="line"/>
      <point x="226.75" y="324.25"/>
      <point x="197.75" y="372.75"/>
      <point x="197.75" y="422.0" type="curve"/>
      <point x="197.75" y="605.25" type="line" smooth="yes"/>
      <point x="197.75" y="715.0"/>
      <point x="158.25" y="775.5"/>
      <point x="19.5" y="775.5" type="curve"/>
      <point x="8.5" y="775.5" type="line"/>
      <point x="8.5" y="708.25" type="line"/>
      <point x="20.0" y="708.25" type="line"/>
      <point x="111.5" y="706.75"/>
      <point x="116.25" y="669.25"/>
      <point x="116.25" y="564.0" type="curve" smooth="yes"/>
      <point x="116.25" y="450.5" type="line" smooth="yes"/>
      <point x="116.25" y="359.0"/>
      <point x="139.25" y="318.25"/>
      <point x="185.5" y="291.5" type="curve"/>
      <point x="139.25" y="264.75"/>
      <point x="116.25" y="223.25"/>
      <point x="116.25" y="131.75" type="curve" smooth="yes"/>
      <point x="116.25" y="18.25" type="line" smooth="yes"/>
      <point x="116.25" y="-87.0"/>
      <point x="111.5" y="-124.5"/>
      <point x="20.75" y="-126.0" type="curve"/>
      <point x="8.5" y="-126.0" type="line"/>
    </contour>
  </outline>
</glyph>
<glyph name="asciitilde" format="2">
  <advance width="565.0"/>
  <unicode hex="007E"/>
  <outline>
    <contour>
      <point x="384.5" y="215.5" type="curve" smooth="yes"/>
      <point x="478.5" y="215.5"/>
      <point x="509.5" y="297.0"/>
      <point x="521.75" y="351.75" type="curve"/>
      <point x="458.0" y="367.75" type="line"/>
      <point x="450.25" y="335.25"/>
      <point x="431.5" y="288.75"/>
      <point x="387.75" y="288.75" type="curve" smooth="yes"/>
      <point x="320.75" y="288.75"/>
      <point x="268.0" y="375.25"/>
      <point x="180.5" y="375.25" type="curve"/>
      <point x="86.25" y="375.25"/>
      <point x="55.5" y="293.75"/>
      <point x="43.25" y="239.0" type="curve"/>
      <point x="107.0" y="223.0" type="line"/>
      <point x="114.75" y="255.5"/>
      <point x="133.5" y="302.0"/>
      <point x="177.25" y="302.0" type="curve" smooth="yes"/>
      <point x="244.25" y="302.0"/>
      <point x="297.0" y="215.5"/>
    </contour>
  </outline>
</glyph>
<glyph name="exclamdown" format="2">
  <advance width="276.76"/>
  <unicode hex="00A1"/>
  <outline>
    <contour>
      <point x="93.26" y="-183.85" type="line"/>
      <point x="183.73" y="-183.85" type="line"/>
      <point x="183.73" y="4.77" type="line"/>
      <point x="183.73" y="117.39"/>
      <point x="174.73" y="202.54"/>
      <point x="163.27" y="293.15" type="curve"/>
      <point x="113.95" y="293.15" type="line"/>
      <point x="101.72" y="202.54"/>
      <point x="93.26" y="117.39"/>
      <point x="93.26" y="4.77" type="curve" smooth="yes"/>
    </contour>
    <contour>
      <point x="138.38" y="392.05" type="curve" smooth="yes"/>
      <point x="175.6" y="392.05"/>
      <point x="202.12" y="418.89"/>
      <point x="202.12" y="455.56" type="curve" smooth="yes"/>
      <point x="202.12" y="492.23"/>
      <point x="175.6" y="519.07"/>
      <point x="138.38" y="519.07" type="curve" smooth="yes"/>
      <point x="101.16" y="519.07"/>
      <point x="74.64" y="492.23"/>
      <point x="74.64" y="455.56" type="curve" smooth="yes"/>
      <point x="74.64" y="418.89"/>
      <point x="101.16" y="392.05"/>
    </contour>
  </outline>
</glyph>
<glyph name="cent" format="2">
  <advance width="565.34"/>
  <unicode hex="00A2"/>
  <outline>
    <contour>
      <point x="277.2" y="-109.0" type="line"/>
      <point x="364.005" y="-109.0" type="line"/>
      <point x="364.005" y="29.995" type="line"/>
      <point x="412.325" y="33.0"/>
      <point x="461.62" y="44.66"/>
      <point x="481.97" y="55.66" type="curve"/>
      <point x="466.955" y="132.44" type="line"/>
      <point x="443.925" y="122.095"/>
      <point x="401.92" y="110.11"/>
      <point x="353.285" y="110.11" type="curve" smooth="yes"/>
      <point x="231.68" y="110.11"/>
      <point x="183.035" y="182.715"/>
      <point x="183.035" y="291.005" type="curve" smooth="yes"/>
      <point x="183.035" y="410.585"/>
      <point x="240.01" y="474.56"/>
      <point x="344.625" y="474.56" type="curve" smooth="yes"/>
      <point x="385.625" y="474.56"/>
      <point x="422.945" y="464.23"/>
      <point x="450.945" y="452.565" type="curve"/>
      <point x="473.305" y="529.005" type="line"/>
      <point x="438.315" y="543.335"/>
      <point x="402.995" y="552.0"/>
      <point x="364.005" y="553.675" type="curve"/>
      <point x="364.005" y="692.665" type="line"/>
      <point x="277.2" y="692.665" type="line"/>
      <point x="277.2" y="548.66" type="line"/>
      <point x="157.885" y="524.3"/>
      <point x="86.23" y="420.975"/>
      <point x="86.23" y="291.005" type="curve" smooth="yes"/>
      <point x="86.23" y="159.69"/>
      <point x="150.875" y="59.36"/>
      <point x="277.2" y="35.005" type="curve"/>
    </contour>
  </outline>
</glyph>
<glyph name="sterling" format="2">
  <advance width="565.0"/>
  <unicode hex="00A3"/>
  <outline>
    <contour>
      <point x="131.25" y="0.0" type="curve"/>
      <point x="521.75" y="0.0" type="line"/>
      <point x="521.75" y="74.0" type="line"/>
      <point x="229.25" y="74.0" type="line"/>
      <point x="240.75" y="145.75"/>
      <point x="245.0" y="223.0"/>
      <point x="245.25" y="293.25" type="curve" smooth="yes"/>
      <point x="245.25" y="300.0" type="line"/>
      <point x="437.5" y="300.0" type="line"/>
      <point x="437.5" y="371.5" type="line"/>
      <point x="245.25" y="371.5" type="line"/>
      <point x="245.25" y="466.5" type="line"/>
      <point x="245.25" y="593.75"/>
      <point x="291.5" y="629.0"/>
      <point x="369.5" y="629.0" type="curve" smooth="yes"/>
      <point x="413.75" y="628.75"/>
      <point x="449.5" y="620.5"/>
      <point x="481.25" y="604.0" type="curve"/>
      <point x="504.0" y="677.5" type="line"/>
      <point x="470.5" y="692.75"/>
      <point x="426.75" y="706.0"/>
      <point x="372.25" y="706.0" type="curve" smooth="yes"/>
      <point x="247.5" y="706.0"/>
      <point x="158.75" y="655.0"/>
      <point x="158.75" y="456.75" type="curve" smooth="yes"/>
      <point x="158.75" y="371.5" type="line"/>
      <point x="65.0" y="371.5" type="line"/>
      <point x="65.0" y="300.0" type="line"/>
      <point x="158.75" y="300.0" type="line"/>
      <point x="158.75" y="291.0" type="line" smooth="yes"/>
      <point x="158.0" y="189.5"/>
      <point x="147.75" y="95.0"/>
    </contour>
  </outline>
</glyph>
<glyph name="currency" format="2">
  <advance width="564.92"/>
  <unicode hex="00A4"/>
  <outline>
    <contour>
      <point x="101.06" y="110.63" type="line"/>
      <point x="176.6" y="187.25" type="line"/>
      <point x="207.14" y="167.32"/>
      <point x="243.3" y="156.16"/>
      <point x="282.46" y="156.16" type="curve" smooth="yes"/>
      <point x="322.08" y="156.16"/>
      <point x="357.78" y="167.32"/>
      <point x="388.09" y="187.25" type="curve"/>
      <point x="463.63" y="110.63" type="line"/>
      <point x="516.05" y="163.36" type="line"/>
      <point x="442.51" y="237.75" type="line"/>
      <point x="462.67" y="267.6"/>
      <point x="474.29" y="305.3"/>
      <point x="474.29" y="347.0" type="curve" smooth="yes"/>
      <point x="474.29" y="388.7"/>
      <point x="462.67" y="426.4"/>
      <point x="442.51" y="456.25" type="curve"/>
      <point x="516.05" y="530.64" type="line"/>
      <point x="463.86" y="583.14" type="line"/>
      <point x="388.32" y="506.75" type="line"/>
      <point x="357.78" y="526.68"/>
      <point x="321.62" y="537.84"/>
      <point x="282.46" y="537.84" type="curve" smooth="yes"/>
      <point x="242.84" y="537.84"/>
      <point x="207.14" y="526.68"/>
      <point x="176.83" y="506.75" type="curve"/>
      <point x="101.29" y="583.37" type="line"/>
      <point x="48.87" y="530.64" type="line"/>
      <point x="122.41" y="456.25" type="line"/>
      <point x="102.25" y="426.4"/>
      <point x="90.63" y="388.7"/>
      <point x="90.63" y="347.0" type="curve" smooth="yes"/>
      <point x="90.63" y="305.3"/>
      <point x="102.25" y="267.6"/>
      <point x="122.41" y="237.75" type="curve"/>
      <point x="48.87" y="163.13" type="line"/>
    </contour>
    <contour>
      <point x="282.46" y="222.27" type="curve" smooth="yes"/>
      <point x="216.67" y="222.27"/>
      <point x="164.27" y="271.52"/>
      <point x="164.27" y="347.0" type="curve" smooth="yes"/>
      <point x="164.27" y="422.48"/>
      <point x="216.67" y="471.73"/>
      <point x="282.46" y="471.73" type="curve" smooth="yes"/>
      <point x="348.25" y="471.73"/>
      <point x="400.65" y="422.48"/>
      <point x="400.65" y="347.0" type="curve" smooth="yes"/>
      <point x="400.65" y="271.52"/>
      <point x="348.25" y="222.27"/>
    </contour>
  </outline>
</glyph>
<glyph name="yen" format="2">
  <advance width="565.0"/>
  <unicode hex="00A5"/>
  <outline>
    <contour>
      <point x="239.75" y="0.0" type="line"/>
      <point x="326.25" y="0.0" type="line"/>
      <point x="326.25" y="114.0" type="line"/>
      <point x="485.5" y="114.0" type="line"/>
      <point x="485.5" y="178.5" type="line"/>
      <point x="326.25" y="178.5" type="line"/>
      <point x="326.25" y="284.0" type="line"/>
      <point x="485.5" y="284.0" type="line"/>
      <point x="485.5" y="348.5" type="line"/>
      <point x="347.25" y="348.5" type="line"/>
      <point x="421.75" y="467.75"/>
      <point x="487.5" y="581.0"/>
      <point x="543.0" y="693.0" type="curve"/>
      <point x="451.25" y="693.0" type="line"/>
      <point x="402.25" y="588.25"/>
      <point x="346.0" y="480.75"/>
      <point x="284.75" y="383.0" type="curve"/>
      <point x="222.5" y="480.75"/>
      <point x="165.5" y="587.5"/>
      <point x="116.25" y="693.0" type="curve"/>
      <point x="22.0" y="693.0" type="line"/>
      <point x="74.75" y="584.5"/>
      <point x="144.0" y="466.0"/>
      <point x="217.25" y="348.5" type="curve"/>
      <point x="80.5" y="348.5" type="line"/>
      <point x="80.5" y="284.0" type="line"/>
      <point x="239.75" y="284.0" type="line"/>
      <point x="239.75" y="178.5" type="line"/>
      <point x="80.5" y="178.5" type="line"/>
      <point x="80.5" y="114.0" type="line"/>
      <point x="239.75" y="114.0" type="line"/>
    </contour>
  </outline>
</glyph>
<glyph name="brokenbar" format="2">
  <advance width="271.2"/>
  <unicode hex="00A6"/>
  <outline>
    <contour>
      <point x="95.4" y="402.17" type="line"/>
      <point x="175.8" y="402.17" type="line"/>
      <point x="175.8" y="783.0" type="line"/>
      <point x="95.4" y="783.0" type="line"/>
    </contour>
    <contour>
      <point x="95.4" y="-185.0" type="line"/>
      <point x="175.8" y="-185.0" type="line"/>
      <point x="175.8" y="195.83" type="line"/>
      <point x="95.4" y="195.83" type="line"/>
    </contour>
  </outline>
</glyph>
<glyph name="section" format="2">
  <advance width="493.055"/>
  <unicode hex="00A7"/>
  <outline>
    <contour>
      <point x="225.725" y="-109.0" type="curve" smooth="yes"/>
      <point x="353.1" y="-109.0"/>
      <point x="429.09" y="-57.66"/>
      <point x="429.09" y="42.695" type="curve" smooth="yes"/>
      <point x="429.09" y="91.695"/>
      <point x="406.44" y="131.35"/>
      <point x="363.445" y="159.025" type="curve"/>
      <point x="411.44" y="190.715"/>
      <point x="452.075" y="235.68"/>
      <point x="452.075" y="300.0" type="curve" smooth="yes"/>
      <point x="452.075" y="410.995"/>
      <point x="369.77" y="444.01"/>
      <point x="272.72" y="476.03" type="curve" smooth="yes"/>
      <point x="197.425" y="500.02"/>
      <point x="169.78" y="521.0"/>
      <point x="169.78" y="566.955" type="curve"/>
      <point x="169.78" y="611.235"/>
      <point x="207.73" y="632.21"/>
      <point x="268.04" y="632.21" type="curve" smooth="yes"/>
      <point x="332.03" y="632.21"/>
      <point x="374.365" y="617.22"/>
      <point x="403.4" y="604.205" type="curve"/>
      <point x="426.435" y="679.65" type="line"/>
      <point x="395.715" y="692.005"/>
      <point x="342.675" y="708.335"/>
      <point x="269.04" y="708.335" type="curve" smooth="yes"/>
      <point x="145.33" y="708.335"/>
      <point x="78.635" y="650.995"/>
      <point x="78.635" y="558.635" type="curve" smooth="yes"/>
      <point x="78.635" y="513.655"/>
      <point x="96.63" y="481.655"/>
      <point x="133.95" y="453.325" type="curve"/>
      <point x="92.28" y="424.295"/>
      <point x="43.65" y="380.31"/>
      <point x="43.65" y="308.665" type="curve" smooth="yes"/>
      <point x="43.65" y="197.31"/>
      <point x="123.99" y="165.965"/>
      <point x="221.675" y="132.96" type="curve" smooth="yes"/>
      <point x="306.31" y="104.305"/>
      <point x="337.28" y="83.995"/>
      <point x="337.28" y="37.045" type="curve" smooth="yes"/>
      <point x="337.28" y="-12.899999999999999"/>
      <point x="290.0" y="-32.875"/>
      <point x="227.7" y="-32.875" type="curve"/>
      <point x="151.38" y="-32.875"/>
      <point x="113.7" y="-18.544999999999998"/>
      <point x="69.655" y="-0.5299999999999976" type="curve"/>
      <point x="46.62" y="-74.31" type="line"/>
      <point x="82.315" y="-91.66"/>
      <point x="138.685" y="-109.0"/>
    </contour>
    <contour>
      <point x="299.685" y="190.735" type="curve"/>
      <point x="288.34" y="195.405"/>
      <point x="272.01" y="201.07"/>
      <point x="258.675" y="205.405" type="curve"/>
      <point x="183.71" y="231.065"/>
      <point x="129.77" y="253.06"/>
      <point x="129.77" y="317.67" type="curve" smooth="yes"/>
      <point x="129.77" y="362.615"/>
      <point x="158.405" y="394.26"/>
      <point x="196.03" y="416.585" type="curve"/>
      <point x="205.04" y="413.25"/>
      <point x="219.035" y="408.25"/>
      <point x="232.695" y="403.585" type="curve" smooth="yes"/>
      <point x="303.685" y="379.25"/>
      <point x="364.615" y="356.26"/>
      <point x="364.615" y="290.98" type="curve" smooth="yes"/>
      <point x="364.615" y="252.02"/>
      <point x="340.635" y="213.725"/>
    </contour>
  </outline>
</glyph>
<glyph name="dieresis" format="2">
  <advance width="429.6"/>
  <unicode hex="00A8"/>
  <outline>
    <contour>
      <point x="309.175" y="617.295" type="curve" smooth="yes"/>
      <point x="340.2" y="617.295"/>
      <point x="365.56" y="639.645"/>
      <point x="365.56" y="674.675" type="curve" smooth="yes"/>
      <point x="365.56" y="709.705"/>
      <point x="340.2" y="732.055"/>
      <point x="309.175" y="732.055" type="curve" smooth="yes"/>
      <point x="278.15" y="732.055"/>
      <point x="252.79" y="709.705"/>
      <point x="252.79" y="674.675" type="curve" smooth="yes"/>
      <point x="252.79" y="639.645"/>
      <point x="278.15" y="617.295"/>
    </contour>
    <contour>
      <point x="120.09" y="617.295" type="curve" smooth="yes"/>
      <point x="151.115" y="617.295"/>
      <point x="176.475" y="639.645"/>
      <point x="176.475" y="674.675" type="curve" smooth="yes"/>
      <point x="176.475" y="709.705"/>
      <point x="151.115" y="732.055"/>
      <point x="120.09" y="732.055" type="curve" smooth="yes"/>
      <point x="89.065" y="732.055"/>
      <point x="63.705" y="709.705"/>
      <point x="63.705" y="674.675" type="curve" smooth="yes"/>
      <point x="63.705" y="639.645"/>
      <point x="89.065" y="617.295"/>
    </contour>
  </outline>
</glyph>
<glyph name="copyright" format="2">
  <advance width="818.5"/>
  <unicode hex="00A9"/>
  <outline>
    <contour>
      <point x="409.25" y="-15.0" type="curve" smooth="yes"/>
      <point x="589.5" y="-15.0"/>
      <point x="750.5" y="119.0"/>
      <point x="750.5" y="347.0" type="curve"/>
      <point x="750.5" y="575.0"/>
      <point x="589.5" y="708.25"/>
      <point x="409.25" y="708.25" type="curve"/>
      <point x="229.0" y="708.25"/>
      <point x="68.0" y="575.0"/>
      <point x="68.0" y="347.0" type="curve" smooth="yes"/>
      <point x="68.0" y="119.0"/>
      <point x="229.0" y="-15.0"/>
    </contour>
    <contour>
      <point x="417.0" y="146.5" type="curve"/>
      <point x="480.75" y="146.5"/>
      <point x="526.0" y="167.75"/>
      <point x="543.0" y="177.5" type="curve"/>
      <point x="523.25" y="236.25" type="line"/>
      <point x="506.75" y="227.5"/>
      <point x="477.25" y="211.75"/>
      <point x="424.5" y="211.75" type="curve" smooth="yes"/>
      <point x="348.75" y="211.75"/>
      <point x="307.25" y="264.25"/>
      <point x="307.25" y="349.5" type="curve" smooth="yes"/>
      <point x="307.25" y="434.0"/>
      <point x="355.75" y="482.5"/>
      <point x="421.5" y="482.5" type="curve" smooth="yes"/>
      <point x="470.5" y="482.5"/>
      <point x="497.5" y="468.5"/>
      <point x="517.25" y="457.5" type="curve"/>
      <point x="539.5" y="513.25" type="line"/>
      <point x="524.5" y="523.5"/>
      <point x="484.0" y="547.5"/>
      <point x="419.25" y="547.5" type="curve" smooth="yes"/>
      <point x="318.75" y="547.5"/>
      <point x="233.25" y="474.25"/>
      <point x="233.25" y="348.25" type="curve" smooth="yes"/>
      <point x="233.25" y="219.75"/>
      <point x="309.25" y="146.5"/>
    </contour>
    <contour>
      <point x="409.25" y="48.75" type="curve" smooth="yes"/>
      <point x="250.75" y="48.75"/>
      <point x="137.75" y="168.25"/>
      <point x="137.75" y="347.0" type="curve"/>
      <point x="137.75" y="525.75"/>
      <point x="250.75" y="644.5"/>
      <point x="409.25" y="644.5" type="curve" smooth="yes"/>
      <point x="567.75" y="644.5"/>
      <point x="680.75" y="525.75"/>
      <point x="680.75" y="347.0" type="curve"/>
      <point x="680.75" y="168.25"/>
      <point x="567.75" y="48.75"/>
    </contour>
  </outline>
</glyph>
<glyph name="ordfeminine" format="2">
  <advance width="388.99"/>
  <unicode hex="00AA"/>
  <outline>
    <contour>
      <point x="195.31" y="326.48" type="curve" smooth="yes"/>
      <point x="240.74" y="326.48"/>
      <point x="299.97" y="334.09"/>
      <point x="332.51" y="341.86" type="curve"/>
      <point x="332.51" y="568.09" type="line" smooth="yes"/>
      <point x="332.51" y="650.0"/>
      <point x="295.13" y="704.92"/>
      <point x="189.46" y="704.92" type="curve" smooth="yes"/>
      <point x="145.08" y="704.92"/>
      <point x="103.48" y="697.23"/>
      <point x="80.79" y="690.0" type="curve"/>
      <point x="89.63" y="634.11" type="line"/>
      <point x="116.63" y="643.11"/>
      <point x="151.24" y="646.8"/>
      <point x="186.7" y="646.8" type="curve" smooth="yes"/>
      <point x="257.87" y="646.8"/>
      <point x="266.32" y="601.7"/>
      <point x="266.32" y="557.0" type="curve" smooth="yes"/>
      <point x="266.32" y="547.77" type="line"/>
      <point x="242.85" y="552.31"/>
      <point x="217.77" y="555.31"/>
      <point x="200.01" y="555.31" type="curve" smooth="yes"/>
      <point x="113.32" y="555.31"/>
      <point x="40.94" y="524.0"/>
      <point x="40.94" y="440.93" type="curve" smooth="yes"/>
      <point x="40.94" y="360.25"/>
      <point x="102.63" y="326.48"/>
    </contour>
    <contour>
      <point x="196.15" y="382.22" type="curve" smooth="yes"/>
      <point x="132.51" y="382.22"/>
      <point x="109.05" y="403.54"/>
      <point x="109.05" y="444.7" type="curve" smooth="yes"/>
      <point x="109.05" y="490.48"/>
      <point x="153.06" y="502.87"/>
      <point x="206.15" y="502.87" type="curve" smooth="yes"/>
      <point x="228.08" y="502.87"/>
      <point x="251.16" y="500.1"/>
      <point x="266.32" y="497.1" type="curve"/>
      <point x="266.32" y="386.76" type="line"/>
      <point x="252.78" y="384.99"/>
      <point x="223.31" y="382.22"/>
    </contour>
  </outline>
</glyph>
<glyph name="logicalnot" format="2">
  <advance width="565.34"/>
  <unicode hex="00AC"/>
  <outline>
    <contour>
      <point x="427.89" y="49.005" type="line"/>
      <point x="512.02" y="49.005" type="line"/>
      <point x="512.02" y="390.05" type="line"/>
      <point x="53.99" y="390.05" type="line"/>
      <point x="53.99" y="310.935" type="line"/>
      <point x="427.89" y="310.935" type="line"/>
    </contour>
  </outline>
</glyph>
<glyph name="registered" format="2">
  <advance width="818.5"/>
  <unicode hex="00AE"/>
  <outline>
    <contour>
      <point x="409.25" y="-15.0" type="curve" smooth="yes"/>
      <point x="589.5" y="-15.0"/>
      <point x="750.5" y="119.0"/>
      <point x="750.5" y="347.0" type="curve" smooth="yes"/>
      <point x="750.5" y="575.0"/>
      <point x="589.5" y="708.25"/>
      <point x="409.25" y="708.25" type="curve" smooth="yes"/>
      <point x="229.0" y="708.25"/>
      <point x="68.0" y="575.0"/>
      <point x="68.0" y="347.0" type="curve" smooth="yes"/>
      <point x="68.0" y="119.0"/>
      <point x="229.0" y="-15.0"/>
    </contour>
    <contour>
      <point x="409.25" y="48.75" type="curve" smooth="yes"/>
      <point x="250.75" y="48.75"/>
      <point x="137.75" y="168.25"/>
      <point x="137.75" y="347.0" type="curve" smooth="yes"/>
      <point x="137.75" y="525.75"/>
      <point x="250.75" y="644.5"/>
      <point x="409.25" y="644.5" type="curve" smooth="yes"/>
      <point x="567.75" y="644.5"/>
      <point x="680.75" y="525.75"/>
      <point x="680.75" y="347.0" type="curve" smooth="yes"/>
      <point x="680.75" y="168.25"/>
      <point x="567.75" y="48.75"/>
    </contour>
    <contour>
      <point x="273.5" y="156.0" type="line"/>
      <point x="339.0" y="156.0" type="line"/>
      <point x="339.0" y="302.5" type="line"/>
      <point x="392.75" y="302.5" type="line"/>
      <point x="398.5" y="302.5"/>
      <point x="406.25" y="302.5"/>
      <point x="414.25" y="303.25" type="curve"/>
      <point x="440.25" y="270.75"/>
      <point x="474.25" y="215.25"/>
      <point x="505.5" y="156.0" type="curve"/>
      <point x="576.75" y="156.0" type="line"/>
      <point x="547.5" y="217.75"/>
      <point x="503.0" y="288.0"/>
      <point x="479.0" y="316.75" type="curve"/>
      <point x="526.75" y="335.75"/>
      <point x="551.75" y="373.75"/>
      <point x="551.75" y="419.75" type="curve" smooth="yes"/>
      <point x="551.75" y="502.25"/>
      <point x="492.5" y="543.75"/>
      <point x="381.0" y="543.75" type="curve" smooth="yes"/>
      <point x="349.0" y="543.75"/>
      <point x="307.25" y="539.75"/>
      <point x="273.5" y="531.75" type="curve"/>
    </contour>
    <contour>
      <point x="339.0" y="355.75" type="line"/>
      <point x="339.0" y="484.75" type="line"/>
      <point x="351.25" y="485.75"/>
      <point x="368.25" y="486.75"/>
      <point x="385.5" y="486.75" type="curve" smooth="yes"/>
      <point x="438.0" y="486.75"/>
      <point x="483.25" y="470.25"/>
      <point x="483.25" y="420.75" type="curve" smooth="yes"/>
      <point x="483.25" y="368.5"/>
      <point x="441.25" y="355.75"/>
      <point x="381.0" y="355.75" type="curve" smooth="yes"/>
    </contour>
  </outline>
</glyph>
<glyph name="macron" format="2">
  <advance width="376.0"/>
  <unicode hex="00AF"/>
  <outline>
    <contour>
      <point x="46.285" y="640.29" type="line"/>
      <point x="330.38" y="640.29" type="line"/>
      <point x="330.38" y="711.035" type="line"/>
      <point x="46.285" y="711.035" type="line"/>
    </contour>
  </outline>
</glyph>
<glyph name="degree" format="2">
  <advance width="328.35"/>
  <unicode hex="00B0"/>
  <outline>
    <contour>
      <point x="164.06" y="501.8" type="curve"/>
      <point x="237.74" y="501.8"/>
      <point x="301.19" y="552.33"/>
      <point x="301.19" y="638.32" type="curve"/>
      <point x="301.19" y="724.31"/>
      <point x="237.74" y="774.84"/>
      <point x="164.06" y="774.84" type="curve" smooth="yes"/>
      <point x="90.38" y="774.84"/>
      <point x="26.93" y="724.31"/>
      <point x="26.93" y="638.32" type="curve" smooth="yes"/>
      <point x="26.93" y="552.33"/>
      <point x="90.38" y="501.8"/>
    </contour>
    <contour>
      <point x="164.06" y="558.99" type="curve"/>
      <point x="122.2" y="558.99"/>
      <point x="88.27" y="589.46"/>
      <point x="88.27" y="638.32" type="curve" smooth="yes"/>
      <point x="88.27" y="687.18"/>
      <point x="122.2" y="717.65"/>
      <point x="164.06" y="717.65" type="curve"/>
      <point x="205.92" y="717.65"/>
      <point x="239.85" y="687.18"/>
      <point x="239.85" y="638.32" type="curve" smooth="yes"/>
      <point x="239.85" y="589.46"/>
      <point x="205.92" y="558.99"/>
    </contour>
  </outline>
</glyph>
<glyph name="plusminus" format="2">
  <advance width="565.0"/>
  <unicode hex="00B1"/>
  <outline>
    <contour>
      <point x="243.75" y="136.0" type="line"/>
      <point x="321.25" y="136.0" type="line"/>
      <point x="321.25" y="341.25" type="line"/>
      <point x="510.75" y="341.25" type="line"/>
      <point x="510.75" y="414.5" type="line"/>
      <point x="321.25" y="414.5" type="line"/>
      <point x="321.25" y="619.75" type="line"/>
      <point x="243.75" y="619.75" type="line"/>
      <point x="243.75" y="414.5" type="line"/>
      <point x="54.25" y="414.5" type="line"/>
      <point x="54.25" y="341.25" type="line"/>
      <point x="243.75" y="341.25" type="line"/>
    </contour>
    <contour>
      <point x="54.25" y="0.0" type="line"/>
      <point x="510.75" y="0.0" type="line"/>
      <point x="510.75" y="73.25" type="line"/>
      <point x="54.25" y="73.25" type="line"/>
    </contour>
  </outline>
</glyph>
<glyph name="twosuperior" format="2">
  <advance width="360.0"/>
  <unicode hex="00B2"/>
  <outline>
    <contour>
      <point x="50.0" y="313.25" type="curve"/>
      <point x="307.75" y="313.25" type="line"/>
      <point x="307.75" y="372.0" type="line"/>
      <point x="125.5" y="372.0" type="line"/>
      <point x="129.25" y="395.0"/>
      <point x="147.75" y="420.75"/>
      <point x="205.25" y="467.5" type="curve"/>
      <point x="249.25" y="503.25"/>
      <point x="291.0" y="539.0"/>
      <point x="291.0" y="596.5" type="curve"/>
      <point x="291.0" y="668.5"/>
      <point x="248.0" y="708.25"/>
      <point x="166.5" y="708.25" type="curve" smooth="yes"/>
      <point x="107.25" y="708.25"/>
      <point x="62.25" y="682.0"/>
      <point x="36.25" y="656.75" type="curve"/>
      <point x="69.5" y="608.75" type="line"/>
      <point x="83.5" y="621.75"/>
      <point x="118.75" y="647.25"/>
      <point x="161.5" y="647.25" type="curve" smooth="yes"/>
      <point x="194.25" y="647.25"/>
      <point x="220.5" y="633.5"/>
      <point x="220.5" y="595.5" type="curve" smooth="yes"/>
      <point x="220.5" y="555.0"/>
      <point x="192.0" y="535.0"/>
      <point x="155.25" y="502.5" type="curve" smooth="yes"/>
      <point x="101.5" y="455.25"/>
      <point x="49.0" y="412.25"/>
      <point x="49.0" y="335.25" type="curve" smooth="yes"/>
      <point x="49.0" y="327.75"/>
      <point x="49.0" y="321.25"/>
    </contour>
  </outline>
</glyph>
<glyph name="threesuperior" format="2">
  <advance width="359.92"/>
  <unicode hex="00B3"/>
  <outline>
    <contour>
      <point x="149.23" y="305.55" type="curve" smooth="yes"/>
      <point x="261.14" y="305.55"/>
      <point x="303.83" y="359.47"/>
      <point x="303.83" y="423.23" type="curve" smooth="yes"/>
      <point x="303.83" y="475.78"/>
      <point x="273.51" y="508.47"/>
      <point x="225.89" y="524.62" type="curve"/>
      <point x="264.59" y="543.23"/>
      <point x="282.52" y="570.54"/>
      <point x="282.52" y="609.32" type="curve" smooth="yes"/>
      <point x="282.52" y="665.47"/>
      <point x="248.52" y="708.23"/>
      <point x="157.46" y="708.23" type="curve" smooth="yes"/>
      <point x="103.3" y="708.23"/>
      <point x="59.85" y="687.92"/>
      <point x="40.71" y="673.85" type="curve"/>
      <point x="64.85" y="623.34" type="line"/>
      <point x="84.38" y="635.57"/>
      <point x="113.84" y="650.65"/>
      <point x="154.08" y="650.65" type="curve" smooth="yes"/>
      <point x="192.32" y="650.65"/>
      <point x="216.56" y="637.34"/>
      <point x="216.56" y="602.48" type="curve" smooth="yes"/>
      <point x="216.56" y="556.92"/>
      <point x="176.08" y="544.92"/>
      <point x="131.22" y="544.92" type="curve" smooth="yes"/>
      <point x="110.24" y="544.92" type="line"/>
      <point x="110.24" y="491.41" type="line"/>
      <point x="129.68" y="491.41" type="line" smooth="yes"/>
      <point x="186.69" y="491.41"/>
      <point x="235.87" y="474.33"/>
      <point x="235.87" y="425.0" type="curve" smooth="yes"/>
      <point x="235.87" y="390.14"/>
      <point x="216.02" y="364.13"/>
      <point x="146.69" y="364.13" type="curve" smooth="yes"/>
      <point x="106.61" y="364.13"/>
      <point x="78.84" y="373.29"/>
      <point x="53.86" y="384.59" type="curve"/>
      <point x="38.56" y="327.93" type="line"/>
      <point x="61.63" y="316.78"/>
      <point x="99.61" y="305.55"/>
    </contour>
  </outline>
</glyph>
<glyph name="acute" format="2">
  <advance width="355.3"/>
  <unicode hex="00B4"/>
  <outline>
    <contour>
      <point x="133.27" y="581.39" type="line"/>
      <point x="302.89" y="720.39" type="line"/>
      <point x="246.54" y="778.98" type="line"/>
      <point x="92.22" y="624.68" type="line"/>
    </contour>
  </outline>
</glyph>
<glyph name="mu" format="2">
  <advance width="579.75"/>
  <unicode hex="00B5"/>
  <outline>
    <contour>
      <point x="82.0" y="-180.25" type="line"/>
      <point x="166.5" y="-180.25" type="line"/>
      <point x="166.5" y="-81.5" type="line" smooth="yes"/>
      <point x="166.5" y="-41.5"/>
      <point x="166.0" y="-1.5"/>
      <point x="161.5" y="36.75" type="curve"/>
      <point x="188.0" y="7.5"/>
      <point x="231.5" y="-10.0"/>
      <point x="296.5" y="-10.0" type="curve" smooth="yes"/>
      <point x="388.0" y="-10.0"/>
      <point x="455.5" y="6.0"/>
      <point x="497.75" y="18.0" type="curve"/>
      <point x="497.75" y="519.25" type="line"/>
      <point x="411.75" y="519.25" type="line"/>
      <point x="411.75" y="77.25" type="line"/>
      <point x="398.0" y="72.75"/>
      <point x="354.25" y="65.5"/>
      <point x="303.25" y="65.5" type="curve" smooth="yes"/>
      <point x="205.5" y="65.5"/>
      <point x="168.0" y="112.25"/>
      <point x="168.0" y="247.0" type="curve" smooth="yes"/>
      <point x="168.0" y="519.25" type="line"/>
      <point x="82.0" y="519.25" type="line"/>
    </contour>
  </outline>
</glyph>
<glyph name="paragraph" format="2">
  <advance width="647.49"/>
  <unicode hex="00B6"/>
  <outline>
    <contour>
      <point x="278.285" y="-185.335" type="line"/>
      <point x="364.425" y="-185.335" type="line"/>
      <point x="364.425" y="619.895" type="line"/>
      <point x="392.095" y="622.555"/>
      <point x="443.4" y="620.89"/>
      <point x="467.72" y="616.56" type="curve"/>
      <point x="467.72" y="-185.335" type="line"/>
      <point x="553.525" y="-185.335" type="line"/>
      <point x="553.525" y="682.315" type="line"/>
      <point x="498.82" y="694.99"/>
      <point x="422.415" y="699.67"/>
      <point x="366.68" y="699.67" type="curve" smooth="yes"/>
      <point x="170.97" y="699.67"/>
      <point x="43.99" y="624.99"/>
      <point x="43.99" y="478.66" type="curve" smooth="yes"/>
      <point x="43.99" y="342.335"/>
      <point x="130.615" y="276.67"/>
      <point x="278.285" y="261.99" type="curve"/>
    </contour>
  </outline>
</glyph>
<glyph name="cedilla" format="2">
  <advance width="364.5"/>
  <unicode hex="00B8"/>
  <outline>
    <contour>
      <point x="160.72" y="-194.82" type="curve" smooth="yes"/>
      <point x="241.41" y="-194.82"/>
      <point x="267.92" y="-154.66"/>
      <point x="267.92" y="-114.53" type="curve" smooth="yes"/>
      <point x="267.92" y="-77.37"/>
      <point x="246.45" y="-54.07"/>
      <point x="208.07" y="-36.92" type="curve"/>
      <point x="214.3" y="-20.92"/>
      <point x="228.3" y="5.0"/>
      <point x="237.07" y="20.0" type="curve"/>
      <point x="178.88" y="20.0" type="line"/>
      <point x="171.11" y="7.23"/>
      <point x="147.11" y="-38.69"/>
      <point x="138.34" y="-65.46" type="curve"/>
      <point x="179.03" y="-80.08"/>
      <point x="195.88" y="-90.23"/>
      <point x="195.65" y="-110.85" type="curve" smooth="yes"/>
      <point x="195.42" y="-129.85"/>
      <point x="180.96" y="-138.93"/>
      <point x="155.8" y="-138.93" type="curve" smooth="yes"/>
      <point x="129.49" y="-138.93"/>
      <point x="109.73" y="-134.78"/>
      <point x="96.11" y="-129.47" type="curve"/>
      <point x="85.81" y="-182.59" type="line"/>
      <point x="101.72" y="-189.05"/>
      <point x="133.26" y="-194.82"/>
    </contour>
  </outline>
</glyph>
<glyph name="onesuperior" format="2">
  <advance width="359.92"/>
  <unicode hex="00B9"/>
  <outline>
    <contour>
      <point x="171.01" y="313.55" type="line"/>
      <point x="238.81" y="313.55" type="line"/>
      <point x="238.81" y="699.46" type="line"/>
      <point x="190.31" y="699.46" type="line"/>
      <point x="155.93" y="663.07"/>
      <point x="104.78" y="635.61"/>
      <point x="55.71" y="619.54" type="curve"/>
      <point x="72.85" y="567.19" type="line"/>
      <point x="96.68" y="573.72"/>
      <point x="141.7" y="590.11"/>
      <point x="171.01" y="609.73" type="curve"/>
    </contour>
  </outline>
</glyph>
<glyph name="ordmasculine" format="2">
  <advance width="442.0"/>
  <unicode hex="00BA"/>
  <outline>
    <contour>
      <point x="220.75" y="324.75" type="curve" smooth="yes"/>
      <point x="324.5" y="324.75"/>
      <point x="399.25" y="400.0"/>
      <point x="399.25" y="515.0" type="curve" smooth="yes"/>
      <point x="399.25" y="630.75"/>
      <point x="324.5" y="706.0"/>
      <point x="220.75" y="706.0" type="curve" smooth="yes"/>
      <point x="117.75" y="706.0"/>
      <point x="42.75" y="630.75"/>
      <point x="42.75" y="515.0" type="curve" smooth="yes"/>
      <point x="42.75" y="400.0"/>
      <point x="117.75" y="324.75"/>
    </contour>
    <contour>
      <point x="220.75" y="386.5" type="curve" smooth="yes"/>
      <point x="156.75" y="386.5"/>
      <point x="115.5" y="437.0"/>
      <point x="115.5" y="515.0" type="curve" smooth="yes"/>
      <point x="115.5" y="593.25"/>
      <point x="157.0" y="644.25"/>
      <point x="220.75" y="644.25" type="curve" smooth="yes"/>
      <point x="285.5" y="644.25"/>
      <point x="326.5" y="593.25"/>
      <point x="326.5" y="515.0" type="curve" smooth="yes"/>
      <point x="326.5" y="437.0"/>
      <point x="285.5" y="386.5"/>
    </contour>
  </outline>
</glyph>
<glyph name="questiondown" format="2">
  <advance width="398.75"/>
  <unicode hex="00BF"/>
  <outline>
    <contour>
      <point x="221.0" y="-188.75" type="curve" smooth="yes"/>
      <point x="286.0" y="-188.75"/>
      <point x="347.0" y="-170.5"/>
      <point x="381.0" y="-150.25" type="curve"/>
      <point x="356.25" y="-81.5" type="line"/>
      <point x="315.5" y="-103.25"/>
      <point x="275.75" y="-113.5"/>
      <point x="230.0" y="-113.5" type="curve" smooth="yes"/>
      <point x="167.75" y="-113.5"/>
      <point x="119.5" y="-91.25"/>
      <point x="119.5" y="-32.25" type="curve"/>
      <point x="119.5" y="70.5"/>
      <point x="272.5" y="124.0"/>
      <point x="272.5" y="253.0" type="curve" smooth="yes"/>
      <point x="272.5" y="266.5"/>
      <point x="271.75" y="278.75"/>
      <point x="268.75" y="291.75" type="curve"/>
      <point x="197.5" y="291.75" type="line"/>
      <point x="198.5" y="284.5"/>
      <point x="198.5" y="280.5"/>
      <point x="198.5" y="273.25" type="curve" smooth="yes"/>
      <point x="198.5" y="145.0"/>
      <point x="28.75" y="98.75"/>
      <point x="28.75" y="-39.0" type="curve" smooth="yes"/>
      <point x="28.75" y="-103.5"/>
      <point x="70.25" y="-188.75"/>
    </contour>
    <contour>
      <point x="227.75" y="390.5" type="curve" smooth="yes"/>
      <point x="265.25" y="390.5"/>
      <point x="292.25" y="417.5"/>
      <point x="292.25" y="454.75" type="curve" smooth="yes"/>
      <point x="292.25" y="492.0"/>
      <point x="265.25" y="519.0"/>
      <point x="227.75" y="519.0" type="curve" smooth="yes"/>
      <point x="190.25" y="519.0"/>
      <point x="163.25" y="492.0"/>
      <point x="163.25" y="454.75" type="curve" smooth="yes"/>
      <point x="163.25" y="417.5"/>
      <point x="190.25" y="390.5"/>
    </contour>
  </outline>
</glyph>
<glyph name="Aring" format="2">
  <advance width="661.0"/>
  <unicode hex="00C5"/>
  <outline>
    <contour>
      <point x="10.0" y="0.0" type="curve"/>
      <point x="103.75" y="0.0" type="line"/>
      <point x="125.5" y="63.0"/>
      <point x="147.5" y="122.25"/>
      <point x="168.25" y="180.0" type="curve"/>
      <point x="488.5" y="180.0" type="line"/>
      <point x="508.5" y="122.25"/>
      <point x="530.5" y="63.0"/>
      <point x="553.0" y="0.0" type="curve"/>
      <point x="651.0" y="0.0" type="line"/>
      <point x="549.0" y="276.75"/>
      <point x="475.0" y="471.25"/>
      <point x="385.5" y="662.75" type="curve"/>
      <point x="412.25" y="679.5"/>
      <point x="431.0" y="709.25"/>
      <point x="431.0" y="748.25" type="curve" smooth="yes"/>
      <point x="431.0" y="809.75"/>
      <point x="384.25" y="848.25"/>
      <point x="330.0" y="848.25" type="curve" smooth="yes"/>
      <point x="275.75" y="848.25"/>
      <point x="228.75" y="809.75"/>
      <point x="228.75" y="748.25" type="curve" smooth="yes"/>
      <point x="228.75" y="709.25"/>
      <point x="246.5" y="679.75"/>
      <point x="274.0" y="662.75" type="curve"/>
      <point x="184.0" y="471.5"/>
      <point x="110.25" y="276.75"/>
    </contour>
    <contour>
      <point x="193.0" y="254.5" type="line"/>
      <point x="241.25" y="386.5"/>
      <point x="286.25" y="499.75"/>
      <point x="327.75" y="595.25" type="curve"/>
      <point x="370.0" y="499.75"/>
      <point x="414.5" y="386.5"/>
      <point x="463.5" y="254.5" type="curve"/>
    </contour>
    <contour>
      <point x="330.0" y="692.25" type="curve" smooth="yes"/>
      <point x="300.25" y="692.25"/>
      <point x="276.0" y="712.0"/>
      <point x="276.0" y="748.25" type="curve" smooth="yes"/>
      <point x="276.0" y="783.75"/>
      <point x="300.25" y="804.25"/>
      <point x="330.0" y="804.25" type="curve" smooth="yes"/>
      <point x="360.0" y="804.25"/>
      <point x="384.25" y="783.75"/>
      <point x="384.25" y="748.25" type="curve" smooth="yes"/>
      <point x="384.25" y="712.0"/>
      <point x="360.0" y="692.25"/>
    </contour>
  </outline>
</glyph>
<glyph name="AE" format="2">
  <advance width="934.75"/>
  <unicode hex="00C6"/>
  <anchor x="467.75" y="0.0" name="bottom"/>
  <anchor x="467.75" y="693.0" name="top"/>
  <outline>
    <contour>
      <point x="7.0" y="0.0" type="curve"/>
      <point x="102.25" y="0.0" type="line"/>
      <point x="132.25" y="60.75"/>
      <point x="167.0" y="123.5"/>
      <point x="200.25" y="183.5" type="curve"/>
      <point x="470.5" y="183.5" type="line"/>
      <point x="470.5" y="0.0" type="line"/>
      <point x="896.75" y="0.0" type="line"/>
      <point x="896.75" y="77.0" type="line"/>
      <point x="559.25" y="77.0" type="line"/>
      <point x="559.25" y="325.75" type="line"/>
      <point x="835.75" y="325.75" type="line"/>
      <point x="835.75" y="401.25" type="line"/>
      <point x="559.25" y="401.25" type="line"/>
      <point x="559.25" y="616.0" type="line"/>
      <point x="871.5" y="616.0" type="line"/>
      <point x="871.5" y="693.0" type="line"/>
      <point x="433.75" y="693.0" type="line"/>
      <point x="295.25" y="501.5"/>
      <point x="156.5" y="286.75"/>
    </contour>
    <contour>
      <point x="240.75" y="258.0" type="line"/>
      <point x="310.75" y="378.75"/>
      <point x="390.75" y="505.75"/>
      <point x="470.5" y="613.25" type="curve"/>
      <point x="470.5" y="258.0" type="line"/>
    </contour>
  </outline>
</glyph>
<glyph name="Ccedilla" format="2">
  <advance width="618.75"/>
  <unicode hex="00C7"/>
  <outline>
    <contour>
      <point x="329.75" y="-195.5" type="curve" smooth="yes"/>
      <point x="410.5" y="-195.5"/>
      <point x="437.75" y="-155.5"/>
      <point x="437.75" y="-114.75" type="curve" smooth="yes"/>
      <point x="437.75" y="-77.75"/>
      <point x="416.5" y="-54.25"/>
      <point x="378.0" y="-37.0" type="curve"/>
      <point x="380.5" y="-30.25"/>
      <point x="383.75" y="-22.0"/>
      <point x="387.75" y="-14.5" type="curve"/>
      <point x="389.5" y="-14.5"/>
      <point x="390.25" y="-14.5"/>
      <point x="392.0" y="-14.5" type="curve" smooth="yes"/>
      <point x="497.25" y="-13.25"/>
      <point x="568.75" y="14.0"/>
      <point x="592.75" y="29.0" type="curve"/>
      <point x="567.75" y="103.75" type="line"/>
      <point x="536.0" y="87.0"/>
      <point x="479.5" y="65.5"/>
      <point x="390.5" y="65.5" type="curve" smooth="yes"/>
      <point x="234.25" y="65.5"/>
      <point x="153.5" y="177.75"/>
      <point x="153.5" y="347.0" type="curve" smooth="yes"/>
      <point x="153.5" y="520.5"/>
      <point x="243.5" y="628.0"/>
      <point x="396.75" y="628.0" type="curve" smooth="yes"/>
      <point x="471.0" y="628.0"/>
      <point x="523.25" y="605.5"/>
      <point x="558.75" y="584.75" type="curve"/>
      <point x="586.5" y="660.5" type="line"/>
      <point x="563.0" y="675.0"/>
      <point x="495.0" y="708.25"/>
      <point x="387.5" y="708.25" type="curve" smooth="yes"/>
      <point x="210.75" y="708.25"/>
      <point x="59.0" y="579.25"/>
      <point x="59.0" y="347.0" type="curve" smooth="yes"/>
      <point x="59.0" y="135.75"/>
      <point x="168.0" y="10.75"/>
      <point x="330.25" y="-10.75" type="curve"/>
      <point x="321.5" y="-29.0"/>
      <point x="312.25" y="-50.25"/>
      <point x="307.25" y="-65.5" type="curve"/>
      <point x="348.0" y="-79.5"/>
      <point x="364.75" y="-90.25"/>
      <point x="364.5" y="-110.75" type="curve" smooth="yes"/>
      <point x="364.25" y="-129.75"/>
      <point x="349.75" y="-138.75"/>
      <point x="324.75" y="-138.75" type="curve" smooth="yes"/>
      <point x="298.5" y="-138.75"/>
      <point x="278.5" y="-134.5"/>
      <point x="265.0" y="-129.25" type="curve"/>
      <point x="254.5" y="-183.25" type="line"/>
      <point x="270.75" y="-189.75"/>
      <point x="302.25" y="-195.5"/>
    </contour>
  </outline>
</glyph>
<glyph name="Eth" format="2">
  <advance width="726.72"/>
  <unicode hex="00D0"/>
  <outline>
    <contour>
      <point x="281.71" y="-7.005" type="curve" smooth="yes"/>
      <point x="512.745" y="-7.005"/>
      <point x="668.74" y="109.66"/>
      <point x="668.74" y="347.0" type="curve" smooth="yes"/>
      <point x="668.74" y="587.36"/>
      <point x="511.74" y="699.67"/>
      <point x="283.385" y="699.67" type="curve" smooth="yes"/>
      <point x="227.385" y="699.67"/>
      <point x="154.355" y="694.34"/>
      <point x="99.645" y="681.34" type="curve"/>
      <point x="99.645" y="399.045" type="line"/>
      <point x="19.31" y="399.045" type="line"/>
      <point x="19.31" y="323.945" type="line"/>
      <point x="99.645" y="323.945" type="line"/>
      <point x="99.645" y="10.995" type="line"/>
      <point x="154.355" y="-2.0100000000000002"/>
      <point x="225.71" y="-7.005"/>
    </contour>
    <contour>
      <point x="289.71" y="77.12" type="curve" smooth="yes"/>
      <point x="232.785" y="77.12"/>
      <point x="207.47" y="81.445"/>
      <point x="197.125" y="82.445" type="curve"/>
      <point x="197.125" y="323.945" type="line"/>
      <point x="327.115" y="323.945" type="line"/>
      <point x="327.115" y="399.045" type="line"/>
      <point x="197.125" y="399.045" type="line"/>
      <point x="197.125" y="610.22" type="line"/>
      <point x="209.145" y="611.89"/>
      <point x="236.47" y="615.88"/>
      <point x="291.385" y="615.88" type="curve" smooth="yes"/>
      <point x="475.98" y="615.88"/>
      <point x="566.925" y="515.94"/>
      <point x="566.925" y="347.0" type="curve" smooth="yes"/>
      <point x="566.925" y="179.405"/>
      <point x="474.305" y="77.12"/>
    </contour>
  </outline>
</glyph>
<glyph name="multiply" format="2">
  <advance width="565.34"/>
  <unicode hex="00D7"/>
  <outline>
    <contour>
      <point x="135.7" y="90.3" type="line"/>
      <point x="282.67" y="238.27" type="line"/>
      <point x="429.975" y="90.3" type="line"/>
      <point x="485.055" y="145.38" type="line"/>
      <point x="337.085" y="292.35" type="line"/>
      <point x="485.055" y="439.655" type="line"/>
      <point x="429.975" y="494.735" type="line"/>
      <point x="282.67" y="346.765" type="line"/>
      <point x="135.7" y="494.735" type="line"/>
      <point x="80.62" y="439.655" type="line"/>
      <point x="228.59" y="292.35" type="line"/>
      <point x="80.62" y="145.38" type="line"/>
    </contour>
  </outline>
</glyph>
<glyph name="Oslash" format="2">
  <advance width="778.0"/>
  <unicode hex="00D8"/>
  <anchor x="389.0" y="0.0" name="bottom"/>
  <anchor x="389.0" y="693.0" name="top"/>
  <outline>
    <contour>
      <point x="139.0" y="-36.75" type="line"/>
      <point x="199.25" y="42.0" type="line"/>
      <point x="253.5" y="3.5"/>
      <point x="319.0" y="-14.75"/>
      <point x="389.0" y="-14.75" type="curve" smooth="yes"/>
      <point x="569.25" y="-14.75"/>
      <point x="719.0" y="109.25"/>
      <point x="719.0" y="347.0" type="curve" smooth="yes"/>
      <point x="719.0" y="457.25"/>
      <point x="686.25" y="542.75"/>
      <point x="633.25" y="602.75" type="curve"/>
      <point x="699.0" y="687.75" type="line"/>
      <point x="641.75" y="730.5" type="line"/>
      <point x="579.75" y="650.0" type="line"/>
      <point x="525.25" y="688.75"/>
      <point x="459.5" y="708.25"/>
      <point x="389.0" y="708.25" type="curve" smooth="yes"/>
      <point x="211.75" y="708.25"/>
      <point x="59.0" y="584.75"/>
      <point x="59.0" y="347.0" type="curve" smooth="yes"/>
      <point x="59.0" y="235.25"/>
      <point x="91.5" y="148.5"/>
      <point x="145.75" y="88.5" type="curve"/>
      <point x="81.75" y="6.0" type="line"/>
    </contour>
    <contour>
      <point x="202.5" y="161.75" type="line"/>
      <point x="171.0" y="208.5"/>
      <point x="153.25" y="271.75"/>
      <point x="153.25" y="347.0" type="curve" smooth="yes"/>
      <point x="153.25" y="519.75"/>
      <point x="244.5" y="628.25"/>
      <point x="389.0" y="628.25" type="curve" smooth="yes"/>
      <point x="443.75" y="628.25"/>
      <point x="490.25" y="612.25"/>
      <point x="528.25" y="583.0" type="curve"/>
    </contour>
    <contour>
      <point x="389.0" y="65.25" type="curve" smooth="yes"/>
      <point x="335.0" y="65.25"/>
      <point x="288.25" y="79.75"/>
      <point x="250.75" y="108.25" type="curve"/>
      <point x="576.75" y="530.0" type="line"/>
      <point x="607.75" y="483.25"/>
      <point x="624.75" y="421.25"/>
      <point x="624.75" y="347.0" type="curve" smooth="yes"/>
      <point x="624.75" y="173.75"/>
      <point x="533.5" y="65.25"/>
    </contour>
  </outline>
</glyph>
<glyph name="Thorn" format="2">
  <advance width="610.085"/>
  <unicode hex="00DE"/>
  <anchor x="305.375" y="0.0" name="bottom"/>
  <anchor x="305.375" y="693.0" name="top"/>
  <outline>
    <contour>
      <point x="86.65" y="0.0" type="line"/>
      <point x="184.13" y="0.0" type="line"/>
      <point x="184.13" y="139.305" type="line"/>
      <point x="263.055" y="139.305" type="line" smooth="yes"/>
      <point x="458.42" y="139.305"/>
      <point x="573.755" y="200.99"/>
      <point x="573.755" y="362.005" type="curve" smooth="yes"/>
      <point x="573.755" y="508.725"/>
      <point x="468.375" y="582.7"/>
      <point x="278.075" y="582.7" type="curve" smooth="yes"/>
      <point x="250.77" y="582.7"/>
      <point x="205.125" y="580.705"/>
      <point x="184.13" y="577.705" type="curve"/>
      <point x="184.13" y="693.0" type="line"/>
      <point x="86.65" y="693.0" type="line"/>
    </contour>
    <contour>
      <point x="184.13" y="223.095" type="line"/>
      <point x="184.13" y="494.25" type="line"/>
      <point x="204.785" y="496.58"/>
      <point x="237.095" y="499.245"/>
      <point x="276.72" y="499.245" type="curve" smooth="yes"/>
      <point x="382.02" y="499.245"/>
      <point x="472.605" y="469.93"/>
      <point x="472.605" y="363.005" type="curve" smooth="yes"/>
      <point x="472.605" y="250.42000000000002"/>
      <point x="391.005" y="223.095"/>
      <point x="257.735" y="223.095" type="curve" smooth="yes"/>
    </contour>
  </outline>
</glyph>
<glyph name="germandbls" format="2">
  <advance width="610.49"/>
  <unicode hex="00DF"/>
  <anchor x="305.36" y="0.0" name="bottom"/>
  <anchor x="305.36" y="776.0" name="top"/>
  <outline>
    <contour>
      <point x="378.43" y="-12.0" type="curve" smooth="yes"/>
      <point x="505.56" y="-12.0"/>
      <point x="575.57" y="46.38"/>
      <point x="575.57" y="149.83" type="curve" smooth="yes"/>
      <point x="575.57" y="249.55"/>
      <point x="517.4" y="285.62"/>
      <point x="443.99" y="321.32" type="curve"/>
      <point x="405.62" y="340.31"/>
      <point x="365.47" y="358.23"/>
      <point x="365.47" y="396.23" type="curve"/>
      <point x="365.47" y="427.07"/>
      <point x="381.92" y="444.6"/>
      <point x="417.08" y="481.91" type="curve"/>
      <point x="444.08" y="510.6"/>
      <point x="487.19" y="550.92"/>
      <point x="487.19" y="616.93" type="curve" smooth="yes"/>
      <point x="487.19" y="709.01"/>
      <point x="427.58" y="776.0"/>
      <point x="291.6" y="776.0" type="curve" smooth="yes"/>
      <point x="160.17" y="776.0"/>
      <point x="82.32" y="688.63"/>
      <point x="82.32" y="556.87" type="curve" smooth="yes"/>
      <point x="82.32" y="0.0" type="line"/>
      <point x="165.95" y="0.0" type="line"/>
      <point x="165.95" y="554.48" type="line"/>
      <point x="165.95" y="645.65"/>
      <point x="205.42" y="702.82"/>
      <point x="298.68" y="702.82" type="curve" smooth="yes"/>
      <point x="363.62" y="702.82"/>
      <point x="405.17" y="665.65"/>
      <point x="405.17" y="609.33" type="curve"/>
      <point x="405.17" y="564.32"/>
      <point x="383.16" y="542.47"/>
      <point x="346.3" y="503.92" type="curve"/>
      <point x="312.07" y="467.0"/>
      <point x="281.53" y="434.77"/>
      <point x="281.53" y="387.24" type="curve" smooth="yes"/>
      <point x="281.53" y="331.77"/>
      <point x="301.77" y="307.33"/>
      <point x="387.24" y="263.86" type="curve"/>
      <point x="458.64" y="228.08"/>
      <point x="490.17" y="202.08"/>
      <point x="490.17" y="149.37" type="curve" smooth="yes"/>
      <point x="490.17" y="94.12"/>
      <point x="452.77" y="59.95"/>
      <point x="386.98" y="59.95" type="curve" smooth="yes"/>
      <point x="319.18" y="59.95"/>
      <point x="277.11" y="81.11"/>
      <point x="263.2" y="88.26" type="curve"/>
      <point x="246.67" y="14.46" type="line"/>
      <point x="262.89" y="6.54"/>
      <point x="311.59" y="-12.0"/>
    </contour>
  </outline>
</glyph>
<glyph name="ae" format="2">
  <advance width="860.7"/>
  <unicode hex="00E6"/>
  <anchor x="430.35" y="0.0" name="bottom"/>
  <anchor x="430.35" y="520.015" name="top"/>
  <outline>
    <contour>
      <point x="255.015" y="-11.67" type="curve" smooth="yes"/>
      <point x="342.295" y="-11.67"/>
      <point x="399.63" y="18.295"/>
      <point x="436.33" y="43.64" type="curve"/>
      <point x="479.325" y="6.665"/>
      <point x="537.325" y="-11.67"/>
      <point x="614.33" y="-11.67" type="curve" smooth="yes"/>
      <point x="685.34" y="-11.67"/>
      <point x="748.71" y="6.99"/>
      <point x="771.4" y="19.0" type="curve"/>
      <point x="756.72" y="96.775" type="line"/>
      <point x="733.695" y="85.765"/>
      <point x="687.335" y="70.11"/>
      <point x="622.36" y="70.11" type="curve" smooth="yes"/>
      <point x="509.43" y="70.11"/>
      <point x="454.435" y="130.39"/>
      <point x="449.43" y="234.615" type="curve"/>
      <point x="804.055" y="234.615" type="line"/>
      <point x="805.055" y="245.96"/>
      <point x="806.39" y="261.645"/>
      <point x="806.39" y="273.99" type="curve" smooth="yes"/>
      <point x="806.39" y="447.33"/>
      <point x="721.705" y="532.685"/>
      <point x="589.345" y="532.685" type="curve" smooth="yes"/>
      <point x="523.68" y="532.685"/>
      <point x="460.69" y="504.04"/>
      <point x="416.355" y="443.73" type="curve"/>
      <point x="388.665" y="500.05"/>
      <point x="339.01" y="532.685"/>
      <point x="248.36" y="532.685" type="curve" smooth="yes"/>
      <point x="182.02" y="532.685"/>
      <point x="124.985" y="520.68"/>
      <point x="97.965" y="509.68" type="curve"/>
      <point x="109.65" y="432.24" type="line"/>
      <point x="133.015" y="441.25"/>
      <point x="175.705" y="452.575"/>
      <point x="240.67" y="452.575" type="curve" smooth="yes"/>
      <point x="337.95" y="452.575"/>
      <point x="357.635" y="393.98"/>
      <point x="357.635" y="329.68" type="curve" smooth="yes"/>
      <point x="357.635" y="302.705" type="line"/>
      <point x="344.62" y="307.705"/>
      <point x="299.99" y="315.695"/>
      <point x="262.32" y="315.695" type="curve" smooth="yes"/>
      <point x="140.005" y="315.695"/>
      <point x="43.644999999999996" y="270.705"/>
      <point x="43.644999999999996" y="154.685" type="curve" smooth="yes"/>
      <point x="43.644999999999996" y="33.665"/>
      <point x="131.65" y="-11.67"/>
    </contour>
    <contour>
      <point x="258.365" y="66.095" type="curve" smooth="yes"/>
      <point x="186.74" y="66.095"/>
      <point x="137.78" y="88.41"/>
      <point x="137.78" y="156.025" type="curve" smooth="yes"/>
      <point x="137.78" y="230.96"/>
      <point x="209.05" y="244.955"/>
      <point x="270.37" y="244.955" type="curve" smooth="yes"/>
      <point x="311.3" y="244.955"/>
      <point x="343.295" y="237.97"/>
      <point x="358.97" y="232.975" type="curve"/>
      <point x="359.97" y="180.695"/>
      <point x="370.29" y="140.4"/>
      <point x="390.62" y="101.71000000000001" type="curve"/>
      <point x="369.61" y="86.72"/>
      <point x="327.295" y="66.095"/>
    </contour>
    <contour>
      <point x="450.425" y="305.36" type="line"/>
      <point x="456.43" y="382.63"/>
      <point x="504.04" y="452.91"/>
      <point x="588.0" y="452.91" type="curve" smooth="yes"/>
      <point x="668.635" y="452.91"/>
      <point x="710.925" y="393.93"/>
      <point x="713.26" y="305.36" type="curve"/>
    </contour>
  </outline>
</glyph>
<glyph name="ccedilla" format="2">
  <advance width="470.0"/>
  <unicode hex="00E7"/>
  <outline>
    <contour>
      <point x="254.25" y="-195.5" type="curve" smooth="yes"/>
      <point x="335.0" y="-195.5"/>
      <point x="362.25" y="-155.5"/>
      <point x="362.25" y="-114.75" type="curve" smooth="yes"/>
      <point x="362.25" y="-77.75"/>
      <point x="341.0" y="-54.25"/>
      <point x="302.5" y="-37.0" type="curve"/>
      <point x="305.0" y="-29.5"/>
      <point x="309.75" y="-20.5"/>
      <point x="313.75" y="-11.5" type="curve"/>
      <point x="367.5" y="-10.0"/>
      <point x="420.25" y="3.75"/>
      <point x="445.25" y="16.75" type="curve"/>
      <point x="429.5" y="89.25" type="line"/>
      <point x="408.0" y="78.75"/>
      <point x="367.0" y="64.5"/>
      <point x="316.75" y="64.5" type="curve" smooth="yes"/>
      <point x="189.5" y="64.5"/>
      <point x="142.25" y="142.5"/>
      <point x="142.25" y="258.5" type="curve" smooth="yes"/>
      <point x="142.25" y="382.0"/>
      <point x="198.75" y="455.5"/>
      <point x="306.25" y="455.5" type="curve" smooth="yes"/>
      <point x="357.75" y="455.5"/>
      <point x="388.5" y="446.5"/>
      <point x="415.75" y="434.0" type="curve"/>
      <point x="436.25" y="505.75" type="line"/>
      <point x="405.75" y="521.75"/>
      <point x="354.0" y="531.75"/>
      <point x="298.75" y="531.75" type="curve" smooth="yes"/>
      <point x="146.0" y="531.75"/>
      <point x="52.5" y="418.0"/>
      <point x="52.5" y="258.5" type="curve" smooth="yes"/>
      <point x="52.5" y="114.0"/>
      <point x="120.75" y="11.0"/>
      <point x="256.75" y="-7.75" type="curve"/>
      <point x="247.0" y="-26.0"/>
      <point x="236.75" y="-49.25"/>
      <point x="231.75" y="-65.5" type="curve"/>
      <point x="272.5" y="-79.5"/>
      <point x="289.25" y="-90.25"/>
      <point x="289.0" y="-110.75" type="curve" smooth="yes"/>
      <point x="288.75" y="-129.75"/>
      <point x="274.25" y="-138.75"/>
      <point x="249.25" y="-138.75" type="curve" smooth="yes"/>
      <point x="223.0" y="-138.75"/>
      <point x="203.0" y="-134.5"/>
      <point x="189.5" y="-129.25" type="curve"/>
      <point x="179.0" y="-183.25" type="line"/>
      <point x="195.25" y="-189.75"/>
      <point x="226.75" y="-195.5"/>
    </contour>
  </outline>
</glyph>
<glyph name="eth" format="2">
  <advance width="585.705"/>
  <unicode hex="00F0"/>
  <anchor x="293.02" y="0.0" name="bottom"/>
  <anchor x="293.02" y="776.0" name="top"/>
  <outline>
    <contour>
      <point x="283.365" y="-12.67" type="curve" smooth="yes"/>
      <point x="476.335" y="-12.67"/>
      <point x="531.4" y="154.26"/>
      <point x="531.4" y="327.99" type="curve" smooth="yes"/>
      <point x="531.4" y="441.635"/>
      <point x="501.405" y="541.62"/>
      <point x="449.75" y="623.615" type="curve"/>
      <point x="550.72" y="658.935" type="line"/>
      <point x="529.7" y="717.0" type="line"/>
      <point x="411.375" y="676.005" type="line"/>
      <point x="378.035" y="716.34"/>
      <point x="338.03" y="750.34"/>
      <point x="293.025" y="777.34" type="curve"/>
      <point x="236.625" y="722.595" type="line"/>
      <point x="270.275" y="700.935"/>
      <point x="301.26" y="675.285"/>
      <point x="326.92" y="646.3" type="curve"/>
      <point x="221.65" y="609.99" type="line"/>
      <point x="242.67" y="551.925" type="line"/>
      <point x="366.97" y="594.91" type="line"/>
      <point x="399.275" y="545.285"/>
      <point x="419.26" y="491.0"/>
      <point x="426.595" y="442.035" type="curve"/>
      <point x="402.92" y="459.025"/>
      <point x="353.275" y="484.99"/>
      <point x="289.015" y="484.99" type="curve" smooth="yes"/>
      <point x="141.63" y="484.99"/>
      <point x="51.65" y="393.97"/>
      <point x="51.65" y="241.315" type="curve" smooth="yes"/>
      <point x="51.65" y="102.99"/>
      <point x="135.315" y="-12.67"/>
    </contour>
    <contour>
      <point x="283.365" y="69.78" type="curve" smooth="yes"/>
      <point x="193.085" y="69.78"/>
      <point x="147.12" y="147.375"/>
      <point x="147.12" y="241.985" type="curve" smooth="yes"/>
      <point x="147.12" y="333.595"/>
      <point x="189.41" y="406.555"/>
      <point x="297.685" y="406.555" type="curve" smooth="yes"/>
      <point x="345.645" y="406.555"/>
      <point x="391.95" y="393.24"/>
      <point x="434.26" y="353.605" type="curve"/>
      <point x="435.26" y="343.28"/>
      <point x="435.26" y="333.955"/>
      <point x="435.26" y="324.97" type="curve" smooth="yes"/>
      <point x="435.26" y="197.035"/>
      <point x="408.275" y="69.78"/>
    </contour>
  </outline>
</glyph>
<glyph name="divide" format="2">
  <advance width="565.0"/>
  <unicode hex="00F7"/>
  <outline>
    <contour>
      <point x="54.25" y="254.75" type="line"/>
      <point x="510.75" y="254.75" type="line"/>
      <point x="510.75" y="328.0" type="line"/>
      <point x="54.25" y="328.0" type="line"/>
    </contour>
    <contour>
      <point x="282.0" y="41.25" type="curve" smooth="yes"/>
      <point x="314.0" y="41.25"/>
      <point x="339.25" y="64.25"/>
      <point x="339.25" y="99.0" type="curve" smooth="yes"/>
      <point x="339.25" y="134.5"/>
      <point x="314.0" y="157.5"/>
      <point x="282.0" y="157.5" type="curve" smooth="yes"/>
      <point x="250.75" y="157.5"/>
      <point x="225.5" y="134.5"/>
      <point x="225.5" y="99.0" type="curve" smooth="yes"/>
      <point x="225.5" y="64.25"/>
      <point x="250.75" y="41.25"/>
    </contour>
    <contour>
      <point x="282.0" y="424.5" type="curve" smooth="yes"/>
      <point x="314.0" y="424.5"/>
      <point x="339.25" y="447.5"/>
      <point x="339.25" y="483.0" type="curve" smooth="yes"/>
      <point x="339.25" y="517.75"/>
      <point x="314.0" y="540.75"/>
      <point x="282.0" y="540.75" type="curve" smooth="yes"/>
      <point x="250.75" y="540.75"/>
      <point x="225.5" y="517.75"/>
      <point x="225.5" y="483.0" type="curve" smooth="yes"/>
      <point x="225.5" y="447.5"/>
      <point x="250.75" y="424.5"/>
    </contour>
  </outline>
</glyph>
<glyph name="oslash" format="2">
  <advance width="587.75"/>
  <unicode hex="00F8"/>
  <anchor x="293.99" y="519.07" name="top"/>
  <outline>
    <contour>
      <point x="106.52" y="-35.15" type="line"/>
      <point x="156.14" y="30.009999999999998" type="line"/>
      <point x="194.37" y="2.3899999999999997"/>
      <point x="240.91" y="-12.46"/>
      <point x="293.99" y="-12.46" type="curve" smooth="yes"/>
      <point x="436.36" y="-12.46"/>
      <point x="535.05" y="95.69"/>
      <point x="535.05" y="259.38" type="curve" smooth="yes"/>
      <point x="535.05" y="335.38"/>
      <point x="514.05" y="399.15"/>
      <point x="476.59" y="445.38" type="curve"/>
      <point x="530.98" y="516.08" type="line"/>
      <point x="482.54" y="552.14" type="line"/>
      <point x="432.69" y="486.98" type="line"/>
      <point x="394.15" y="515.68"/>
      <point x="346.84" y="531.53"/>
      <point x="293.99" y="531.53" type="curve" smooth="yes"/>
      <point x="153.46" y="531.53"/>
      <point x="52.7" y="422.84"/>
      <point x="52.7" y="259.38" type="curve" smooth="yes"/>
      <point x="52.7" y="182.61"/>
      <point x="73.47" y="118.84"/>
      <point x="111.7" y="71.61" type="curve"/>
      <point x="57.31" y="1.6800000000000002" type="line"/>
    </contour>
    <contour>
      <point x="293.99" y="60.57" type="curve" smooth="yes"/>
      <point x="258.36" y="60.57"/>
      <point x="228.04" y="70.96000000000001"/>
      <point x="203.57" y="90.97" type="curve"/>
      <point x="423.09" y="376.2" type="line"/>
      <point x="439.64" y="344.42"/>
      <point x="448.8" y="304.71"/>
      <point x="448.8" y="259.38" type="curve" smooth="yes"/>
      <point x="448.8" y="137.74"/>
      <point x="389.09" y="60.57"/>
    </contour>
    <contour>
      <point x="164.66" y="141.02" type="line"/>
      <point x="147.65" y="172.34"/>
      <point x="138.95" y="212.05"/>
      <point x="138.95" y="259.38" type="curve" smooth="yes"/>
      <point x="138.95" y="381.02"/>
      <point x="198.89" y="458.5"/>
      <point x="293.99" y="458.5" type="curve" smooth="yes"/>
      <point x="330.16" y="458.5"/>
      <point x="361.25" y="446.57"/>
      <point x="385.49" y="426.02" type="curve"/>
    </contour>
  </outline>
</glyph>
<glyph name="thorn" format="2">
  <advance width="588.25"/>
  <unicode hex="00FE"/>
  <anchor x="294.5" y="0.0" name="bottom"/>
  <anchor x="294.5" y="519.25" name="top"/>
  <outline>
    <contour>
      <point x="82.0" y="-185.0" type="line"/>
      <point x="168.0" y="-185.0" type="line"/>
      <point x="168.0" y="25.75" type="line"/>
      <point x="193.5" y="9.25"/>
      <point x="242.25" y="-11.5"/>
      <point x="302.75" y="-11.5" type="curve" smooth="yes"/>
      <point x="451.75" y="-11.5"/>
      <point x="535.75" y="99.5"/>
      <point x="535.75" y="258.5" type="curve" smooth="yes"/>
      <point x="535.75" y="425.0"/>
      <point x="434.5" y="529.75"/>
      <point x="282.0" y="529.75" type="curve" smooth="yes"/>
      <point x="244.5" y="529.75"/>
      <point x="204.5" y="522.25"/>
      <point x="168.0" y="508.5" type="curve"/>
      <point x="168.0" y="776.0" type="line"/>
      <point x="82.0" y="761.0" type="line"/>
    </contour>
    <contour>
      <point x="291.25" y="64.25" type="curve" smooth="yes"/>
      <point x="237.0" y="64.25"/>
      <point x="190.0" y="86.75"/>
      <point x="168.0" y="104.0" type="curve"/>
      <point x="168.0" y="434.25" type="line"/>
      <point x="182.25" y="440.75"/>
      <point x="227.5" y="453.75"/>
      <point x="276.25" y="453.75" type="curve" smooth="yes"/>
      <point x="379.25" y="453.75"/>
      <point x="446.0" y="381.75"/>
      <point x="446.0" y="257.5" type="curve" smooth="yes"/>
      <point x="446.0" y="147.5"/>
      <point x="404.25" y="64.25"/>
    </contour>
  </outline>
</glyph>
<glyph name="Aogonek" format="2">
  <advance width="659.4"/>
  <unicode hex="0104"/>
  <outline>
    <contour>
      <point x="592.73" y="-194.05" type="curve" smooth="yes"/>
      <point x="615.26" y="-194.05"/>
      <point x="643.17" y="-189.05"/>
      <point x="657.08" y="-183.44" type="curve"/>
      <point x="650.47" y="-123.48" type="line"/>
      <point x="636.71" y="-128.17"/>
      <point x="621.48" y="-129.94"/>
      <point x="609.48" y="-129.94" type="curve" smooth="yes"/>
      <point x="585.71" y="-129.94"/>
      <point x="570.24" y="-119.94"/>
      <point x="570.24" y="-98.01" type="curve" smooth="yes"/>
      <point x="570.24" y="-62.31"/>
      <point x="623.47" y="-17.85"/>
      <point x="648.63" y="1.54" type="curve"/>
      <point x="540.86" y="293.22"/>
      <point x="465.94" y="492.22"/>
      <point x="369.55" y="693.0" type="curve"/>
      <point x="289.08" y="693.0" type="line"/>
      <point x="192.23" y="491.76"/>
      <point x="116.31" y="291.07"/>
      <point x="10.0" y="0.0" type="curve"/>
      <point x="101.93" y="0.0" type="line"/>
      <point x="123.86" y="63.4"/>
      <point x="145.94" y="122.87"/>
      <point x="166.79" y="180.8" type="curve"/>
      <point x="488.38" y="180.8" type="line"/>
      <point x="508.46" y="122.87"/>
      <point x="530.54" y="62.63"/>
      <point x="553.24" y="0.0" type="curve"/>
      <point x="564.28" y="0.0" type="line"/>
      <point x="533.13" y="-24.69"/>
      <point x="488.52" y="-69.07"/>
      <point x="488.52" y="-119.22" type="curve" smooth="yes"/>
      <point x="488.52" y="-163.44"/>
      <point x="517.59" y="-194.05"/>
    </contour>
    <contour>
      <point x="191.24" y="253.98" type="line"/>
      <point x="239.63" y="386.3"/>
      <point x="284.71" y="499.85"/>
      <point x="326.97" y="596.83" type="curve"/>
      <point x="369.92" y="499.85"/>
      <point x="414.54" y="386.3"/>
      <point x="463.7" y="253.98" type="curve"/>
    </contour>
  </outline>
</glyph>
<glyph name="aogonek" format="2">
  <advance width="519.12"/>
  <unicode hex="0105"/>
  <outline>
    <contour>
      <point x="379.45" y="-194.05" type="curve" smooth="yes"/>
      <point x="401.98" y="-194.05"/>
      <point x="429.89" y="-189.05"/>
      <point x="443.8" y="-183.44" type="curve"/>
      <point x="437.19" y="-123.48" type="line"/>
      <point x="423.43" y="-128.17"/>
      <point x="408.2" y="-129.94"/>
      <point x="396.2" y="-129.94" type="curve" smooth="yes"/>
      <point x="372.43" y="-129.94"/>
      <point x="356.96" y="-119.94"/>
      <point x="356.96" y="-98.01" type="curve" smooth="yes"/>
      <point x="356.96" y="-61.23"/>
      <point x="411.43" y="-13.84"/>
      <point x="442.57" y="11.15" type="curve"/>
      <point x="442.57" y="335.01" type="line" smooth="yes"/>
      <point x="442.57" y="450.07"/>
      <point x="392.65" y="531.53"/>
      <point x="246.68" y="531.53" type="curve" smooth="yes"/>
      <point x="180.76" y="531.53"/>
      <point x="125.93" y="519.84"/>
      <point x="100.17" y="508.84" type="curve"/>
      <point x="110.7" y="438.12" type="line"/>
      <point x="132.07" y="446.5"/>
      <point x="173.29" y="458.35"/>
      <point x="240.46" y="458.35" type="curve" smooth="yes"/>
      <point x="341.1" y="458.35"/>
      <point x="359.63" y="394.55"/>
      <point x="359.63" y="328.15" type="curve" smooth="yes"/>
      <point x="359.63" y="300.29" type="line"/>
      <point x="347.56" y="305.29"/>
      <point x="300.62" y="313.91"/>
      <point x="263.16" y="313.91" type="curve" smooth="yes"/>
      <point x="139.69" y="313.91"/>
      <point x="45.01" y="268.29"/>
      <point x="45.01" y="153.53" type="curve" smooth="yes"/>
      <point x="45.01" y="34.0"/>
      <point x="128.85" y="-11.0"/>
      <point x="243.29" y="-11.0" type="curve" smooth="yes"/>
      <point x="281.07" y="-11.0"/>
      <point x="318.54" y="-8.69"/>
      <point x="349.24" y="-4.92" type="curve"/>
      <point x="314.24" y="-31.84"/>
      <point x="275.24" y="-69.68"/>
      <point x="275.24" y="-119.22" type="curve" smooth="yes"/>
      <point x="275.24" y="-163.44"/>
      <point x="304.31" y="-194.05"/>
    </contour>
    <contour>
      <point x="254.06" y="60.11" type="curve" smooth="yes"/>
      <point x="178.27" y="60.11"/>
      <point x="130.64" y="83.58"/>
      <point x="130.64" y="154.45" type="curve" smooth="yes"/>
      <point x="130.64" y="233.48"/>
      <point x="205.9" y="247.79"/>
      <point x="268.06" y="247.79" type="curve" smooth="yes"/>
      <point x="315.01" y="247.79"/>
      <point x="346.09" y="239.4"/>
      <point x="359.63" y="234.09" type="curve"/>
      <point x="359.63" y="67.96000000000001" type="line"/>
      <point x="335.16" y="63.42"/>
      <point x="299.23" y="60.11"/>
    </contour>
  </outline>
</glyph>
<glyph name="dcroat" format="2">
  <advance width="590.705"/>
  <unicode hex="0111"/>
  <outline>
    <contour>
      <point x="312.35" y="-12.335" type="curve" smooth="yes"/>
      <point x="396.985" y="-12.335"/>
      <point x="466.37" y="2.33"/>
      <point x="509.395" y="16.335" type="curve"/>
      <point x="509.395" y="617.28" type="line"/>
      <point x="583.365" y="617.28" type="line"/>
      <point x="583.365" y="683.015" type="line"/>
      <point x="509.395" y="683.015" type="line"/>
      <point x="509.395" y="776.0" type="line"/>
      <point x="416.255" y="759.98" type="line"/>
      <point x="416.255" y="683.015" type="line"/>
      <point x="247.32" y="683.015" type="line"/>
      <point x="247.32" y="617.28" type="line"/>
      <point x="416.255" y="617.28" type="line"/>
      <point x="416.255" y="490.69" type="line"/>
      <point x="389.905" y="507.02"/>
      <point x="344.275" y="526.325"/>
      <point x="285.985" y="526.325" type="curve" smooth="yes"/>
      <point x="137.32" y="526.325"/>
      <point x="51.65" y="415.665"/>
      <point x="51.65" y="256.325" type="curve" smooth="yes"/>
      <point x="51.65" y="91.005"/>
      <point x="153.98" y="-12.335"/>
    </contour>
    <contour>
      <point x="313.35" y="69.445" type="curve" smooth="yes"/>
      <point x="212.735" y="69.445"/>
      <point x="148.455" y="140.755"/>
      <point x="148.455" y="258.67" type="curve" smooth="yes"/>
      <point x="148.455" y="364.29"/>
      <point x="189.44" y="444.88"/>
      <point x="297.68" y="444.88" type="curve" smooth="yes"/>
      <point x="349.295" y="444.88"/>
      <point x="394.595" y="423.91"/>
      <point x="416.255" y="407.255" type="curve"/>
      <point x="416.255" y="80.43" type="line"/>
      <point x="397.93" y="75.435"/>
      <point x="364.29" y="69.445"/>
    </contour>
  </outline>
</glyph>
<glyph name="Eogonek" format="2">
  <advance width="567.75"/>
  <unicode hex="0118"/>
  <anchor x="284.25" y="693.0" name="top"/>
  <outline>
    <contour>
      <point x="473.25" y="-194.75" type="curve" smooth="yes"/>
      <point x="496.0" y="-194.75"/>
      <point x="524.25" y="-189.75"/>
      <point x="538.5" y="-184.0" type="curve"/>
      <point x="531.75" y="-123.0" type="line"/>
      <point x="517.75" y="-127.75"/>
      <point x="502.5" y="-129.5"/>
      <point x="490.5" y="-129.5" type="curve" smooth="yes"/>
      <point x="466.75" y="-129.5"/>
      <point x="451.5" y="-119.5"/>
      <point x="451.5" y="-97.75" type="curve" smooth="yes"/>
      <point x="451.5" y="-62.0"/>
      <point x="504.75" y="-18.25"/>
      <point x="529.75" y="1.5" type="curve" smooth="yes"/>
      <point x="529.75" y="77.0" type="line"/>
      <point x="177.5" y="77.0" type="line"/>
      <point x="177.5" y="325.75" type="line"/>
      <point x="468.75" y="325.75" type="line"/>
      <point x="468.75" y="401.25" type="line"/>
      <point x="177.5" y="401.25" type="line"/>
      <point x="177.5" y="616.0" type="line"/>
      <point x="504.5" y="616.0" type="line"/>
      <point x="504.5" y="693.0" type="line"/>
      <point x="87.5" y="693.0" type="line"/>
      <point x="87.5" y="0.0" type="line"/>
      <point x="446.75" y="0.0" type="line"/>
      <point x="414.75" y="-23.25"/>
      <point x="368.5" y="-67.0"/>
      <point x="368.5" y="-119.5" type="curve" smooth="yes"/>
      <point x="368.5" y="-164.0"/>
      <point x="397.75" y="-194.75"/>
    </contour>
  </outline>
</glyph>
<glyph name="eogonek" format="2">
  <advance width="556.28"/>
  <unicode hex="0119"/>
  <anchor x="278.14" y="519.07" name="top"/>
  <outline>
    <contour>
      <point x="386.6" y="-194.05" type="curve" smooth="yes"/>
      <point x="409.13" y="-194.05"/>
      <point x="437.04" y="-189.05"/>
      <point x="450.95" y="-183.44" type="curve"/>
      <point x="444.34" y="-123.48" type="line"/>
      <point x="430.58" y="-128.17"/>
      <point x="415.35" y="-129.94"/>
      <point x="403.35" y="-129.94" type="curve" smooth="yes"/>
      <point x="379.58" y="-129.94"/>
      <point x="364.11" y="-119.94"/>
      <point x="364.11" y="-98.01" type="curve" smooth="yes"/>
      <point x="364.11" y="-64.01"/>
      <point x="421.17" y="-12.629999999999999"/>
      <point x="464.88" y="19.0" type="curve"/>
      <point x="451.04" y="89.95" type="line"/>
      <point x="429.59" y="79.57"/>
      <point x="384.91" y="63.18"/>
      <point x="318.36" y="63.18" type="curve" smooth="yes"/>
      <point x="201.02" y="63.18"/>
      <point x="145.71" y="126.82"/>
      <point x="141.02" y="237.87" type="curve"/>
      <point x="498.27" y="237.87" type="line"/>
      <point x="499.27" y="248.48"/>
      <point x="500.5" y="263.01"/>
      <point x="500.5" y="274.62" type="curve" smooth="yes"/>
      <point x="500.5" y="447.77"/>
      <point x="416.74" y="531.53"/>
      <point x="284.68" y="531.53" type="curve" smooth="yes"/>
      <point x="167.46" y="531.53"/>
      <point x="52.7" y="441.15"/>
      <point x="52.7" y="259.0" type="curve" smooth="yes"/>
      <point x="52.7" y="102.46"/>
      <point x="129.15" y="-10.92"/>
      <point x="312.22" y="-10.92" type="curve" smooth="yes"/>
      <point x="326.15" y="-10.92"/>
      <point x="341.85" y="-9.38"/>
      <point x="355.01" y="-7.07" type="curve"/>
      <point x="320.55" y="-33.14"/>
      <point x="282.39" y="-71.68"/>
      <point x="282.39" y="-119.22" type="curve" smooth="yes"/>
      <point x="282.39" y="-163.44"/>
      <point x="311.46" y="-194.05"/>
    </contour>
    <contour>
      <point x="142.56" y="303.68" type="line"/>
      <point x="148.25" y="384.94"/>
      <point x="199.43" y="458.58"/>
      <point x="285.91" y="458.58" type="curve" smooth="yes"/>
      <point x="368.54" y="458.58"/>
      <point x="413.56" y="398.34"/>
      <point x="415.79" y="303.68" type="curve"/>
    </contour>
  </outline>
</glyph>
<glyph name="Hbar" format="2">
  <advance width="728.28"/>
  <unicode hex="0126"/>
  <outline>
    <contour>
      <point x="101.01" y="0.0" type="line"/>
      <point x="189.25" y="0.0" type="line"/>
      <point x="189.25" y="321.73" type="line"/>
      <point x="539.03" y="321.73" type="line"/>
      <point x="539.03" y="0.0" type="line"/>
      <point x="627.27" y="0.0" type="line"/>
      <point x="627.27" y="525.1" type="line"/>
      <point x="707.5" y="525.1" type="line"/>
      <point x="707.5" y="591.98" type="line"/>
      <point x="627.27" y="591.98" type="line"/>
      <point x="627.27" y="693.0" type="line"/>
      <point x="539.03" y="693.0" type="line"/>
      <point x="539.03" y="591.98" type="line"/>
      <point x="189.25" y="591.98" type="line"/>
      <point x="189.25" y="693.0" type="line"/>
      <point x="101.01" y="693.0" type="line"/>
      <point x="101.01" y="591.98" type="line"/>
      <point x="20.78" y="591.98" type="line"/>
      <point x="20.78" y="525.1" type="line"/>
      <point x="101.01" y="525.1" type="line"/>
    </contour>
    <contour>
      <point x="189.25" y="397.98" type="line"/>
      <point x="189.25" y="525.1" type="line"/>
      <point x="539.03" y="525.1" type="line"/>
      <point x="539.03" y="397.98" type="line"/>
    </contour>
  </outline>
</glyph>
<glyph name="hbar" format="2">
  <advance width="575.9"/>
  <unicode hex="0127"/>
  <outline>
    <contour>
      <point x="84.62" y="0.0" type="line"/>
      <point x="168.94" y="0.0" type="line"/>
      <point x="168.94" y="431.2" type="line"/>
      <point x="182.55" y="436.97"/>
      <point x="237.12" y="451.44"/>
      <point x="277.98" y="451.44" type="curve" smooth="yes"/>
      <point x="383.48" y="451.44"/>
      <point x="415.03" y="401.58"/>
      <point x="415.03" y="267.08" type="curve" smooth="yes"/>
      <point x="415.03" y="0.0" type="line"/>
      <point x="499.35" y="0.0" type="line"/>
      <point x="499.35" y="287.39" type="line" smooth="yes"/>
      <point x="499.35" y="429.62"/>
      <point x="452.43" y="526.08"/>
      <point x="289.13" y="526.08" type="curve" smooth="yes"/>
      <point x="248.58" y="526.08"/>
      <point x="205.88" y="517.54"/>
      <point x="168.94" y="503.61" type="curve"/>
      <point x="168.94" y="620.64" type="line"/>
      <point x="345.82" y="620.64" type="line"/>
      <point x="345.82" y="682.07" type="line"/>
      <point x="168.94" y="682.07" type="line"/>
      <point x="168.94" y="776.0" type="line"/>
      <point x="84.62" y="761.24" type="line"/>
      <point x="84.62" y="682.07" type="line"/>
      <point x="8.76" y="682.07" type="line"/>
      <point x="8.76" y="620.64" type="line"/>
      <point x="84.62" y="620.64" type="line"/>
    </contour>
  </outline>
</glyph>
<glyph name="Iogonek" format="2">
  <advance width="270.78"/>
  <unicode hex="012E"/>
  <outline>
    <contour>
      <point x="127.74" y="-197.725" type="curve" smooth="yes"/>
      <point x="151.425" y="-197.725"/>
      <point x="181.12" y="-192.725"/>
      <point x="196.815" y="-186.38" type="curve"/>
      <point x="189.47" y="-120.96" type="line"/>
      <point x="174.45" y="-125.965"/>
      <point x="159.115" y="-127.63"/>
      <point x="147.115" y="-127.63" type="curve" smooth="yes"/>
      <point x="123.45" y="-127.63"/>
      <point x="109.135" y="-117.63"/>
      <point x="109.135" y="-96.645" type="curve" smooth="yes"/>
      <point x="109.135" y="-61.66"/>
      <point x="159.81" y="-19.325"/>
      <point x="184.13" y="0.0" type="curve"/>
      <point x="184.13" y="693.0" type="line"/>
      <point x="86.65" y="693.0" type="line"/>
      <point x="86.65" y="0.0" type="line"/>
      <point x="99.045" y="0.0" type="line"/>
      <point x="66.705" y="-23.675"/>
      <point x="20.695" y="-68.02"/>
      <point x="20.695" y="-120.69" type="curve" smooth="yes"/>
      <point x="20.695" y="-166.38"/>
      <point x="50.71" y="-197.725"/>
    </contour>
  </outline>
</glyph>
<glyph name="iogonek" format="2">
  <advance width="254.42000000000002"/>
  <unicode hex="012F"/>
  <outline>
    <contour>
      <point x="119.385" y="-197.725" type="curve" smooth="yes"/>
      <point x="143.07" y="-197.725"/>
      <point x="172.765" y="-192.725"/>
      <point x="188.46" y="-186.38" type="curve"/>
      <point x="181.115" y="-120.96" type="line"/>
      <point x="166.095" y="-125.965"/>
      <point x="150.76" y="-127.63"/>
      <point x="138.76" y="-127.63" type="curve" smooth="yes"/>
      <point x="115.095" y="-127.63"/>
      <point x="100.78" y="-117.63"/>
      <point x="100.78" y="-96.645" type="curve" smooth="yes"/>
      <point x="100.78" y="-61.66"/>
      <point x="144.805" y="-23.98"/>
      <point x="173.78" y="0.0" type="curve"/>
      <point x="173.78" y="520.015" type="line"/>
      <point x="80.64" y="520.015" type="line"/>
      <point x="80.64" y="0.0" type="line"/>
      <point x="90.69" y="0.0" type="line"/>
      <point x="58.35" y="-23.675"/>
      <point x="12.34" y="-68.02"/>
      <point x="12.34" y="-120.69" type="curve" smooth="yes"/>
      <point x="12.34" y="-166.38"/>
      <point x="42.355000000000004" y="-197.725"/>
    </contour>
    <contour>
      <point x="126.71000000000001" y="611.945" type="curve" smooth="yes"/>
      <point x="160.745" y="611.945"/>
      <point x="188.445" y="636.3"/>
      <point x="188.445" y="674.675" type="curve" smooth="yes"/>
      <point x="188.445" y="713.05"/>
      <point x="160.745" y="737.405"/>
      <point x="126.71000000000001" y="737.405" type="curve" smooth="yes"/>
      <point x="92.675" y="737.405"/>
      <point x="64.975" y="713.05"/>
      <point x="64.975" y="674.675" type="curve" smooth="yes"/>
      <point x="64.975" y="636.3"/>
      <point x="92.675" y="611.945"/>
    </contour>
  </outline>
</glyph>
<glyph name="dotlessi" format="2">
  <advance width="250.0"/>
  <unicode hex="0131"/>
  <anchor x="125.5" y="0.0" name="bottom"/>
  <anchor x="224.75" y="10.0" name="ogonek"/>
  <anchor x="125.5" y="519.25" name="top"/>
  <outline>
    <contour>
      <point x="82.0" y="0.0" type="line"/>
      <point x="168.0" y="0.0" type="line"/>
      <point x="168.0" y="519.25" type="line"/>
      <point x="82.0" y="519.25" type="line"/>
    </contour>
  </outline>
</glyph>
<glyph name="kgreenlandic" format="2">
  <advance width="531.46"/>
  <unicode hex="0138"/>
  <anchor x="265.73" y="0.0" name="bottom"/>
  <anchor x="265.73" y="520.015" name="top"/>
  <outline>
    <contour>
      <point x="80.64" y="0.0" type="line"/>
      <point x="173.78" y="0.0" type="line"/>
      <point x="173.78" y="244.615" type="line"/>
      <point x="248.095" y="195.93"/>
      <point x="351.35" y="88.95"/>
      <point x="407.65" y="0.0" type="curve"/>
      <point x="516.14" y="0.0" type="line"/>
      <point x="463.485" y="92.325"/>
      <point x="354.52" y="214.655"/>
      <point x="266.205" y="280.02" type="curve"/>
      <point x="327.865" y="339.02"/>
      <point x="438.17" y="451.01"/>
      <point x="498.83" y="520.015" type="curve"/>
      <point x="387.665" y="520.015" type="line"/>
      <point x="344.34" y="469.68"/>
      <point x="243.42000000000002" y="363.74"/>
      <point x="173.78" y="295.085" type="curve"/>
      <point x="173.78" y="520.015" type="line"/>
      <point x="80.64" y="520.015" type="line"/>
    </contour>
  </outline>
</glyph>
<glyph name="Lslash" format="2">
  <advance width="542.13"/>
  <unicode hex="0141"/>
  <outline>
    <contour>
      <point x="106.345" y="0.0" type="line"/>
      <point x="523.46" y="0.0" type="line"/>
      <point x="523.46" y="84.125" type="line"/>
      <point x="203.825" y="84.125" type="line"/>
      <point x="203.825" y="330.67" type="line"/>
      <point x="351.55" y="407.03" type="line"/>
      <point x="319.84000000000003" y="472.785" type="line"/>
      <point x="203.825" y="413.445" type="line"/>
      <point x="203.825" y="693.0" type="line"/>
      <point x="106.345" y="693.0" type="line"/>
      <point x="106.345" y="364.04" type="line"/>
      <point x="0.665" y="310.035" type="line"/>
      <point x="33.705" y="244.28" type="line"/>
      <point x="106.345" y="281.265" type="line"/>
    </contour>
  </outline>
</glyph>
<glyph name="lslash" format="2">
  <advance width="291.515"/>
  <unicode hex="0142"/>
  <outline>
    <contour>
      <point x="250.475" y="-10.0" type="curve"/>
      <point x="263.495" y="67.11500000000001" type="line"/>
      <point x="204.465" y="74.775"/>
      <point x="185.485" y="90.15"/>
      <point x="185.485" y="151.13" type="curve"/>
      <point x="185.485" y="388.045" type="line"/>
      <point x="288.185" y="440.725" type="line"/>
      <point x="258.48" y="503.465" type="line"/>
      <point x="185.485" y="466.135" type="line"/>
      <point x="185.485" y="776.0" type="line"/>
      <point x="92.345" y="759.98" type="line"/>
      <point x="92.345" y="418.07" type="line"/>
      <point x="5.295" y="373.715" type="line"/>
      <point x="35.665" y="311.64" type="line"/>
      <point x="92.345" y="340.645" type="line"/>
      <point x="92.345" y="139.75" type="line" smooth="yes"/>
      <point x="92.345" y="37.06"/>
      <point x="135.0" y="-5.005"/>
    </contour>
  </outline>
</glyph>
<glyph name="Eng" format="2">
  <advance width="724.745"/>
  <unicode hex="014A"/>
  <anchor x="362.705" y="0.0" name="bottom"/>
  <anchor x="362.705" y="693.0" name="top"/>
  <outline>
    <contour>
      <point x="488.31" y="-187.0" type="curve" smooth="yes"/>
      <point x="608.02" y="-187.0"/>
      <point x="638.095" y="-118.675"/>
      <point x="638.095" y="-11.594999999999999" type="curve"/>
      <point x="638.095" y="693.0" type="line"/>
      <point x="541.615" y="693.0" type="line"/>
      <point x="541.615" y="180.925" type="line"/>
      <point x="454.26" y="327.92"/>
      <point x="286.025" y="562.105"/>
      <point x="165.105" y="693.0" type="curve"/>
      <point x="86.65" y="693.0" type="line"/>
      <point x="86.65" y="0.0" type="line"/>
      <point x="182.79500000000002" y="0.0" type="line"/>
      <point x="182.79500000000002" y="540.45" type="line"/>
      <point x="293.115" y="410.795"/>
      <point x="457.615" y="171.04"/>
      <point x="541.615" y="25.375" type="curve"/>
      <point x="541.615" y="-17.57" type="line"/>
      <point x="541.615" y="-77.88499999999999"/>
      <point x="525.29" y="-106.88499999999999"/>
      <point x="476.97" y="-106.88499999999999" type="curve" smooth="yes"/>
      <point x="457.955" y="-106.88499999999999"/>
      <point x="445.965" y="-104.555"/>
      <point x="434.61" y="-100.215" type="curve"/>
      <point x="421.925" y="-176.66" type="line"/>
      <point x="439.295" y="-183.005"/>
      <point x="467.315" y="-187.0"/>
    </contour>
  </outline>
</glyph>
<glyph name="eng" format="2">
  <advance width="573.6"/>
  <unicode hex="014B"/>
  <anchor x="287.3" y="0.0" name="bottom"/>
  <anchor x="287.3" y="519.07" name="top"/>
  <outline>
    <contour>
      <point x="357.79" y="-185.77" type="curve" smooth="yes"/>
      <point x="474.77" y="-185.77"/>
      <point x="497.05" y="-118.84"/>
      <point x="497.05" y="-19.33" type="curve"/>
      <point x="497.05" y="290.84" type="line" smooth="yes"/>
      <point x="497.05" y="433.07"/>
      <point x="449.13" y="529.53"/>
      <point x="286.3" y="529.53" type="curve" smooth="yes"/>
      <point x="193.68" y="529.53"/>
      <point x="124.08" y="512.99"/>
      <point x="82.32" y="501.07" type="curve"/>
      <point x="82.32" y="0.0" type="line"/>
      <point x="166.64" y="0.0" type="line"/>
      <point x="166.64" y="442.96" type="line"/>
      <point x="181.02" y="447.5"/>
      <point x="224.73" y="454.89"/>
      <point x="276.53" y="454.89" type="curve" smooth="yes"/>
      <point x="380.18" y="454.89"/>
      <point x="412.73" y="405.03"/>
      <point x="412.73" y="270.53" type="curve" smooth="yes"/>
      <point x="412.73" y="-28.95" type="line"/>
      <point x="412.73" y="-89.03999999999999"/>
      <point x="395.5" y="-116.89"/>
      <point x="347.72" y="-116.89" type="curve" smooth="yes"/>
      <point x="331.49" y="-116.89"/>
      <point x="318.49" y="-114.66"/>
      <point x="309.65" y="-111.43" type="curve"/>
      <point x="298.58" y="-176.85" type="line"/>
      <point x="312.95" y="-182.46"/>
      <point x="336.94" y="-185.77"/>
    </contour>
  </outline>
</glyph>
<glyph name="OE" format="2">
  <advance width="991.75"/>
  <unicode hex="0152"/>
  <anchor x="496.0" y="0.0" name="bottom"/>
  <anchor x="496.0" y="693.0" name="top"/>
  <outline>
    <contour>
      <point x="440.75" y="-6.0" type="curve" smooth="yes"/>
      <point x="472.5" y="-6.0"/>
      <point x="509.0" y="-4.0"/>
      <point x="541.5" y="0.0" type="curve"/>
      <point x="953.75" y="0.0" type="line"/>
      <point x="953.75" y="77.0" type="line"/>
      <point x="616.25" y="77.0" type="line"/>
      <point x="616.25" y="325.75" type="line"/>
      <point x="892.75" y="325.75" type="line"/>
      <point x="892.75" y="401.25" type="line"/>
      <point x="616.25" y="401.25" type="line"/>
      <point x="616.25" y="616.0" type="line"/>
      <point x="928.5" y="616.0" type="line"/>
      <point x="928.5" y="693.0" type="line"/>
      <point x="540.75" y="693.0" type="line"/>
      <point x="509.0" y="697.0"/>
      <point x="472.5" y="699.0"/>
      <point x="440.75" y="699.0" type="curve" smooth="yes"/>
      <point x="217.0" y="699.0"/>
      <point x="61.25" y="583.75"/>
      <point x="61.25" y="347.0" type="curve" smooth="yes"/>
      <point x="61.25" y="109.25"/>
      <point x="217.0" y="-6.0"/>
    </contour>
    <contour>
      <point x="434.25" y="71.25" type="curve" smooth="yes"/>
      <point x="249.0" y="71.25"/>
      <point x="155.25" y="174.75"/>
      <point x="155.25" y="347.0" type="curve" smooth="yes"/>
      <point x="155.25" y="518.5"/>
      <point x="249.0" y="621.75"/>
      <point x="434.25" y="621.75" type="curve" smooth="yes"/>
      <point x="493.0" y="621.75"/>
      <point x="514.75" y="617.25"/>
      <point x="527.5" y="616.25" type="curve"/>
      <point x="527.5" y="76.75" type="line"/>
      <point x="515.25" y="75.75"/>
      <point x="492.25" y="71.25"/>
    </contour>
  </outline>
</glyph>
